{
.appVersion = "1286";
copyright = "Copyright © 2020 by Florian Karsten. All rights reserved.";
customParameters = (
{
name = Axes;
value = (
{
Hidden = 1;
Name = Weight;
Tag = wght;
},
{
Name = Extravaganza;
Tag = extr;
}
);
}
);
date = "2020-06-16 14:12:34 +0000";
designer = "Florian Karsten";
designerURL = fonts.floriankarsten.com;
familyName = "FKxGF Schoolbook (High Contrast)";
featurePrefixes = (
{
automatic = 1;
code = "languagesystem DFLT dflt;\012";
name = Languagesystems;
}
);
features = (
{
automatic = 1;
code = "feature salt;\012feature ss01;\012";
name = aalt;
},
{
automatic = 1;
code = "lookup ccmp_Other_1 {\012	@CombiningTopAccents = [dotaccentcomb];\012	sub [i j]' @CombiningTopAccents by [idotless jdotless];\012} ccmp_Other_1;\012";
name = ccmp;
},
{
automatic = 1;
code = "lookupflag IgnoreMarks;\012sub f f i by f_f_i.liga;\012sub f f l by f_f_l.liga;\012sub f f by f_f.liga;\012sub f i by f_i.liga;\012sub f l by f_l.liga;\012";
name = liga;
},
{
automatic = 1;
code = "sub i by i.ss01;\012sub idotless by idotless.ss01;\012sub l by l.ss01;\012";
name = salt;
},
{
automatic = 1;
code = "sub i by i.ss01;\012sub idotless by idotless.ss01;\012sub l by l.ss01;\012";
name = ss01;
}
);
fontMaster = (
{
alignmentZones = (
"{1520, 16}",
"{1440, 16}",
"{1100, 16}",
"{0, -16}",
"{-380, -20}"
);
ascender = 1520;
capHeight = 1440;
custom = "W100 E0";
descender = -400;
horizontalStems = (
40
);
iconName = Light_Condensed;
id = "CA54B7DC-FBBB-40FE-ACF3-AABDD76D6A7B";
verticalStems = (
50,
48
);
widthValue = 0;
xHeight = 1100;
},
{
alignmentZones = (
"{1480, 16}",
"{1440, 16}",
"{1080, 16}",
"{0, -16}",
"{-380, -20}"
);
ascender = 1480;
capHeight = 1440;
custom = "W100 E100";
descender = -400;
horizontalStems = (
40
);
iconName = Light_Extended;
id = "1E61A082-F045-49A7-AB52-DD1B03FD9B54";
verticalStems = (
50,
48
);
xHeight = 1080;
},
{
alignmentZones = (
"{1520, 20}",
"{1440, 20}",
"{1160, 20}",
"{0, -20}",
"{-380, -20}"
);
ascender = 1520;
capHeight = 1440;

glyphs = (
{
glyphname = A;
lastChange = "2020-06-16 14:09:35 +0000";
layers = (
{
layerId = "CA54B7DC-FBBB-40FE-ACF3-AABDD76D6A7B";
paths = (
{
closed = 1;
nodes = (
"1132 530 LINE",
"396 530 LINE",
"396 490 LINE",
"1132 490 LINE"
);
},
{
closed = 1;
nodes = (
"178 40 LINE",
"226 40 LINE",
"770 1390 LINE",
"768 1440 LINE",
"742 1440 LINE"
);
},
{
closed = 1;
nodes = (
"756 1440 LINE",
"752 1398 LINE",
"1300 40 LINE",
"1350 40 LINE",
"786 1440 LINE"
);
},
{
closed = 1;
nodes = (
"18 0 LINE",
"506 0 LINE",
"506 40 LINE",
"18 40 LINE"
);
},
{
closed = 1;
nodes = (
"1020 0 LINE",
"1510 0 LINE",
"1510 40 LINE",
"1020 40 LINE"
);
}
);
width = 1528;
},
{
layerId = "1E61A082-F045-49A7-AB52-DD1B03FD9B54";
paths = (
{
closed = 1;
nodes = (
"1116 530 LINE",
"380 530 LINE",
"380 490 LINE",
"1116 490 LINE"
);
},
{
closed = 1;
nodes = (
"162 40 LINE",
"210 40 LINE",
"754 1390 LINE",
"752 1440 LINE",
"726 1440 LINE"
);
},
{
closed = 1;
nodes = (
"740 1440 LINE",
"736 1398 LINE",
"1284 40 LINE",
"1334 40 LINE",
"770 1440 LINE"
);
},
{
closed = 1;
nodes = (
"2 0 LINE",
"490 0 LINE",
"490 40 LINE",
"2 40 LINE"
);
},
{
closed = 1;
nodes = (
"1004 0 LINE",
"1494 0 LINE",
"1494 40 LINE",
"1004 40 LINE"
);
}
);
width = 1496;
},
{
layerId = "642E5713-E15A-4A7E-A28E-9A6B75A6585C";
paths = (
{
closed = 1;
nodes = (
"1082 588 LINE",
"416 588 LINE",
"416 430 LINE",
"1082 430 LINE"
);
},
{
closed = 1;
nodes = (
"172 160 LINE",
"355 160 LINE",
"813 1303 LINE",
"812 1440 LINE",
"688 1440 LINE"
);
},
{
closed = 1;
nodes = (
"743 1440 LINE",
"720 1226 LINE",
"1131 160 LINE",
"1446 160 LINE",
"930 1440 LINE"
);
},
{
closed = 1;
nodes = (
"32 0 LINE",
"615 0 LINE",
"615 160 LINE",
"32 160 LINE"
);
},
{
closed = 1;
nodes = (
"871 0 LINE",
"1586 0 LINE",
"1586 160 LINE",
"871 160 LINE"
);
}
);
width = 1618;
},
{
layerId = "AF891779-7DE6-4679-9CA2-17B922C1DF84";
paths = (
{
closed = 1;
nodes = (
"1052 608 LINE",
"436 608 LINE",
"436 426 LINE",
"1052 426 LINE"
);
},
{
closed = 1;
nodes = (
"162 184 LINE",
"369 184 LINE",
"817 1303 LINE",
"816 1440 LINE",
"668 1440 LINE"
);
},
{
closed = 1;
nodes = (
"745 1440 LINE",
"722 1226 LINE",
"1123 184 LINE",
"1438 184 LINE",
"932 1440 LINE"
);
},
{
closed = 1;
nodes = (
"22 0 LINE",
"629 0 LINE",
"629 184 LINE",
"22 184 LINE"
);
},
{
closed = 1;
nodes = (
"863 0 LINE",
"1578 0 LINE",
"1578 184 LINE",
"863 184 LINE"
);
}
);
width = 1600;
}
);
leftKerningGroup = A;
rightKerningGroup = A;
unicode = 0041;
},
{
glyphname = B;
lastChange = "2020-06-16 13:49:48 +0000";
layers = (
{
layerId = "CA54B7DC-FBBB-40FE-ACF3-AABDD76D6A7B";
paths = (
{
closed = 1;
nodes = (
"360 1400 LINE",
"856 1400 LINE SMOOTH",
"1104 1400 OFFCURVE",
"1260 1290 OFFCURVE",
"1260 1076 CURVE SMOOTH",
"1260 862 OFFCURVE",
"1104 752 OFFCURVE",
"856 752 CURVE SMOOTH",
"360 752 LINE",
"360 720 LINE",
"868 720 LINE SMOOTH",
"1132 720 OFFCURVE",
"1308 842 OFFCURVE",
"1308 1076 CURVE SMOOTH",
"1308 1316 OFFCURVE",
"1132 1440 OFFCURVE",
"868 1440 CURVE SMOOTH",
"360 1440 LINE"
);
},
{
closed = 1;
nodes = (
"312 40 LINE",
"92 40 LINE",
"92 0 LINE",
"312 0 LINE"
);
},
{
closed = 1;
nodes = (
"360 1440 LINE",
"312 1440 LINE",
"312 0 LINE",
"360 0 LINE"
);
},
{
closed = 1;
nodes = (
"312 1440 LINE",
"104 1440 LINE",
"104 1400 LINE",
"312 1400 LINE"
);
},
{
closed = 1;
nodes = (
"360 712 LINE",
"880 712 LINE SMOOTH",
"1136 712 OFFCURVE",
"1296 598 OFFCURVE",
"1296 376 CURVE SMOOTH",
"1296 154 OFFCURVE",
"1136 40 OFFCURVE",
"880 40 CURVE SMOOTH",
"360 40 LINE",
"360 0 LINE",
"892 0 LINE SMOOTH",
"1164 0 OFFCURVE",
"1344 128 OFFCURVE",
"1344 376 CURVE SMOOTH",
"1344 618 OFFCURVE",
"1164 746 OFFCURVE",
"892 746 CURVE SMOOTH",
"360 746 LINE"
);
}
);
width = 1482;
},
{
layerId = "1E61A082-F045-49A7-AB52-DD1B03FD9B54";
paths = (
{
closed = 1;
nodes = (
"318 1400 LINE",
"814 1400 LINE SMOOTH",
"1062 1400 OFFCURVE",
"1218 1290 OFFCURVE",
"1218 1076 CURVE SMOOTH",
"1218 862 OFFCURVE",
"1062 752 OFFCURVE",
"814 752 CURVE SMOOTH",
"318 752 LINE",
"318 720 LINE",
"826 720 LINE SMOOTH",
"1090 720 OFFCURVE",
"1266 842 OFFCURVE",
"1266 1076 CURVE SMOOTH",
"1266 1316 OFFCURVE",
"1090 1440 OFFCURVE",
"826 1440 CURVE SMOOTH",
"318 1440 LINE"
);
},
{
closed = 1;
nodes = (
"270 40 LINE",
"50 40 LINE",
"50 0 LINE",
"270 0 LINE"
);
},
{
closed = 1;
nodes = (
"318 1440 LINE",
"270 1440 LINE",
"270 0 LINE",
"318 0 LINE"
);
},
{
closed = 1;
nodes = (
"270 1440 LINE",
"62 1440 LINE",
"62 1400 LINE",
"270 1400 LINE"
);
},
{
closed = 1;
nodes = (
"318 712 LINE",
"838 712 LINE SMOOTH",
"1094 712 OFFCURVE",
"1254 598 OFFCURVE",
"1254 376 CURVE SMOOTH",
"1254 154 OFFCURVE",
"1094 40 OFFCURVE",
"838 40 CURVE SMOOTH",
"318 40 LINE",
"318 0 LINE",
"850 0 LINE SMOOTH",
"1122 0 OFFCURVE",
"1302 128 OFFCURVE",
"1302 376 CURVE SMOOTH",
"1302 618 OFFCURVE",
"1122 746 OFFCURVE",
"850 746 CURVE SMOOTH",
"318 746 LINE"
);
}
);
width = 1406;
},
{
layerId = "642E5713-E15A-4A7E-A28E-9A6B75A6585C";
paths = (
{
closed = 1;
nodes = (
"530 1282 LINE",
"826 1282 LINE SMOOTH",
"994 1282 OFFCURVE",
"1098 1201 OFFCURVE",
"1098 1044 CURVE SMOOTH",
"1098 887 OFFCURVE",
"994 806 OFFCURVE",
"826 806 CURVE SMOOTH",
"530 806 LINE",
"530 718 LINE",
"892 718 LINE SMOOTH",
"1195 718 OFFCURVE",
"1396 836 OFFCURVE",
"1396 1078 CURVE SMOOTH",
"1396 1320 OFFCURVE",
"1195 1440 OFFCURVE",
"892 1440 CURVE SMOOTH",
"530 1440 LINE"
);
},
{
closed = 1;
nodes = (
"240 160 LINE",
"40 160 LINE",
"40 0 LINE",
"240 0 LINE"
);
},
{
closed = 1;
nodes = (
"530 1440 LINE",
"240 1440 LINE",
"240 0 LINE",
"530 0 LINE"
);
},
{
closed = 1;
nodes = (
"240 1440 LINE",
"44 1440 LINE",
"44 1282 LINE",
"240 1282 LINE"
);
},
{
closed = 1;
nodes = (
"530 646 LINE",
"850 646 LINE SMOOTH",
"1023 646 OFFCURVE",
"1132 568 OFFCURVE",
"1132 403 CURVE SMOOTH",
"1132 238 OFFCURVE",
"1023 160 OFFCURVE",
"850 160 CURVE SMOOTH",
"530 160 LINE",
"530 0 LINE",
"926 0 LINE SMOOTH",
"1229 0 OFFCURVE",
"1430 120 OFFCURVE",
"1430 374 CURVE SMOOTH",
"1430 628 OFFCURVE",
"1229 748 OFFCURVE",
"926 748 CURVE SMOOTH",
"530 748 LINE"
);
}
);
width = 1476;
},
{
layerId = "AF891779-7DE6-4679-9CA2-17B922C1DF84";
paths = (
{
closed = 1;
nodes = (
"554 1258 LINE",
"862 1258 LINE SMOOTH",
"1022 1258 OFFCURVE",
"1122 1184 OFFCURVE",
"1122 1038 CURVE SMOOTH",
"1122 892 OFFCURVE",
"1022 818 OFFCURVE",
"862 818 CURVE SMOOTH",
"554 818 LINE",
"554 704 LINE",
"916 704 LINE SMOOTH",
"1219 704 OFFCURVE",
"1420 828 OFFCURVE",
"1420 1072 CURVE SMOOTH",
"1420 1316 OFFCURVE",
"1219 1440 OFFCURVE",
"916 1440 CURVE SMOOTH",
"554 1440 LINE"
);
},
{
closed = 1;
nodes = (
"264 184 LINE",
"64 184 LINE",
"64 0 LINE",
"264 0 LINE"
);
},
{
closed = 1;
nodes = (
"554 1440 LINE",
"264 1440 LINE",
"264 0 LINE",
"554 0 LINE"
);
},
{
closed = 1;
nodes = (
"264 1440 LINE",
"68 1440 LINE",
"68 1258 LINE",
"264 1258 LINE"
);
},
{
closed = 1;
nodes = (
"554 636 LINE",
"890 636 LINE SMOOTH",
"1055 636 OFFCURVE",
"1156 561 OFFCURVE",
"1156 410 CURVE SMOOTH",
"1156 259 OFFCURVE",
"1055 184 OFFCURVE",
"890 184 CURVE SMOOTH",
"554 184 LINE",
"554 0 LINE",
"950 0 LINE SMOOTH",
"1253 0 OFFCURVE",
"1454 128 OFFCURVE",
"1454 384 CURVE SMOOTH",
"1454 640 OFFCURVE",
"1253 768 OFFCURVE",
"950 768 CURVE SMOOTH",
"554 768 LINE"
);
}
);
width = 1502;
}
);
leftKerningGroup = I;
leftMetricsKey = I;
rightKerningGroup = B;
unicode = 0042;
},
{
glyphname = C;
lastChange = "2020-06-16 13:57:49 +0000";
layers = (
{
layerId = "CA54B7DC-FBBB-40FE-ACF3-AABDD76D6A7B";
paths = (
{
closed = 1;
nodes = (
"1438 960 LINE",
"1426 1256 OFFCURVE",
"1217 1460 OFFCURVE",
"858 1460 CURVE SMOOTH",
"455 1460 OFFCURVE",
"162 1188 OFFCURVE",
"162 720 CURVE SMOOTH",
"162 252 OFFCURVE",
"455 -20 OFFCURVE",
"858 -20 CURVE SMOOTH",
"1250 -20 OFFCURVE",
"1454 231 OFFCURVE",
"1466 515 CURVE",
"1422 518 LINE",
"1406 252 OFFCURVE",
"1220 24 OFFCURVE",
"858 24 CURVE SMOOTH",
"481 24 OFFCURVE",
"210 296 OFFCURVE",
"210 720 CURVE SMOOTH",
"210 1144 OFFCURVE",
"481 1416 OFFCURVE",
"858 1416 CURVE SMOOTH",
"1218 1416 OFFCURVE",
"1381 1196 OFFCURVE",
"1400 960 CURVE"
);
},
{
closed = 1;
nodes = (
"1412 1440 LINE",
"1412 1014 LINE",
"1438 960 LINE",
"1456 960 LINE",
"1456 1440 LINE"
);
}
);
width = 1656;
},
{
layerId = "1E61A082-F045-49A7-AB52-DD1B03FD9B54";
paths = (
{
closed = 1;
nodes = (
"1372 910 LINE",
"1360 1236 OFFCURVE",
"1152 1460 OFFCURVE",
"794 1460 CURVE SMOOTH",
"416 1460 OFFCURVE",
"126 1188 OFFCURVE",
"126 720 CURVE SMOOTH",
"126 252 OFFCURVE",
"416 -20 OFFCURVE",
"794 -20 CURVE SMOOTH",
"1185 -20 OFFCURVE",
"1392 255 OFFCURVE",
"1400 566 CURVE",
"1356 568 LINE",
"1344 275 OFFCURVE",
"1155 24 OFFCURVE",
"794 24 CURVE SMOOTH",
"442 24 OFFCURVE",
"174 296 OFFCURVE",
"174 720 CURVE SMOOTH",
"174 1144 OFFCURVE",
"442 1416 OFFCURVE",
"794 1416 CURVE SMOOTH",
"1152 1416 OFFCURVE",
"1314 1172 OFFCURVE",
"1334 910 CURVE"
);
},
{
closed = 1;
nodes = (
"1346 1440 LINE",
"1346 964 LINE",
"1372 910 LINE",
"1390 910 LINE",
"1390 1440 LINE"
);
}
);
width = 1536;
},
{
layerId = "642E5713-E15A-4A7E-A28E-9A6B75A6585C";
paths = (
{
closed = 1;
nodes = (
"1452 870 LINE",
"1432 1241 OFFCURVE",
"1222 1460 OFFCURVE",
"832 1460 CURVE SMOOTH",
"405 1460 OFFCURVE",
"76 1188 OFFCURVE",
"76 720 CURVE SMOOTH",
"76 252 OFFCURVE",
"405 -20 OFFCURVE",
"832 -20 CURVE SMOOTH",
"1263 -20 OFFCURVE",
"1480 252 OFFCURVE",
"1496 604 CURVE",
"1331 612 LINE",
"1314 371 OFFCURVE",
"1182 168 OFFCURVE",
"884 168 CURVE SMOOTH",
"586 168 OFFCURVE",
"378 384 OFFCURVE",
"378 720 CURVE SMOOTH",
"378 1071 OFFCURVE",
"586 1296 OFFCURVE",
"884 1296 CURVE SMOOTH",
"1182 1296 OFFCURVE",
"1307 1090 OFFCURVE",
"1324 870 CURVE"
);
},
{
closed = 1;
nodes = (
"1328 1440 LINE",
"1328 1064 LINE",
"1452 870 LINE",
"1490 870 LINE",
"1490 1440 LINE"
);
}
);
width = 1562;
},
{
layerId = "AF891779-7DE6-4679-9CA2-17B922C1DF84";
paths = (
{
closed = 1;
nodes = (
"1454 930 LINE",
"1426 1244 OFFCURVE",
"1210 1460 OFFCURVE",
"822 1460 CURVE SMOOTH",
"409 1460 OFFCURVE",
"90 1188 OFFCURVE",
"90 720 CURVE SMOOTH",
"90 252 OFFCURVE",
"416 -20 OFFCURVE",
"838 -20 CURVE SMOOTH",
"1252 -20 OFFCURVE",
"1471 214 OFFCURVE",
"1492 526 CURVE",
"1302 547 LINE",
"1282 366 OFFCURVE",
"1163 194 OFFCURVE",
"892 194 CURVE SMOOTH",
"599 194 OFFCURVE",
"392 399 OFFCURVE",
"392 720 CURVE SMOOTH",
"392 1057 OFFCURVE",
"595 1272 OFFCURVE",
"882 1272 CURVE SMOOTH",
"1161 1272 OFFCURVE",
"1282 1106 OFFCURVE",
"1296 930 CURVE"
);
},
{
closed = 1;
nodes = (
"1298 1440 LINE",
"1298 1140 LINE",
"1454 930 LINE",
"1484 930 LINE",
"1484 1440 LINE"
);
}
);
width = 1576;
}
);
leftKerningGroup = O;
leftMetricsKey = O;
rightKerningGroup = C;
unicode = 0043;
},
{
glyphname = D;
lastChange = "2020-06-16 13:57:49 +0000";
layers = (
{
layerId = "CA54B7DC-FBBB-40FE-ACF3-AABDD76D6A7B";
paths = (
{
closed = 1;
nodes = (
"360 1400 LINE",
"648 1400 LINE SMOOTH",
"1076 1400 OFFCURVE",
"1356 1136 OFFCURVE",
"1356 720 CURVE SMOOTH",
"1356 304 OFFCURVE",
"1076 40 OFFCURVE",
"648 40 CURVE SMOOTH",
"360 40 LINE",
"360 0 LINE",
"648 0 LINE SMOOTH",
"1104 0 OFFCURVE",
"1404 264 OFFCURVE",
"1404 720 CURVE SMOOTH",
"1404 1176 OFFCURVE",
"1104 1440 OFFCURVE",
"648 1440 CURVE SMOOTH",
"360 1440 LINE"
);
},
{
closed = 1;
nodes = (
"312 40 LINE",
"92 40 LINE",
"92 0 LINE",
"312 0 LINE"
);
},
{
closed = 1;
nodes = (
"360 1440 LINE",
"312 1440 LINE",
"312 0 LINE",
"360 0 LINE"
);
},
{
closed = 1;
nodes = (
"312 1440 LINE",
"104 1440 LINE",
"104 1400 LINE",
"312 1400 LINE"
);
}
);
width = 1566;
},
{
layerId = "1E61A082-F045-49A7-AB52-DD1B03FD9B54";
paths = (
{
closed = 1;
nodes = (
"318 1400 LINE",
"606 1400 LINE SMOOTH",
"1034 1400 OFFCURVE",
"1314 1136 OFFCURVE",
"1314 720 CURVE SMOOTH",
"1314 304 OFFCURVE",
"1034 40 OFFCURVE",
"606 40 CURVE SMOOTH",
"318 40 LINE",
"318 0 LINE",
"606 0 LINE SMOOTH",
"1062 0 OFFCURVE",
"1362 264 OFFCURVE",
"1362 720 CURVE SMOOTH",
"1362 1176 OFFCURVE",
"1062 1440 OFFCURVE",
"606 1440 CURVE SMOOTH",
"318 1440 LINE"
);
},
{
closed = 1;
nodes = (
"270 40 LINE",
"50 40 LINE",
"50 0 LINE",
"270 0 LINE"
);
},
{
closed = 1;
nodes = (
"318 1440 LINE",
"270 1440 LINE",
"270 0 LINE",
"318 0 LINE"
);
},
{
closed = 1;
nodes = (
"270 1440 LINE",
"62 1440 LINE",
"62 1400 LINE",
"270 1400 LINE"
);
}
);
width = 1488;
},
{
layerId = "642E5713-E15A-4A7E-A28E-9A6B75A6585C";
paths = (
{
closed = 1;
nodes = (
"540 1282 LINE",
"664 1282 LINE SMOOTH",
"975 1282 OFFCURVE",
"1178 1065 OFFCURVE",
"1178 721 CURVE SMOOTH",
"1178 377 OFFCURVE",
"975 160 OFFCURVE",
"664 160 CURVE SMOOTH",
"540 160 LINE",
"540 0 LINE",
"704 0 LINE SMOOTH",
"1172 0 OFFCURVE",
"1480 264 OFFCURVE",
"1480 720 CURVE SMOOTH",
"1480 1176 OFFCURVE",
"1172 1440 OFFCURVE",
"704 1440 CURVE SMOOTH",
"540 1440 LINE"
);
},
{
closed = 1;
nodes = (
"240 160 LINE",
"40 160 LINE",
"40 0 LINE",
"240 0 LINE"
);
},
{
closed = 1;
nodes = (
"540 1440 LINE",
"240 1440 LINE",
"240 0 LINE",
"540 0 LINE"
);
},
{
closed = 1;
nodes = (
"240 1440 LINE",
"44 1440 LINE",
"44 1282 LINE",
"240 1282 LINE"
);
}
);
width = 1556;
},
{
layerId = "AF891779-7DE6-4679-9CA2-17B922C1DF84";
paths = (
{
closed = 1;
nodes = (
"564 1258 LINE",
"686 1258 LINE SMOOTH",
"998 1258 OFFCURVE",
"1202 1050 OFFCURVE",
"1202 721 CURVE SMOOTH",
"1202 392 OFFCURVE",
"998 184 OFFCURVE",
"686 184 CURVE SMOOTH",
"564 184 LINE",
"564 0 LINE",
"728 0 LINE SMOOTH",
"1196 0 OFFCURVE",
"1504 264 OFFCURVE",
"1504 720 CURVE SMOOTH",
"1504 1176 OFFCURVE",
"1196 1440 OFFCURVE",
"728 1440 CURVE SMOOTH",
"564 1440 LINE"
);
},
{
closed = 1;
nodes = (
"264 184 LINE",
"64 184 LINE",
"64 0 LINE",
"264 0 LINE"
);
},
{
closed = 1;
nodes = (
"564 1440 LINE",
"264 1440 LINE",
"264 0 LINE",
"564 0 LINE"
);
},
{
closed = 1;
nodes = (
"264 1440 LINE",
"68 1440 LINE",
"68 1258 LINE",
"264 1258 LINE"
);
}
);
width = 1594;
}
);
leftKerningGroup = I;
leftMetricsKey = I;
rightKerningGroup = O;
rightMetricsKey = O;
unicode = 0044;
},
{
glyphname = E;
lastChange = "2020-06-16 14:27:27 +0000";
layers = (
{
layerId = "CA54B7DC-FBBB-40FE-ACF3-AABDD76D6A7B";
paths = (
{
closed = 1;
nodes = (
"1268 40 LINE",
"92 40 LINE",
"92 0 LINE",
"1268 0 LINE"
);
},
{
closed = 1;
nodes = (
"360 1440 LINE",
"312 1440 LINE",
"312 0 LINE",
"360 0 LINE"
);
},
{
closed = 1;
nodes = (
"1252 1440 LINE",
"104 1440 LINE",
"104 1400 LINE",
"1252 1400 LINE"
);
},
{
closed = 1;
nodes = (
"1268 40 LINE",
"1268 460 LINE",
"1224 460 LINE",
"1224 180 LINE SMOOTH",
"1224 68 OFFCURVE",
"1216 40 OFFCURVE",
"1104 40 CURVE"
);
},
{
closed = 1;
nodes = (
"1200 1400 OFFCURVE",
"1208 1372 OFFCURVE",
"1208 1260 CURVE SMOOTH",
"1208 1000 LINE",
"1252 1000 LINE",
"1252 1400 LINE",
"1088 1400 LINE"
);
},
{
closed = 1;
nodes = (
"914 768 LINE",
"360 768 LINE",
"360 728 LINE",
"914 728 LINE"
);
},
{
closed = 1;
nodes = (
"862 728 OFFCURVE",
"870 700 OFFCURVE",
"870 588 CURVE SMOOTH",
"870 350 LINE",
"914 350 LINE",
"914 728 LINE",
"750 728 LINE"
);
},
{
closed = 1;
nodes = (
"914 768 LINE",
"914 1100 LINE",
"870 1100 LINE",
"870 908 LINE SMOOTH",
"870 796 OFFCURVE",
"862 768 OFFCURVE",
"750 768 CURVE"
);
}
);
width = 1428;
},
{
layerId = "1E61A082-F045-49A7-AB52-DD1B03FD9B54";
paths = (
{
closed = 1;
nodes = (
"1226 40 LINE",
"50 40 LINE",
"50 0 LINE",
"1226 0 LINE"
);
},
{
closed = 1;
nodes = (
"318 1440 LINE",
"270 1440 LINE",
"270 0 LINE",
"318 0 LINE"
);
},
{
closed = 1;
nodes = (
"1208 1440 LINE",
"62 1440 LINE",
"62 1400 LINE",
"1208 1400 LINE"
);
},
{
closed = 1;
nodes = (
"1226 40 LINE",
"1226 560 LINE",
"1182 560 LINE",
"1182 180 LINE SMOOTH",
"1182 68 OFFCURVE",
"1174 40 OFFCURVE",
"1062 40 CURVE"
);
},
{
closed = 1;
nodes = (
"1156 1400 OFFCURVE",
"1164 1372 OFFCURVE",
"1164 1260 CURVE SMOOTH",
"1164 900 LINE",
"1208 900 LINE",
"1208 1400 LINE",
"1044 1400 LINE"
);
},
{
closed = 1;
nodes = (
"872 780 LINE",
"318 780 LINE",
"318 740 LINE",
"872 740 LINE"
);
},
{
closed = 1;
nodes = (
"820 740 OFFCURVE",
"828 712 OFFCURVE",
"828 600 CURVE SMOOTH",
"828 290 LINE",
"872 290 LINE",
"872 740 LINE",
"708 740 LINE"
);
},
{
closed = 1;
nodes = (
"872 780 LINE",
"872 1160 LINE",
"828 1160 LINE",
"828 920 LINE SMOOTH",
"828 808 OFFCURVE",
"820 780 OFFCURVE",
"708 780 CURVE"
);
}
);
width = 1368;
},
{
layerId = "642E5713-E15A-4A7E-A28E-9A6B75A6585C";
paths = (
{
closed = 1;
nodes = (
"1306 160 LINE",
"40 160 LINE",
"40 0 LINE",
"1306 0 LINE"
);
},
{
closed = 1;
nodes = (
"530 1440 LINE",
"240 1440 LINE",
"240 0 LINE",
"530 0 LINE"
);
},
{
closed = 1;
nodes = (
"1288 1440 LINE",
"44 1440 LINE",
"44 1282 LINE",
"1288 1282 LINE"
);
},
{
closed = 1;
nodes = (
"1306 160 LINE",
"1306 560 LINE",
"1134 560 LINE",
"1134 340 LINE SMOOTH",
"1134 208 OFFCURVE",
"1106 160 OFFCURVE",
"974 160 CURVE"
);
},
{
closed = 1;
nodes = (
"1088 1282 OFFCURVE",
"1116 1234 OFFCURVE",
"1116 1102 CURVE SMOOTH",
"1116 900 LINE",
"1288 900 LINE",
"1288 1282 LINE",
"956 1282 LINE"
);
},
{
closed = 1;
nodes = (
"970 838 LINE",
"530 838 LINE",
"530 680 LINE",
"970 680 LINE"
);
},
{
closed = 1;
nodes = (
"774 680 OFFCURVE",
"802 632 OFFCURVE",
"802 500 CURVE SMOOTH",
"802 318 LINE",
"970 318 LINE",
"970 680 LINE",
"642 680 LINE"
);
},
{
closed = 1;
nodes = (
"970 838 LINE",
"970 1130 LINE",
"802 1130 LINE",
"802 1018 LINE SMOOTH",
"802 886 OFFCURVE",
"774 838 OFFCURVE",
"642 838 CURVE"
);
}
);
width = 1364;
},
{
layerId = "AF891779-7DE6-4679-9CA2-17B922C1DF84";
paths = (
{
closed = 1;
nodes = (
"1330 184 LINE",
"64 184 LINE",
"64 0 LINE",
"1330 0 LINE"
);
},
{
closed = 1;
nodes = (
"554 1440 LINE",
"264 1440 LINE",
"264 0 LINE",
"554 0 LINE"
);
},
{
closed = 1;
nodes = (
"1312 1440 LINE",
"68 1440 LINE",
"68 1258 LINE",
"1312 1258 LINE"
);
},
{
closed = 1;
nodes = (
"1330 184 LINE",
"1330 480 LINE",
"1140 480 LINE",
"1140 364 LINE SMOOTH",
"1140 232 OFFCURVE",
"1112 184 OFFCURVE",
"980 184 CURVE"
);
},
{
closed = 1;
nodes = (
"1094 1258 OFFCURVE",
"1122 1210 OFFCURVE",
"1122 1078 CURVE SMOOTH",
"1122 994 LINE",
"1312 994 LINE",
"1312 1258 LINE",
"962 1258 LINE"
);
},
{
closed = 1;
nodes = (
"980 850 LINE",
"554 850 LINE",
"554 668 LINE",
"980 668 LINE"
);
},
{
closed = 1;
nodes = (
"764 668 OFFCURVE",
"792 620 OFFCURVE",
"792 488 CURVE SMOOTH",
"792 376 LINE",
"980 376 LINE",
"980 668 LINE",
"632 668 LINE"
);
},
{
closed = 1;
nodes = (
"980 850 LINE",
"980 1074 LINE",
"792 1074 LINE",
"792 1030 LINE SMOOTH",
"792 898 OFFCURVE",
"764 850 OFFCURVE",
"632 850 CURVE"
);
}
);
width = 1414;
}
);
leftKerningGroup = I;
leftMetricsKey = I;
rightKerningGroup = E;
unicode = 0045;
},
{
glyphname = F;
lastChange = "2020-06-16 14:27:36 +0000";
layers = (
{
layerId = "CA54B7DC-FBBB-40FE-ACF3-AABDD76D6A7B";
paths = (
{
closed = 1;
nodes = (
"720 40 LINE",
"92 40 LINE",
"92 0 LINE",
"720 0 LINE"
);
},
{
closed = 1;
nodes = (
"360 1440 LINE",
"312 1440 LINE",
"312 0 LINE",
"360 0 LINE"
);
},
{
closed = 1;
nodes = (
"1230 1440 LINE",
"104 1440 LINE",
"104 1400 LINE",
"1230 1400 LINE"
);
},
{
closed = 1;
nodes = (
"1178 1400 OFFCURVE",
"1186 1372 OFFCURVE",
"1186 1260 CURVE SMOOTH",
"1186 1000 LINE",
"1230 1000 LINE",
"1230 1400 LINE",
"1066 1400 LINE"
);
},
{
closed = 1;
nodes = (
"916 754 LINE",
"360 754 LINE",
"360 714 LINE",
"916 714 LINE"
);
},
{
closed = 1;
nodes = (
"864 714 OFFCURVE",
"872 686 OFFCURVE",
"872 574 CURVE SMOOTH",
"872 380 LINE",
"916 380 LINE",
"916 714 LINE",
"752 714 LINE"
);
},
{
closed = 1;
nodes = (
"916 754 LINE",
"916 1060 LINE",
"872 1060 LINE",
"872 894 LINE SMOOTH",
"872 782 OFFCURVE",
"864 754 OFFCURVE",
"752 754 CURVE"
);
}
);
width = 1320;
},
{
layerId = "1E61A082-F045-49A7-AB52-DD1B03FD9B54";
paths = (
{
closed = 1;
nodes = (
"718 40 LINE",
"50 40 LINE",
"50 0 LINE",
"718 0 LINE"
);
},
{
closed = 1;
nodes = (
"318 1440 LINE",
"270 1440 LINE",
"270 0 LINE",
"318 0 LINE"
);
},
{
closed = 1;
nodes = (
"1188 1440 LINE",
"62 1440 LINE",
"62 1400 LINE",
"1188 1400 LINE"
);
},
{
closed = 1;
nodes = (
"1136 1400 OFFCURVE",
"1144 1372 OFFCURVE",
"1144 1260 CURVE SMOOTH",
"1144 900 LINE",
"1188 900 LINE",
"1188 1400 LINE",
"1024 1400 LINE"
);
},
{
closed = 1;
nodes = (
"878 760 LINE",
"318 760 LINE",
"318 720 LINE",
"878 720 LINE"
);
},
{
closed = 1;
nodes = (
"826 720 OFFCURVE",
"834 692 OFFCURVE",
"834 580 CURVE SMOOTH",
"834 300 LINE",
"878 300 LINE",
"878 720 LINE",
"714 720 LINE"
);
},
{
closed = 1;
nodes = (
"878 760 LINE",
"878 1160 LINE",
"834 1160 LINE",
"834 900 LINE SMOOTH",
"834 788 OFFCURVE",
"826 760 OFFCURVE",
"714 760 CURVE"
);
}
);
width = 1260;
},
{
layerId = "642E5713-E15A-4A7E-A28E-9A6B75A6585C";
paths = (
{
closed = 1;
nodes = (
"880 160 LINE",
"40 160 LINE",
"40 0 LINE",
"880 0 LINE"
);
},
{
closed = 1;
nodes = (
"530 1440 LINE",
"240 1440 LINE",
"240 0 LINE",
"530 0 LINE"
);
},
{
closed = 1;
nodes = (
"1278 1440 LINE",
"44 1440 LINE",
"44 1282 LINE",
"1278 1282 LINE"
);
},
{
closed = 1;
nodes = (
"1078 1282 OFFCURVE",
"1106 1234 OFFCURVE",
"1106 1102 CURVE SMOOTH",
"1106 900 LINE",
"1278 900 LINE",
"1278 1282 LINE",
"946 1282 LINE"
);
},
{
closed = 1;
nodes = (
"962 828 LINE",
"530 828 LINE",
"530 670 LINE",
"962 670 LINE"
);
},
{
closed = 1;
nodes = (
"766 670 OFFCURVE",
"794 622 OFFCURVE",
"794 490 CURVE SMOOTH",
"794 322 LINE",
"962 322 LINE",
"962 670 LINE",
"634 670 LINE"
);
},
{
closed = 1;
nodes = (
"962 828 LINE",
"962 1132 LINE",
"794 1132 LINE",
"794 1008 LINE SMOOTH",
"794 876 OFFCURVE",
"766 828 OFFCURVE",
"634 828 CURVE"
);
}
);
width = 1322;
},
{
layerId = "AF891779-7DE6-4679-9CA2-17B922C1DF84";
paths = (
{
closed = 1;
nodes = (
"884 184 LINE",
"64 184 LINE",
"64 0 LINE",
"884 0 LINE"
);
},
{
closed = 1;
nodes = (
"554 1440 LINE",
"264 1440 LINE",
"264 0 LINE",
"554 0 LINE"
);
},
{
closed = 1;
nodes = (
"1302 1440 LINE",
"68 1440 LINE",
"68 1258 LINE",
"1302 1258 LINE"
);
},
{
closed = 1;
nodes = (
"1084 1258 OFFCURVE",
"1112 1210 OFFCURVE",
"1112 1078 CURVE SMOOTH",
"1112 980 LINE",
"1302 980 LINE",
"1302 1258 LINE",
"952 1258 LINE"
);
},
{
closed = 1;
nodes = (
"966 840 LINE",
"554 840 LINE",
"554 658 LINE",
"966 658 LINE"
);
},
{
closed = 1;
nodes = (
"750 658 OFFCURVE",
"778 610 OFFCURVE",
"778 478 CURVE SMOOTH",
"778 358 LINE",
"966 358 LINE",
"966 658 LINE",
"618 658 LINE"
);
},
{
closed = 1;
nodes = (
"966 840 LINE",
"966 1094 LINE",
"778 1094 LINE",
"778 1020 LINE SMOOTH",
"778 888 OFFCURVE",
"750 840 OFFCURVE",
"618 840 CURVE"
);
}
);
width = 1364;
}
);
leftKerningGroup = I;
leftMetricsKey = I;
rightKerningGroup = F;
unicode = 0046;
},
{
color = 0;
glyphname = G;
lastChange = "2020-06-16 13:57:49 +0000";
layers = (
{
layerId = "CA54B7DC-FBBB-40FE-ACF3-AABDD76D6A7B";
paths = (
{
closed = 1;
nodes = (
"1372 990 LINE",
"1355 1277 OFFCURVE",
"1166 1460 OFFCURVE",
"832 1460 CURVE SMOOTH",
"450 1460 OFFCURVE",
"162 1188 OFFCURVE",
"162 720 CURVE SMOOTH",
"162 252 OFFCURVE",
"456 -20 OFFCURVE",
"846 -20 CURVE SMOOTH",
"1236 -20 OFFCURVE",
"1426 258 OFFCURVE",
"1426 632 CURVE",
"1386 632 LINE",
"1386 302 OFFCURVE",
"1210 24 OFFCURVE",
"846 24 CURVE SMOOTH",
"482 24 OFFCURVE",
"210 296 OFFCURVE",
"210 720 CURVE SMOOTH",
"210 1144 OFFCURVE",
"478 1416 OFFCURVE",
"832 1416 CURVE SMOOTH",
"1163 1416 OFFCURVE",
"1314 1223 OFFCURVE",
"1334 990 CURVE"
);
},
{
closed = 1;
nodes = (
"1346 1440 LINE",
"1346 1044 LINE",
"1372 990 LINE",
"1390 990 LINE",
"1390 1440 LINE"
);
},
{
closed = 1;
nodes = (
"826 632 LINE",
"1630 632 LINE",
"1630 672 LINE",
"826 672 LINE"
);
},
{
closed = 1;
nodes = (
"1386 632 LINE",
"1386 0 LINE",
"1430 0 LINE",
"1430 632 LINE"
);
}
);
width = 1686;
},
{
layerId = "1E61A082-F045-49A7-AB52-DD1B03FD9B54";
paths = (
{
closed = 1;
nodes = (
"1344 940 LINE",
"1326 1262 OFFCURVE",
"1136 1460 OFFCURVE",
"798 1460 CURVE SMOOTH",
"416 1460 OFFCURVE",
"126 1188 OFFCURVE",
"126 720 CURVE SMOOTH",
"126 252 OFFCURVE",
"420 -20 OFFCURVE",
"810 -20 CURVE SMOOTH",
"1200 -20 OFFCURVE",
"1390 258 OFFCURVE",
"1390 632 CURVE",
"1350 632 LINE",
"1350 302 OFFCURVE",
"1174 24 OFFCURVE",
"810 24 CURVE SMOOTH",
"446 24 OFFCURVE",
"174 296 OFFCURVE",
"174 720 CURVE SMOOTH",
"174 1144 OFFCURVE",
"444 1416 OFFCURVE",
"798 1416 CURVE SMOOTH",
"1135 1416 OFFCURVE",
"1286 1205 OFFCURVE",
"1306 940 CURVE"
);
},
{
closed = 1;
nodes = (
"1318 1440 LINE",
"1318 994 LINE",
"1344 940 LINE",
"1362 940 LINE",
"1362 1440 LINE"
);
},
{
closed = 1;
nodes = (
"746 632 LINE",
"1594 632 LINE",
"1594 672 LINE",
"746 672 LINE"
);
},
{
closed = 1;
nodes = (
"1350 632 LINE",
"1350 0 LINE",
"1394 0 LINE",
"1394 632 LINE"
);
}
);
width = 1638;
},
{
layerId = "642E5713-E15A-4A7E-A28E-9A6B75A6585C";
paths = (
{
closed = 1;
nodes = (
"1294 940 LINE",
"1276 1262 OFFCURVE",
"1086 1460 OFFCURVE",
"748 1460 CURVE SMOOTH",
"366 1460 OFFCURVE",
"76 1188 OFFCURVE",
"76 720 CURVE SMOOTH",
"76 252 OFFCURVE",
"370 -20 OFFCURVE",
"760 -20 CURVE SMOOTH",
"1150 -20 OFFCURVE",
"1340 258 OFFCURVE",
"1340 632 CURVE",
"1300 632 LINE",
"1300 302 OFFCURVE",
"1124 24 OFFCURVE",
"760 24 CURVE SMOOTH",
"396 24 OFFCURVE",
"124 296 OFFCURVE",
"124 720 CURVE SMOOTH",
"124 1144 OFFCURVE",
"394 1416 OFFCURVE",
"748 1416 CURVE SMOOTH",
"1085 1416 OFFCURVE",
"1236 1205 OFFCURVE",
"1256 940 CURVE"
);
},
{
closed = 1;
nodes = (
"1268 1440 LINE",
"1268 994 LINE",
"1294 940 LINE",
"1312 940 LINE",
"1312 1440 LINE"
);
},
{
closed = 1;
nodes = (
"696 632 LINE",
"1544 632 LINE",
"1544 672 LINE",
"696 672 LINE"
);
},
{
closed = 1;
nodes = (
"1300 632 LINE",
"1300 0 LINE",
"1344 0 LINE",
"1344 632 LINE"
);
}
);
width = 1588;
},
{
layerId = "AF891779-7DE6-4679-9CA2-17B922C1DF84";
paths = (
{
closed = 1;
nodes = (
"1300 990 LINE",
"1283 1277 OFFCURVE",
"1094 1460 OFFCURVE",
"760 1460 CURVE SMOOTH",
"378 1460 OFFCURVE",
"90 1188 OFFCURVE",
"90 720 CURVE SMOOTH",
"90 252 OFFCURVE",
"384 -20 OFFCURVE",
"774 -20 CURVE SMOOTH",
"1164 -20 OFFCURVE",
"1354 258 OFFCURVE",
"1354 632 CURVE",
"1314 632 LINE",
"1314 302 OFFCURVE",
"1138 24 OFFCURVE",
"774 24 CURVE SMOOTH",
"410 24 OFFCURVE",
"138 296 OFFCURVE",
"138 720 CURVE SMOOTH",
"138 1144 OFFCURVE",
"406 1416 OFFCURVE",
"760 1416 CURVE SMOOTH",
"1091 1416 OFFCURVE",
"1242 1223 OFFCURVE",
"1262 990 CURVE"
);
},
{
closed = 1;
nodes = (
"1274 1440 LINE",
"1274 1044 LINE",
"1300 990 LINE",
"1318 990 LINE",
"1318 1440 LINE"
);
},
{
closed = 1;
nodes = (
"754 632 LINE",
"1558 632 LINE",
"1558 672 LINE",
"754 672 LINE"
);
},
{
closed = 1;
nodes = (
"1314 632 LINE",
"1314 0 LINE",
"1358 0 LINE",
"1358 632 LINE"
);
}
);
width = 1614;
}
);
leftKerningGroup = O;
leftMetricsKey = O;
rightKerningGroup = G;
unicode = 0047;
},
{
glyphname = H;
lastChange = "2020-06-16 11:49:15 +0000";
layers = (
{
layerId = "CA54B7DC-FBBB-40FE-ACF3-AABDD76D6A7B";
paths = (
{
closed = 1;
nodes = (
"600 40 LINE",
"92 40 LINE",
"92 0 LINE",
"600 0 LINE"
);
},
{
closed = 1;
nodes = (
"360 1440 LINE",
"312 1440 LINE",
"312 0 LINE",
"360 0 LINE"
);
},
{
closed = 1;
nodes = (
"588 1440 LINE",
"104 1440 LINE",
"104 1400 LINE",
"588 1400 LINE"
);
},
{
closed = 1;
nodes = (
"1532 40 LINE",
"1024 40 LINE",
"1024 0 LINE",
"1532 0 LINE"
);
},
{
closed = 1;
nodes = (
"1312 1440 LINE",
"1264 1440 LINE",
"1264 0 LINE",
"1312 0 LINE"
);
},
{
closed = 1;
nodes = (
"1520 1440 LINE",
"1036 1440 LINE",
"1036 1400 LINE",
"1520 1400 LINE"
);
},
{
closed = 1;
nodes = (
"1264 750 LINE",
"360 750 LINE",
"360 710 LINE",
"1264 710 LINE"
);
}
);
width = 1624;
},
{
layerId = "1E61A082-F045-49A7-AB52-DD1B03FD9B54";
paths = (
{
closed = 1;
nodes = (
"558 40 LINE",
"50 40 LINE",
"50 0 LINE",
"558 0 LINE"
);
},
{
closed = 1;
nodes = (
"318 1440 LINE",
"270 1440 LINE",
"270 0 LINE",
"318 0 LINE"
);
},
{
closed = 1;
nodes = (
"546 1440 LINE",
"62 1440 LINE",
"62 1400 LINE",
"546 1400 LINE"
);
},
{
closed = 1;
nodes = (
"1490 40 LINE",
"982 40 LINE",
"982 0 LINE",
"1490 0 LINE"
);
},
{
closed = 1;
nodes = (
"1270 1440 LINE",
"1222 1440 LINE",
"1222 0 LINE",
"1270 0 LINE"
);
},
{
closed = 1;
nodes = (
"1478 1440 LINE",
"994 1440 LINE",
"994 1400 LINE",
"1478 1400 LINE"
);
},
{
closed = 1;
nodes = (
"1222 750 LINE",
"318 750 LINE",
"318 710 LINE",
"1222 710 LINE"
);
}
);
width = 1540;
},
{
layerId = "642E5713-E15A-4A7E-A28E-9A6B75A6585C";
paths = (
{
closed = 1;
nodes = (
"730 160 LINE",
"40 160 LINE",
"40 0 LINE",
"730 0 LINE"
);
},
{
closed = 1;
nodes = (
"530 1440 LINE",
"240 1440 LINE",
"240 0 LINE",
"530 0 LINE"
);
},
{
closed = 1;
nodes = (
"726 1440 LINE",
"44 1440 LINE",
"44 1282 LINE",
"726 1282 LINE"
);
},
{
closed = 1;
nodes = (
"1626 160 LINE",
"936 160 LINE",
"936 0 LINE",
"1626 0 LINE"
);
},
{
closed = 1;
nodes = (
"1426 1440 LINE",
"1136 1440 LINE",
"1136 0 LINE",
"1426 0 LINE"
);
},
{
closed = 1;
nodes = (
"1622 1440 LINE",
"940 1440 LINE",
"940 1282 LINE",
"1622 1282 LINE"
);
},
{
closed = 1;
nodes = (
"1136 810 LINE",
"530 810 LINE",
"530 650 LINE",
"1136 650 LINE"
);
}
);
width = 1666;
},
{
layerId = "AF891779-7DE6-4679-9CA2-17B922C1DF84";
paths = (
{
closed = 1;
nodes = (
"754 184 LINE",
"64 184 LINE",
"64 0 LINE",
"754 0 LINE"
);
},
{
closed = 1;
nodes = (
"554 1440 LINE",
"264 1440 LINE",
"264 0 LINE",
"554 0 LINE"
);
},
{
closed = 1;
nodes = (
"750 1440 LINE",
"68 1440 LINE",
"68 1258 LINE",
"750 1258 LINE"
);
},
{
closed = 1;
nodes = (
"1650 184 LINE",
"960 184 LINE",
"960 0 LINE",
"1650 0 LINE"
);
},
{
closed = 1;
nodes = (
"1450 1440 LINE",
"1160 1440 LINE",
"1160 0 LINE",
"1450 0 LINE"
);
},
{
closed = 1;
nodes = (
"1646 1440 LINE",
"964 1440 LINE",
"964 1258 LINE",
"1646 1258 LINE"
);
},
{
closed = 1;
nodes = (
"1160 822 LINE",
"554 822 LINE",
"554 638 LINE",
"1160 638 LINE"
);
}
);
width = 1714;
}
);
leftKerningGroup = I;
leftMetricsKey = I;
rightKerningGroup = I;
rightMetricsKey = I;
unicode = 0048;
},
{
glyphname = I;
lastChange = "2020-06-16 14:08:47 +0000";
layers = (
{
layerId = "CA54B7DC-FBBB-40FE-ACF3-AABDD76D6A7B";
paths = (
{
closed = 1;
nodes = (
"580 40 LINE",
"92 40 LINE",
"92 0 LINE",
"580 0 LINE"
);
},
{
closed = 1;
nodes = (
"360 1440 LINE",
"312 1440 LINE",
"312 0 LINE",
"360 0 LINE"
);
},
{
closed = 1;
nodes = (
"568 1440 LINE",
"104 1440 LINE",
"104 1400 LINE",
"568 1400 LINE"
);
}
);
width = 672;
},
{
layerId = "1E61A082-F045-49A7-AB52-DD1B03FD9B54";
paths = (
{
closed = 1;
nodes = (
"538 40 LINE",
"50 40 LINE",
"50 0 LINE",
"538 0 LINE"
);
},
{
closed = 1;
nodes = (
"318 1440 LINE",
"270 1440 LINE",
"270 0 LINE",
"318 0 LINE"
);
},
{
closed = 1;
nodes = (
"526 1440 LINE",
"62 1440 LINE",
"62 1400 LINE",
"526 1400 LINE"
);
}
);
width = 588;
},
{
layerId = "642E5713-E15A-4A7E-A28E-9A6B75A6585C";
paths = (
{
closed = 1;
nodes = (
"730 160 LINE",
"40 160 LINE",
"40 0 LINE",
"730 0 LINE"
);
},
{
closed = 1;
nodes = (
"530 1440 LINE",
"240 1440 LINE",
"240 0 LINE",
"530 0 LINE"
);
},
{
closed = 1;
nodes = (
"726 1440 LINE",
"44 1440 LINE",
"44 1282 LINE",
"726 1282 LINE"
);
}
);
width = 770;
},
{
layerId = "AF891779-7DE6-4679-9CA2-17B922C1DF84";
paths = (
{
closed = 1;
nodes = (
"754 184 LINE",
"64 184 LINE",
"64 0 LINE",
"754 0 LINE"
);
},
{
closed = 1;
nodes = (
"554 1440 LINE",
"264 1440 LINE",
"264 0 LINE",
"554 0 LINE"
);
},
{
closed = 1;
nodes = (
"750 1440 LINE",
"68 1440 LINE",
"68 1258 LINE",
"750 1258 LINE"
);
}
);
width = 818;
}
);
leftKerningGroup = I;
rightKerningGroup = I;
unicode = 0049;
},
{
glyphname = J;
lastChange = "2020-06-16 14:27:43 +0000";
layers = (
{
layerId = "CA54B7DC-FBBB-40FE-ACF3-AABDD76D6A7B";
paths = (
{
closed = 1;
nodes = (
"790 1440 LINE",
"790 392 LINE SMOOTH",
"790 146 OFFCURVE",
"664 20 OFFCURVE",
"460 20 CURVE SMOOTH",
"256 20 OFFCURVE",
"130 146 OFFCURVE",
"130 392 CURVE SMOOTH",
"130 460 LINE",
"86 460 LINE",
"86 388 LINE SMOOTH",
"86 110 OFFCURVE",
"234 -20 OFFCURVE",
"462 -20 CURVE SMOOTH",
"690 -20 OFFCURVE",
"838 110 OFFCURVE",
"838 396 CURVE SMOOTH",
"838 1440 LINE"
);
},
{
closed = 1;
nodes = (
"522 1400 LINE",
"1046 1400 LINE",
"1046 1440 LINE",
"522 1440 LINE"
);
}
);
width = 1100;
},
{
layerId = "1E61A082-F045-49A7-AB52-DD1B03FD9B54";
paths = (
{
closed = 1;
nodes = (
"778 1440 LINE",
"778 392 LINE SMOOTH",
"778 146 OFFCURVE",
"652 20 OFFCURVE",
"448 20 CURVE SMOOTH",
"244 20 OFFCURVE",
"118 146 OFFCURVE",
"118 392 CURVE SMOOTH",
"118 560 LINE",
"74 560 LINE",
"74 388 LINE SMOOTH",
"74 110 OFFCURVE",
"222 -20 OFFCURVE",
"450 -20 CURVE SMOOTH",
"678 -20 OFFCURVE",
"826 110 OFFCURVE",
"826 396 CURVE SMOOTH",
"826 1440 LINE"
);
},
{
closed = 1;
nodes = (
"510 1400 LINE",
"1034 1400 LINE",
"1034 1440 LINE",
"510 1440 LINE"
);
}
);
width = 1064;
},
{
layerId = "642E5713-E15A-4A7E-A28E-9A6B75A6585C";
paths = (
{
closed = 1;
nodes = (
"778 1440 LINE",
"778 392 LINE SMOOTH",
"778 146 OFFCURVE",
"650 20 OFFCURVE",
"446 20 CURVE SMOOTH",
"242 20 OFFCURVE",
"114 146 OFFCURVE",
"114 392 CURVE SMOOTH",
"114 560 LINE",
"74 560 LINE",
"74 388 LINE SMOOTH",
"74 110 OFFCURVE",
"222 -20 OFFCURVE",
"450 -20 CURVE SMOOTH",
"678 -20 OFFCURVE",
"826 110 OFFCURVE",
"826 396 CURVE SMOOTH",
"826 1440 LINE"
);
},
{
closed = 1;
nodes = (
"510 1400 LINE",
"1034 1400 LINE",
"1034 1440 LINE",
"510 1440 LINE"
);
}
);
width = 1056;
},
{
layerId = "AF891779-7DE6-4679-9CA2-17B922C1DF84";
paths = (
{
closed = 1;
nodes = (
"790 1440 LINE",
"790 392 LINE SMOOTH",
"790 146 OFFCURVE",
"662 20 OFFCURVE",
"458 20 CURVE SMOOTH",
"254 20 OFFCURVE",
"126 146 OFFCURVE",
"126 392 CURVE SMOOTH",
"126 460 LINE",
"86 460 LINE",
"86 388 LINE SMOOTH",
"86 110 OFFCURVE",
"234 -20 OFFCURVE",
"462 -20 CURVE SMOOTH",
"690 -20 OFFCURVE",
"838 110 OFFCURVE",
"838 396 CURVE SMOOTH",
"838 1440 LINE"
);
},
{
closed = 1;
nodes = (
"522 1400 LINE",
"1046 1400 LINE",
"1046 1440 LINE",
"522 1440 LINE"
);
}
);
width = 1074;
}
);
leftKerningGroup = J;
rightKerningGroup = U;
rightMetricsKey = U;
unicode = 004A;
},
{
glyphname = K;
lastChange = "2020-06-09 09:11:12 +0000";
layers = (
{
layerId = "CA54B7DC-FBBB-40FE-ACF3-AABDD76D6A7B";
paths = (
{
closed = 1;
nodes = (
"546 780 LINE",
"1266 34 LINE",
"1332 34 LINE",
"580 812 LINE"
);
},
{
closed = 1;
nodes = (
"1444 1440 LINE",
"956 1440 LINE",
"956 1400 LINE",
"1444 1400 LINE"
);
},
{
closed = 1;
nodes = (
"1492 34 LINE",
"1006 34 LINE",
"1006 -6 LINE",
"1492 -6 LINE"
);
},
{
closed = 1;
nodes = (
"340 562 LINE",
"1284 1400 LINE",
"1216 1400 LINE",
"326 610 LINE"
);
},
{
closed = 1;
nodes = (
"580 40 LINE",
"92 40 LINE",
"92 0 LINE",
"580 0 LINE"
);
},
{
closed = 1;
nodes = (
"360 1440 LINE",
"312 1440 LINE",
"312 0 LINE",
"360 0 LINE"
);
},
{
closed = 1;
nodes = (
"568 1440 LINE",
"104 1440 LINE",
"104 1400 LINE",
"568 1400 LINE"
);
}
);
width = 1520;
},
{
layerId = "1E61A082-F045-49A7-AB52-DD1B03FD9B54";
paths = (
{
closed = 1;
nodes = (
"504 780 LINE",
"1224 34 LINE",
"1290 34 LINE",
"538 812 LINE"
);
},
{
closed = 1;
nodes = (
"1402 1440 LINE",
"914 1440 LINE",
"914 1400 LINE",
"1402 1400 LINE"
);
},
{
closed = 1;
nodes = (
"1450 34 LINE",
"964 34 LINE",
"964 -6 LINE",
"1450 -6 LINE"
);
},
{
closed = 1;
nodes = (
"298 562 LINE",
"1242 1400 LINE",
"1174 1400 LINE",
"284 610 LINE"
);
},
{
closed = 1;
nodes = (
"538 40 LINE",
"50 40 LINE",
"50 0 LINE",
"538 0 LINE"
);
},
{
closed = 1;
nodes = (
"318 1440 LINE",
"270 1440 LINE",
"270 0 LINE",
"318 0 LINE"
);
},
{
closed = 1;
nodes = (
"526 1440 LINE",
"62 1440 LINE",
"62 1400 LINE",
"526 1400 LINE"
);
}
);
width = 1462;
},
{
layerId = "642E5713-E15A-4A7E-A28E-9A6B75A6585C";
paths = (
{
closed = 1;
nodes = (
"494 780 LINE",
"1214 34 LINE",
"1280 34 LINE",
"528 812 LINE"
);
},
{
closed = 1;
nodes = (
"1392 1440 LINE",
"904 1440 LINE",
"904 1400 LINE",
"1392 1400 LINE"
);
},
{
closed = 1;
nodes = (
"1440 34 LINE",
"954 34 LINE",
"954 -6 LINE",
"1440 -6 LINE"
);
},
{
closed = 1;
nodes = (
"288 562 LINE",
"1232 1400 LINE",
"1164 1400 LINE",
"274 610 LINE"
);
},
{
closed = 1;
nodes = (
"528 40 LINE",
"40 40 LINE",
"40 0 LINE",
"528 0 LINE"
);
},
{
closed = 1;
nodes = (
"308 1440 LINE",
"260 1440 LINE",
"260 0 LINE",
"308 0 LINE"
);
},
{
closed = 1;
nodes = (
"516 1440 LINE",
"52 1440 LINE",
"52 1400 LINE",
"516 1400 LINE"
);
}
);
width = 1452;
},
{
layerId = "AF891779-7DE6-4679-9CA2-17B922C1DF84";
paths = (
{
closed = 1;
nodes = (
"518 780 LINE",
"1238 34 LINE",
"1304 34 LINE",
"552 812 LINE"
);
},
{
closed = 1;
nodes = (
"1416 1440 LINE",
"928 1440 LINE",
"928 1400 LINE",
"1416 1400 LINE"
);
},
{
closed = 1;
nodes = (
"1464 34 LINE",
"978 34 LINE",
"978 -6 LINE",
"1464 -6 LINE"
);
},
{
closed = 1;
nodes = (
"312 562 LINE",
"1256 1400 LINE",
"1188 1400 LINE",
"298 610 LINE"
);
},
{
closed = 1;
nodes = (
"552 40 LINE",
"64 40 LINE",
"64 0 LINE",
"552 0 LINE"
);
},
{
closed = 1;
nodes = (
"332 1440 LINE",
"284 1440 LINE",
"284 0 LINE",
"332 0 LINE"
);
},
{
closed = 1;
nodes = (
"540 1440 LINE",
"76 1440 LINE",
"76 1400 LINE",
"540 1400 LINE"
);
}
);
width = 1492;
}
);
leftKerningGroup = I;
leftMetricsKey = I;
rightKerningGroup = K;
unicode = 004B;
},
{
glyphname = L;
lastChange = "2020-06-16 14:27:47 +0000";
layers = (
{
layerId = "CA54B7DC-FBBB-40FE-ACF3-AABDD76D6A7B";
paths = (
{
closed = 1;
nodes = (
"1222 40 LINE",
"92 40 LINE",
"92 0 LINE",
"1222 0 LINE"
);
},
{
closed = 1;
nodes = (
"360 1440 LINE",
"312 1440 LINE",
"312 0 LINE",
"360 0 LINE"
);
},
{
closed = 1;
nodes = (
"680 1440 LINE",
"104 1440 LINE",
"104 1400 LINE",
"680 1400 LINE"
);
},
{
closed = 1;
nodes = (
"1222 40 LINE",
"1222 460 LINE",
"1178 460 LINE",
"1178 180 LINE SMOOTH",
"1178 68 OFFCURVE",
"1170 40 OFFCURVE",
"1058 40 CURVE"
);
}
);
width = 1312;
},
{
layerId = "1E61A082-F045-49A7-AB52-DD1B03FD9B54";
paths = (
{
closed = 1;
nodes = (
"1180 40 LINE",
"50 40 LINE",
"50 0 LINE",
"1180 0 LINE"
);
},
{
closed = 1;
nodes = (
"318 1440 LINE",
"270 1440 LINE",
"270 0 LINE",
"318 0 LINE"
);
},
{
closed = 1;
nodes = (
"718 1440 LINE",
"62 1440 LINE",
"62 1400 LINE",
"718 1400 LINE"
);
},
{
closed = 1;
nodes = (
"1180 40 LINE",
"1180 560 LINE",
"1136 560 LINE",
"1136 180 LINE SMOOTH",
"1136 68 OFFCURVE",
"1128 40 OFFCURVE",
"1016 40 CURVE"
);
}
);
width = 1256;
},
{
layerId = "642E5713-E15A-4A7E-A28E-9A6B75A6585C";
paths = (
{
closed = 1;
nodes = (
"1266 160 LINE",
"40 160 LINE",
"40 0 LINE",
"1266 0 LINE"
);
},
{
closed = 1;
nodes = (
"530 1440 LINE",
"240 1440 LINE",
"240 0 LINE",
"530 0 LINE"
);
},
{
closed = 1;
nodes = (
"880 1440 LINE",
"44 1440 LINE",
"44 1282 LINE",
"880 1282 LINE"
);
},
{
closed = 1;
nodes = (
"1266 160 LINE",
"1266 560 LINE",
"1094 560 LINE",
"1094 340 LINE SMOOTH",
"1094 208 OFFCURVE",
"1066 160 OFFCURVE",
"934 160 CURVE"
);
}
);
width = 1310;
},
{
layerId = "AF891779-7DE6-4679-9CA2-17B922C1DF84";
paths = (
{
closed = 1;
nodes = (
"1290 184 LINE",
"64 184 LINE",
"64 0 LINE",
"1290 0 LINE"
);
},
{
closed = 1;
nodes = (
"554 1440 LINE",
"264 1440 LINE",
"264 0 LINE",
"554 0 LINE"
);
},
{
closed = 1;
nodes = (
"874 1440 LINE",
"68 1440 LINE",
"68 1258 LINE",
"874 1258 LINE"
);
},
{
closed = 1;
nodes = (
"1290 184 LINE",
"1290 464 LINE",
"1100 464 LINE",
"1100 364 LINE SMOOTH",
"1100 232 OFFCURVE",
"1072 184 OFFCURVE",
"940 184 CURVE"
);
}
);
width = 1358;
}
);
leftKerningGroup = I;
leftMetricsKey = I;
rightKerningGroup = L;
unicode = 004C;
},
{
color = 0;
glyphname = M;
lastChange = "2020-06-09 10:39:41 +0000";
layers = (
{
layerId = "CA54B7DC-FBBB-40FE-ACF3-AABDD76D6A7B";
paths = (
{
closed = 1;
nodes = (
"580 40 LINE",
"92 40 LINE",
"92 0 LINE",
"580 0 LINE"
);
},
{
closed = 1;
nodes = (
"360 1358 LINE",
"360 1440 LINE",
"312 1440 LINE",
"312 0 LINE",
"360 0 LINE"
);
},
{
closed = 1;
nodes = (
"312 1440 LINE",
"104 1440 LINE",
"104 1400 LINE",
"312 1400 LINE"
);
},
{
closed = 1;
nodes = (
"1560 1358 LINE",
"1560 1440 LINE",
"1546 1440 LINE",
"954 52 LINE",
"954 0 LINE",
"980 0 LINE"
);
},
{
closed = 1;
nodes = (
"1828 40 LINE",
"1340 40 LINE",
"1340 0 LINE",
"1828 0 LINE"
);
},
{
closed = 1;
nodes = (
"1608 1440 LINE",
"1560 1440 LINE",
"1560 0 LINE",
"1608 0 LINE"
);
},
{
closed = 1;
nodes = (
"1816 1440 LINE",
"1608 1440 LINE",
"1608 1400 LINE",
"1816 1400 LINE"
);
},
{
closed = 1;
nodes = (
"966 0 LINE",
"968 52 LINE",
"376 1440 LINE",
"360 1440 LINE",
"360 1358 LINE",
"940 0 LINE"
);
}
);
width = 1920;
},
{
layerId = "1E61A082-F045-49A7-AB52-DD1B03FD9B54";
paths = (
{
closed = 1;
nodes = (
"538 40 LINE",
"50 40 LINE",
"50 0 LINE",
"538 0 LINE"
);
},
{
closed = 1;
nodes = (
"318 1358 LINE",
"318 1440 LINE",
"270 1440 LINE",
"270 0 LINE",
"318 0 LINE"
);
},
{
closed = 1;
nodes = (
"270 1440 LINE",
"62 1440 LINE",
"62 1400 LINE",
"270 1400 LINE"
);
},
{
closed = 1;
nodes = (
"1518 1358 LINE",
"1518 1440 LINE",
"1504 1440 LINE",
"912 52 LINE",
"912 0 LINE",
"938 0 LINE"
);
},
{
closed = 1;
nodes = (
"1786 40 LINE",
"1298 40 LINE",
"1298 0 LINE",
"1786 0 LINE"
);
},
{
closed = 1;
nodes = (
"1566 1440 LINE",
"1518 1440 LINE",
"1518 0 LINE",
"1566 0 LINE"
);
},
{
closed = 1;
nodes = (
"1774 1440 LINE",
"1566 1440 LINE",
"1566 1400 LINE",
"1774 1400 LINE"
);
},
{
closed = 1;
nodes = (
"924 0 LINE",
"926 52 LINE",
"334 1440 LINE",
"318 1440 LINE",
"318 1358 LINE",
"898 0 LINE"
);
}
);
width = 1836;
},
{
layerId = "642E5713-E15A-4A7E-A28E-9A6B75A6585C";
paths = (
{
closed = 1;
nodes = (
"528 40 LINE",
"40 40 LINE",
"40 0 LINE",
"528 0 LINE"
);
},
{
closed = 1;
nodes = (
"308 1358 LINE",
"308 1440 LINE",
"260 1440 LINE",
"260 0 LINE",
"308 0 LINE"
);
},
{
closed = 1;
nodes = (
"260 1440 LINE",
"52 1440 LINE",
"52 1400 LINE",
"260 1400 LINE"
);
},
{
closed = 1;
nodes = (
"1508 1358 LINE",
"1508 1440 LINE",
"1494 1440 LINE",
"902 52 LINE",
"902 0 LINE",
"928 0 LINE"
);
},
{
closed = 1;
nodes = (
"1776 40 LINE",
"1288 40 LINE",
"1288 0 LINE",
"1776 0 LINE"
);
},
{
closed = 1;
nodes = (
"1556 1440 LINE",
"1508 1440 LINE",
"1508 0 LINE",
"1556 0 LINE"
);
},
{
closed = 1;
nodes = (
"1764 1440 LINE",
"1556 1440 LINE",
"1556 1400 LINE",
"1764 1400 LINE"
);
},
{
closed = 1;
nodes = (
"914 0 LINE",
"916 52 LINE",
"324 1440 LINE",
"308 1440 LINE",
"308 1358 LINE",
"888 0 LINE"
);
}
);
width = 1816;
},
{
layerId = "AF891779-7DE6-4679-9CA2-17B922C1DF84";
paths = (
{
closed = 1;
nodes = (
"552 40 LINE",
"64 40 LINE",
"64 0 LINE",
"552 0 LINE"
);
},
{
closed = 1;
nodes = (
"332 1358 LINE",
"332 1440 LINE",
"284 1440 LINE",
"284 0 LINE",
"332 0 LINE"
);
},
{
closed = 1;
nodes = (
"284 1440 LINE",
"76 1440 LINE",
"76 1400 LINE",
"284 1400 LINE"
);
},
{
closed = 1;
nodes = (
"1532 1358 LINE",
"1532 1440 LINE",
"1518 1440 LINE",
"926 52 LINE",
"926 0 LINE",
"952 0 LINE"
);
},
{
closed = 1;
nodes = (
"1800 40 LINE",
"1312 40 LINE",
"1312 0 LINE",
"1800 0 LINE"
);
},
{
closed = 1;
nodes = (
"1580 1440 LINE",
"1532 1440 LINE",
"1532 0 LINE",
"1580 0 LINE"
);
},
{
closed = 1;
nodes = (
"1788 1440 LINE",
"1580 1440 LINE",
"1580 1400 LINE",
"1788 1400 LINE"
);
},
{
closed = 1;
nodes = (
"938 0 LINE",
"940 52 LINE",
"348 1440 LINE",
"332 1440 LINE",
"332 1358 LINE",
"912 0 LINE"
);
}
);
width = 1864;
}
);
leftKerningGroup = I;
leftMetricsKey = I;
rightKerningGroup = I;
rightMetricsKey = I;
unicode = 004D;
},
{
glyphname = N;
lastChange = "2020-06-16 13:58:27 +0000";
layers = (
{
layerId = "CA54B7DC-FBBB-40FE-ACF3-AABDD76D6A7B";
paths = (
{
closed = 1;
nodes = (
"580 40 LINE",
"92 40 LINE",
"92 0 LINE",
"580 0 LINE"
);
},
{
closed = 1;
nodes = (
"360 1364 LINE",
"364 1440 LINE",
"312 1440 LINE",
"312 0 LINE",
"360 0 LINE"
);
},
{
closed = 1;
nodes = (
"312 1440 LINE",
"104 1440 LINE",
"104 1400 LINE",
"312 1400 LINE"
);
},
{
closed = 1;
nodes = (
"364 1440 LINE",
"360 1364 LINE",
"1284 0 LINE",
"1288 76 LINE"
);
},
{
closed = 1;
nodes = (
"1544 1440 LINE",
"1080 1440 LINE",
"1080 1400 LINE",
"1544 1400 LINE"
);
},
{
closed = 1;
nodes = (
"1336 1440 LINE",
"1288 1440 LINE",
"1288 76 LINE",
"1284 0 LINE",
"1336 0 LINE"
);
}
);
width = 1604;
},
{
layerId = "1E61A082-F045-49A7-AB52-DD1B03FD9B54";
paths = (
{
closed = 1;
nodes = (
"538 40 LINE",
"50 40 LINE",
"50 0 LINE",
"538 0 LINE"
);
},
{
closed = 1;
nodes = (
"318 1364 LINE",
"322 1440 LINE",
"270 1440 LINE",
"270 0 LINE",
"318 0 LINE"
);
},
{
closed = 1;
nodes = (
"270 1440 LINE",
"62 1440 LINE",
"62 1400 LINE",
"270 1400 LINE"
);
},
{
closed = 1;
nodes = (
"322 1440 LINE",
"318 1364 LINE",
"1242 0 LINE",
"1246 76 LINE"
);
},
{
closed = 1;
nodes = (
"1502 1440 LINE",
"1038 1440 LINE",
"1038 1400 LINE",
"1502 1400 LINE"
);
},
{
closed = 1;
nodes = (
"1294 1440 LINE",
"1246 1440 LINE",
"1246 76 LINE",
"1242 0 LINE",
"1294 0 LINE"
);
}
);
width = 1534;
},
{
layerId = "642E5713-E15A-4A7E-A28E-9A6B75A6585C";
paths = (
{
closed = 1;
nodes = (
"608 160 LINE",
"40 160 LINE",
"40 0 LINE",
"608 0 LINE"
);
},
{
closed = 1;
nodes = (
"408 1035 LINE",
"452 1440 LINE",
"240 1440 LINE",
"240 0 LINE",
"408 0 LINE"
);
},
{
closed = 1;
nodes = (
"240 1440 LINE",
"44 1440 LINE",
"44 1282 LINE",
"240 1282 LINE"
);
},
{
closed = 1;
nodes = (
"452 1440 LINE",
"408 1035 LINE",
"1218 0 LINE",
"1220 457 LINE"
);
},
{
closed = 1;
nodes = (
"1584 1440 LINE",
"1024 1440 LINE",
"1024 1282 LINE",
"1584 1282 LINE"
);
},
{
closed = 1;
nodes = (
"1388 1440 LINE",
"1219 1440 LINE",
"1220 457 LINE",
"1218 0 LINE",
"1388 0 LINE"
);
}
);
width = 1604;
},
{
layerId = "AF891779-7DE6-4679-9CA2-17B922C1DF84";
paths = (
{
closed = 1;
nodes = (
"658 184 LINE",
"64 184 LINE",
"64 0 LINE",
"658 0 LINE"
);
},
{
closed = 1;
nodes = (
"458 1037 LINE",
"512 1440 LINE",
"264 1440 LINE",
"264 0 LINE",
"458 0 LINE"
);
},
{
closed = 1;
nodes = (
"264 1440 LINE",
"68 1440 LINE",
"68 1258 LINE",
"264 1258 LINE"
);
},
{
closed = 1;
nodes = (
"512 1440 LINE",
"458 1037 LINE",
"1226 0 LINE",
"1228 474 LINE"
);
},
{
closed = 1;
nodes = (
"1618 1440 LINE",
"1032 1440 LINE",
"1032 1258 LINE",
"1618 1258 LINE"
);
},
{
closed = 1;
nodes = (
"1422 1440 LINE",
"1228 1440 LINE",
"1228 474 LINE",
"1226 0 LINE",
"1422 0 LINE"
);
}
);
width = 1654;
}
);
leftKerningGroup = I;
leftMetricsKey = I;
rightKerningGroup = N;
unicode = 004E;
},
{
glyphname = O;
lastChange = "2020-06-16 13:57:38 +0000";
layers = (
{
layerId = "CA54B7DC-FBBB-40FE-ACF3-AABDD76D6A7B";
paths = (
{
closed = 1;
nodes = (
"1278 -20 OFFCURVE",
"1582 252 OFFCURVE",
"1582 720 CURVE SMOOTH",
"1582 1188 OFFCURVE",
"1278 1460 OFFCURVE",
"872 1460 CURVE SMOOTH",
"466 1460 OFFCURVE",
"162 1188 OFFCURVE",
"162 720 CURVE SMOOTH",
"162 252 OFFCURVE",
"466 -20 OFFCURVE",
"872 -20 CURVE SMOOTH"
);
},
{
closed = 1;
nodes = (
"478 20 OFFCURVE",
"210 296 OFFCURVE",
"210 720 CURVE SMOOTH",
"210 1144 OFFCURVE",
"478 1420 OFFCURVE",
"872 1420 CURVE SMOOTH",
"1266 1420 OFFCURVE",
"1534 1144 OFFCURVE",
"1534 720 CURVE SMOOTH",
"1534 296 OFFCURVE",
"1266 20 OFFCURVE",
"872 20 CURVE SMOOTH"
);
}
);
width = 1744;
},
{
layerId = "1E61A082-F045-49A7-AB52-DD1B03FD9B54";
paths = (
{
closed = 1;
nodes = (
"1242 -20 OFFCURVE",
"1546 252 OFFCURVE",
"1546 720 CURVE SMOOTH",
"1546 1188 OFFCURVE",
"1242 1460 OFFCURVE",
"836 1460 CURVE SMOOTH",
"430 1460 OFFCURVE",
"126 1188 OFFCURVE",
"126 720 CURVE SMOOTH",
"126 252 OFFCURVE",
"430 -20 OFFCURVE",
"836 -20 CURVE SMOOTH"
);
},
{
closed = 1;
nodes = (
"442 20 OFFCURVE",
"174 296 OFFCURVE",
"174 720 CURVE SMOOTH",
"174 1144 OFFCURVE",
"442 1420 OFFCURVE",
"836 1420 CURVE SMOOTH",
"1230 1420 OFFCURVE",
"1498 1144 OFFCURVE",
"1498 720 CURVE SMOOTH",
"1498 296 OFFCURVE",
"1230 20 OFFCURVE",
"836 20 CURVE SMOOTH"
);
}
);
width = 1672;
},
{
layerId = "642E5713-E15A-4A7E-A28E-9A6B75A6585C";
paths = (
{
closed = 1;
nodes = (
"1317 -20 OFFCURVE",
"1648 252 OFFCURVE",
"1648 720 CURVE SMOOTH",
"1648 1188 OFFCURVE",
"1317 1460 OFFCURVE",
"862 1460 CURVE SMOOTH",
"407 1460 OFFCURVE",
"76 1188 OFFCURVE",
"76 720 CURVE SMOOTH",
"76 252 OFFCURVE",
"407 -20 OFFCURVE",
"862 -20 CURVE SMOOTH"
);
},
{
closed = 1;
nodes = (
"568 138 OFFCURVE",
"378 367 OFFCURVE",
"378 720 CURVE SMOOTH",
"378 1073 OFFCURVE",
"568 1302 OFFCURVE",
"862 1302 CURVE SMOOTH",
"1156 1302 OFFCURVE",
"1346 1073 OFFCURVE",
"1346 720 CURVE SMOOTH",
"1346 367 OFFCURVE",
"1156 138 OFFCURVE",
"862 138 CURVE SMOOTH"
);
}
);
width = 1724;
},
{
layerId = "AF891779-7DE6-4679-9CA2-17B922C1DF84";
paths = (
{
closed = 1;
nodes = (
"1337 -20 OFFCURVE",
"1670 252 OFFCURVE",
"1670 720 CURVE SMOOTH",
"1670 1188 OFFCURVE",
"1337 1460 OFFCURVE",
"880 1460 CURVE SMOOTH",
"423 1460 OFFCURVE",
"90 1188 OFFCURVE",
"90 720 CURVE SMOOTH",
"90 252 OFFCURVE",
"423 -20 OFFCURVE",
"880 -20 CURVE SMOOTH"
);
},
{
closed = 1;
nodes = (
"587 162 OFFCURVE",
"398 382 OFFCURVE",
"398 720 CURVE SMOOTH",
"398 1058 OFFCURVE",
"587 1278 OFFCURVE",
"880 1278 CURVE SMOOTH",
"1173 1278 OFFCURVE",
"1362 1058 OFFCURVE",
"1362 720 CURVE SMOOTH",
"1362 382 OFFCURVE",
"1173 162 OFFCURVE",
"880 162 CURVE SMOOTH"
);
}
);
width = 1760;
}
);
leftKerningGroup = O;
rightKerningGroup = O;
unicode = 004F;
},
{
glyphname = P;
lastChange = "2020-06-16 14:24:34 +0000";
layers = (
{
layerId = "CA54B7DC-FBBB-40FE-ACF3-AABDD76D6A7B";
paths = (
{
closed = 1;
nodes = (
"360 1400 LINE",
"830 1400 LINE SMOOTH",
"1090 1400 OFFCURVE",
"1254 1284 OFFCURVE",
"1254 1056 CURVE SMOOTH",
"1254 828 OFFCURVE",
"1090 712 OFFCURVE",
"830 712 CURVE SMOOTH",
"360 712 LINE",
"360 672 LINE",
"842 672 LINE SMOOTH",
"1118 672 OFFCURVE",
"1302 802 OFFCURVE",
"1302 1056 CURVE SMOOTH",
"1302 1310 OFFCURVE",
"1118 1440 OFFCURVE",
"842 1440 CURVE SMOOTH",
"360 1440 LINE"
);
},
{
closed = 1;
nodes = (
"720 40 LINE",
"92 40 LINE",
"92 0 LINE",
"720 0 LINE"
);
},
{
closed = 1;
nodes = (
"360 1440 LINE",
"312 1440 LINE",
"312 0 LINE",
"360 0 LINE"
);
},
{
closed = 1;
nodes = (
"312 1440 LINE",
"104 1440 LINE",
"104 1400 LINE",
"312 1400 LINE"
);
}
);
width = 1382;
},
{
layerId = "1E61A082-F045-49A7-AB52-DD1B03FD9B54";
paths = (
{
closed = 1;
nodes = (
"318 1400 LINE",
"788 1400 LINE SMOOTH",
"1048 1400 OFFCURVE",
"1212 1284 OFFCURVE",
"1212 1056 CURVE SMOOTH",
"1212 828 OFFCURVE",
"1048 712 OFFCURVE",
"788 712 CURVE SMOOTH",
"318 712 LINE",
"318 672 LINE",
"800 672 LINE SMOOTH",
"1076 672 OFFCURVE",
"1260 802 OFFCURVE",
"1260 1056 CURVE SMOOTH",
"1260 1310 OFFCURVE",
"1076 1440 OFFCURVE",
"800 1440 CURVE SMOOTH",
"318 1440 LINE"
);
},
{
closed = 1;
nodes = (
"718 40 LINE",
"50 40 LINE",
"50 0 LINE",
"718 0 LINE"
);
},
{
closed = 1;
nodes = (
"318 1440 LINE",
"270 1440 LINE",
"270 0 LINE",
"318 0 LINE"
);
},
{
closed = 1;
nodes = (
"270 1440 LINE",
"62 1440 LINE",
"62 1400 LINE",
"270 1400 LINE"
);
}
);
width = 1318;
},
{
layerId = "642E5713-E15A-4A7E-A28E-9A6B75A6585C";
paths = (
{
closed = 1;
nodes = (
"530 1282 LINE",
"820 1282 LINE SMOOTH",
"994 1282 OFFCURVE",
"1102 1199 OFFCURVE",
"1102 1032 CURVE SMOOTH",
"1102 865 OFFCURVE",
"994 782 OFFCURVE",
"820 782 CURVE SMOOTH",
"530 782 LINE",
"530 624 LINE",
"896 624 LINE SMOOTH",
"1199 624 OFFCURVE",
"1400 762 OFFCURVE",
"1400 1032 CURVE SMOOTH",
"1400 1302 OFFCURVE",
"1199 1440 OFFCURVE",
"896 1440 CURVE SMOOTH",
"530 1440 LINE"
);
},
{
closed = 1;
nodes = (
"870 160 LINE",
"40 160 LINE",
"40 0 LINE",
"870 0 LINE"
);
},
{
closed = 1;
nodes = (
"530 1440 LINE",
"240 1440 LINE",
"240 0 LINE",
"530 0 LINE"
);
},
{
closed = 1;
nodes = (
"240 1440 LINE",
"44 1440 LINE",
"44 1282 LINE",
"240 1282 LINE"
);
}
);
width = 1420;
},
{
layerId = "AF891779-7DE6-4679-9CA2-17B922C1DF84";
paths = (
{
closed = 1;
nodes = (
"554 1258 LINE",
"858 1258 LINE SMOOTH",
"1023 1258 OFFCURVE",
"1126 1180 OFFCURVE",
"1126 1026 CURVE SMOOTH",
"1126 872 OFFCURVE",
"1023 794 OFFCURVE",
"858 794 CURVE SMOOTH",
"554 794 LINE",
"554 612 LINE",
"914 612 LINE SMOOTH",
"1220 612 OFFCURVE",
"1424 752 OFFCURVE",
"1424 1026 CURVE SMOOTH",
"1424 1300 OFFCURVE",
"1220 1440 OFFCURVE",
"914 1440 CURVE SMOOTH",
"554 1440 LINE"
);
},
{
closed = 1;
nodes = (
"894 184 LINE",
"64 184 LINE",
"64 0 LINE",
"894 0 LINE"
);
},
{
closed = 1;
nodes = (
"554 1440 LINE",
"264 1440 LINE",
"264 0 LINE",
"554 0 LINE"
);
},
{
closed = 1;
nodes = (
"264 1440 LINE",
"68 1440 LINE",
"68 1258 LINE",
"264 1258 LINE"
);
}
);
width = 1444;
}
);
leftKerningGroup = I;
leftMetricsKey = I;
rightKerningGroup = P;
unicode = 0050;
},
{
glyphname = Q;
lastChange = "2020-06-16 13:57:49 +0000";
layers = (
{
layerId = "CA54B7DC-FBBB-40FE-ACF3-AABDD76D6A7B";
paths = (
{
closed = 1;
nodes = (
"1138 0 LINE",
"1138 196 LINE SMOOTH",
"1138 345 OFFCURVE",
"1060 420 OFFCURVE",
"946 420 CURVE SMOOTH",
"832 420 OFFCURVE",
"750 345 OFFCURVE",
"750 196 CURVE SMOOTH",
"750 0 LINE",
"794 0 LINE",
"794 196 LINE SMOOTH",
"794 319 OFFCURVE",
"848 380 OFFCURVE",
"944 380 CURVE SMOOTH",
"1040 380 OFFCURVE",
"1094 319 OFFCURVE",
"1094 196 CURVE SMOOTH",
"1094 0 LINE"
);
},
{
closed = 1;
nodes = (
"1278 -20 OFFCURVE",
"1582 252 OFFCURVE",
"1582 720 CURVE SMOOTH",
"1582 1188 OFFCURVE",
"1278 1460 OFFCURVE",
"872 1460 CURVE SMOOTH",
"466 1460 OFFCURVE",
"162 1188 OFFCURVE",
"162 720 CURVE SMOOTH",
"162 252 OFFCURVE",
"466 -20 OFFCURVE",
"872 -20 CURVE SMOOTH"
);
},
{
closed = 1;
nodes = (
"478 20 OFFCURVE",
"210 296 OFFCURVE",
"210 720 CURVE SMOOTH",
"210 1144 OFFCURVE",
"478 1420 OFFCURVE",
"872 1420 CURVE SMOOTH",
"1266 1420 OFFCURVE",
"1534 1144 OFFCURVE",
"1534 720 CURVE SMOOTH",
"1534 296 OFFCURVE",
"1266 20 OFFCURVE",
"872 20 CURVE SMOOTH"
);
},
{
closed = 1;
nodes = (
"1438 -116 LINE SMOOTH",
"1438 -239 OFFCURVE",
"1384 -300 OFFCURVE",
"1288 -300 CURVE SMOOTH",
"1192 -300 OFFCURVE",
"1138 -239 OFFCURVE",
"1138 -116 CURVE SMOOTH",
"1138 0 LINE",
"1094 0 LINE",
"1094 -116 LINE SMOOTH",
"1094 -265 OFFCURVE",
"1176 -340 OFFCURVE",
"1290 -340 CURVE SMOOTH",
"1404 -340 OFFCURVE",
"1482 -265 OFFCURVE",
"1482 -116 CURVE SMOOTH",
"1482 0 LINE",
"1438 0 LINE"
);
}
);
width = 1744;
},
{
layerId = "1E61A082-F045-49A7-AB52-DD1B03FD9B54";
paths = (
{
closed = 1;
nodes = (
"1102 0 LINE",
"1102 196 LINE SMOOTH",
"1102 345 OFFCURVE",
"1024 420 OFFCURVE",
"910 420 CURVE SMOOTH",
"796 420 OFFCURVE",
"714 345 OFFCURVE",
"714 196 CURVE SMOOTH",
"714 0 LINE",
"758 0 LINE",
"758 196 LINE SMOOTH",
"758 319 OFFCURVE",
"812 380 OFFCURVE",
"908 380 CURVE SMOOTH",
"1004 380 OFFCURVE",
"1058 319 OFFCURVE",
"1058 196 CURVE SMOOTH",
"1058 0 LINE"
);
},
{
closed = 1;
nodes = (
"1242 -20 OFFCURVE",
"1546 252 OFFCURVE",
"1546 720 CURVE SMOOTH",
"1546 1188 OFFCURVE",
"1242 1460 OFFCURVE",
"836 1460 CURVE SMOOTH",
"430 1460 OFFCURVE",
"126 1188 OFFCURVE",
"126 720 CURVE SMOOTH",
"126 252 OFFCURVE",
"430 -20 OFFCURVE",
"836 -20 CURVE SMOOTH"
);
},
{
closed = 1;
nodes = (
"442 20 OFFCURVE",
"174 296 OFFCURVE",
"174 720 CURVE SMOOTH",
"174 1144 OFFCURVE",
"442 1420 OFFCURVE",
"836 1420 CURVE SMOOTH",
"1230 1420 OFFCURVE",
"1498 1144 OFFCURVE",
"1498 720 CURVE SMOOTH",
"1498 296 OFFCURVE",
"1230 20 OFFCURVE",
"836 20 CURVE SMOOTH"
);
},
{
closed = 1;
nodes = (
"1402 -116 LINE SMOOTH",
"1402 -239 OFFCURVE",
"1348 -300 OFFCURVE",
"1252 -300 CURVE SMOOTH",
"1156 -300 OFFCURVE",
"1102 -239 OFFCURVE",
"1102 -116 CURVE SMOOTH",
"1102 0 LINE",
"1058 0 LINE",
"1058 -116 LINE SMOOTH",
"1058 -265 OFFCURVE",
"1140 -340 OFFCURVE",
"1254 -340 CURVE SMOOTH",
"1368 -340 OFFCURVE",
"1446 -265 OFFCURVE",
"1446 -116 CURVE SMOOTH",
"1446 0 LINE",
"1402 0 LINE"
);
}
);
width = 1672;
},
{
layerId = "642E5713-E15A-4A7E-A28E-9A6B75A6585C";
paths = (
{
closed = 1;
nodes = (
"1052 0 LINE",
"1052 196 LINE SMOOTH",
"1052 345 OFFCURVE",
"974 420 OFFCURVE",
"860 420 CURVE SMOOTH",
"746 420 OFFCURVE",
"664 345 OFFCURVE",
"664 196 CURVE SMOOTH",
"664 0 LINE",
"708 0 LINE",
"708 196 LINE SMOOTH",
"708 319 OFFCURVE",
"762 380 OFFCURVE",
"858 380 CURVE SMOOTH",
"954 380 OFFCURVE",
"1008 319 OFFCURVE",
"1008 196 CURVE SMOOTH",
"1008 0 LINE"
);
},
{
closed = 1;
nodes = (
"1192 -20 OFFCURVE",
"1496 252 OFFCURVE",
"1496 720 CURVE SMOOTH",
"1496 1188 OFFCURVE",
"1192 1460 OFFCURVE",
"786 1460 CURVE SMOOTH",
"380 1460 OFFCURVE",
"76 1188 OFFCURVE",
"76 720 CURVE SMOOTH",
"76 252 OFFCURVE",
"380 -20 OFFCURVE",
"786 -20 CURVE SMOOTH"
);
},
{
closed = 1;
nodes = (
"392 20 OFFCURVE",
"124 296 OFFCURVE",
"124 720 CURVE SMOOTH",
"124 1144 OFFCURVE",
"392 1420 OFFCURVE",
"786 1420 CURVE SMOOTH",
"1180 1420 OFFCURVE",
"1448 1144 OFFCURVE",
"1448 720 CURVE SMOOTH",
"1448 296 OFFCURVE",
"1180 20 OFFCURVE",
"786 20 CURVE SMOOTH"
);
},
{
closed = 1;
nodes = (
"1352 -116 LINE SMOOTH",
"1352 -239 OFFCURVE",
"1298 -300 OFFCURVE",
"1202 -300 CURVE SMOOTH",
"1106 -300 OFFCURVE",
"1052 -239 OFFCURVE",
"1052 -116 CURVE SMOOTH",
"1052 0 LINE",
"1008 0 LINE",
"1008 -116 LINE SMOOTH",
"1008 -265 OFFCURVE",
"1090 -340 OFFCURVE",
"1204 -340 CURVE SMOOTH",
"1318 -340 OFFCURVE",
"1396 -265 OFFCURVE",
"1396 -116 CURVE SMOOTH",
"1396 0 LINE",
"1352 0 LINE"
);
}
);
width = 1572;
},
{
layerId = "AF891779-7DE6-4679-9CA2-17B922C1DF84";
paths = (
{
closed = 1;
nodes = (
"1066 0 LINE",
"1066 196 LINE SMOOTH",
"1066 345 OFFCURVE",
"988 420 OFFCURVE",
"874 420 CURVE SMOOTH",
"760 420 OFFCURVE",
"678 345 OFFCURVE",
"678 196 CURVE SMOOTH",
"678 0 LINE",
"722 0 LINE",
"722 196 LINE SMOOTH",
"722 319 OFFCURVE",
"776 380 OFFCURVE",
"872 380 CURVE SMOOTH",
"968 380 OFFCURVE",
"1022 319 OFFCURVE",
"1022 196 CURVE SMOOTH",
"1022 0 LINE"
);
},
{
closed = 1;
nodes = (
"1206 -20 OFFCURVE",
"1510 252 OFFCURVE",
"1510 720 CURVE SMOOTH",
"1510 1188 OFFCURVE",
"1206 1460 OFFCURVE",
"800 1460 CURVE SMOOTH",
"394 1460 OFFCURVE",
"90 1188 OFFCURVE",
"90 720 CURVE SMOOTH",
"90 252 OFFCURVE",
"394 -20 OFFCURVE",
"800 -20 CURVE SMOOTH"
);
},
{
closed = 1;
nodes = (
"406 20 OFFCURVE",
"138 296 OFFCURVE",
"138 720 CURVE SMOOTH",
"138 1144 OFFCURVE",
"406 1420 OFFCURVE",
"800 1420 CURVE SMOOTH",
"1194 1420 OFFCURVE",
"1462 1144 OFFCURVE",
"1462 720 CURVE SMOOTH",
"1462 296 OFFCURVE",
"1194 20 OFFCURVE",
"800 20 CURVE SMOOTH"
);
},
{
closed = 1;
nodes = (
"1366 -116 LINE SMOOTH",
"1366 -239 OFFCURVE",
"1312 -300 OFFCURVE",
"1216 -300 CURVE SMOOTH",
"1120 -300 OFFCURVE",
"1066 -239 OFFCURVE",
"1066 -116 CURVE SMOOTH",
"1066 0 LINE",
"1022 0 LINE",
"1022 -116 LINE SMOOTH",
"1022 -265 OFFCURVE",
"1104 -340 OFFCURVE",
"1218 -340 CURVE SMOOTH",
"1332 -340 OFFCURVE",
"1410 -265 OFFCURVE",
"1410 -116 CURVE SMOOTH",
"1410 0 LINE",
"1366 0 LINE"
);
}
);
width = 1600;
}
);
leftKerningGroup = O;
leftMetricsKey = O;
rightKerningGroup = O;
rightMetricsKey = O;
unicode = 0051;
},
{
glyphname = R;
lastChange = "2020-06-16 14:22:33 +0000";
layers = (
{
layerId = "CA54B7DC-FBBB-40FE-ACF3-AABDD76D6A7B";
paths = (
{
closed = 1;
nodes = (
"360 1400 LINE",
"860 1400 LINE SMOOTH",
"1120 1400 OFFCURVE",
"1284 1290 OFFCURVE",
"1284 1072 CURVE SMOOTH",
"1284 854 OFFCURVE",
"1120 744 OFFCURVE",
"860 744 CURVE SMOOTH",
"360 744 LINE",
"360 704 LINE",
"826 704 LINE",
"849 704 LINE",
"872 704 LINE SMOOTH",
"1144 704 OFFCURVE",
"1332 828 OFFCURVE",
"1332 1072 CURVE SMOOTH",
"1332 1316 OFFCURVE",
"1144 1440 OFFCURVE",
"872 1440 CURVE SMOOTH",
"360 1440 LINE"
);
},
{
closed = 1;
nodes = (
"640 40 LINE",
"92 40 LINE",
"92 0 LINE",
"640 0 LINE"
);
},
{
closed = 1;
nodes = (
"360 1440 LINE",
"312 1440 LINE",
"312 0 LINE",
"360 0 LINE"
);
},
{
closed = 1;
nodes = (
"312 1440 LINE",
"104 1440 LINE",
"104 1400 LINE",
"312 1400 LINE"
);
},
{
closed = 1;
nodes = (
"360 704 LINE",
"790 704 LINE SMOOTH",
"952 704 OFFCURVE",
"1042 608 OFFCURVE",
"1042 436 CURVE SMOOTH",
"1042 172 LINE SMOOTH",
"1042 55 OFFCURVE",
"1095 -20 OFFCURVE",
"1210 -20 CURVE SMOOTH",
"1325 -20 OFFCURVE",
"1378 55 OFFCURVE",
"1378 172 CURVE SMOOTH",
"1378 360 LINE",
"1334 360 LINE",
"1334 172 LINE SMOOTH",
"1334 87 OFFCURVE",
"1300 20 OFFCURVE",
"1212 20 CURVE SMOOTH",
"1124 20 OFFCURVE",
"1090 87 OFFCURVE",
"1090 172 CURVE SMOOTH",
"1090 428 LINE SMOOTH",
"1090 622 OFFCURVE",
"1000 730 OFFCURVE",
"808 730 CURVE SMOOTH",
"360 730 LINE"
);
}
);
width = 1464;
},
{
layerId = "1E61A082-F045-49A7-AB52-DD1B03FD9B54";
paths = (
{
closed = 1;
nodes = (
"318 1400 LINE",
"818 1400 LINE SMOOTH",
"1078 1400 OFFCURVE",
"1242 1290 OFFCURVE",
"1242 1072 CURVE SMOOTH",
"1242 854 OFFCURVE",
"1078 744 OFFCURVE",
"818 744 CURVE SMOOTH",
"318 744 LINE",
"318 704 LINE",
"784 704 LINE",
"806 704 LINE",
"830 704 LINE SMOOTH",
"1102 704 OFFCURVE",
"1290 828 OFFCURVE",
"1290 1072 CURVE SMOOTH",
"1290 1316 OFFCURVE",
"1102 1440 OFFCURVE",
"830 1440 CURVE SMOOTH",
"318 1440 LINE"
);
},
{
closed = 1;
nodes = (
"598 40 LINE",
"50 40 LINE",
"50 0 LINE",
"598 0 LINE"
);
},
{
closed = 1;
nodes = (
"318 1440 LINE",
"270 1440 LINE",
"270 0 LINE",
"318 0 LINE"
);
},
{
closed = 1;
nodes = (
"270 1440 LINE",
"62 1440 LINE",
"62 1400 LINE",
"270 1400 LINE"
);
},
{
closed = 1;
nodes = (
"318 704 LINE",
"694 704 LINE SMOOTH",
"856 704 OFFCURVE",
"946 608 OFFCURVE",
"946 436 CURVE SMOOTH",
"946 180 LINE SMOOTH",
"946 58 OFFCURVE",
"1002 -20 OFFCURVE",
"1122 -20 CURVE SMOOTH",
"1242 -20 OFFCURVE",
"1298 58 OFFCURVE",
"1298 180 CURVE SMOOTH",
"1298 560 LINE",
"1254 560 LINE",
"1254 180 LINE SMOOTH",
"1254 90 OFFCURVE",
"1218 20 OFFCURVE",
"1124 20 CURVE SMOOTH",
"1030 20 OFFCURVE",
"994 90 OFFCURVE",
"994 180 CURVE SMOOTH",
"994 428 LINE SMOOTH",
"994 622 OFFCURVE",
"904 730 OFFCURVE",
"712 730 CURVE SMOOTH",
"318 730 LINE"
);
}
);
width = 1396;
},
{
layerId = "642E5713-E15A-4A7E-A28E-9A6B75A6585C";
paths = (
{
closed = 1;
nodes = (
"530 1282 LINE",
"862 1282 LINE SMOOTH",
"1030 1282 OFFCURVE",
"1134 1202 OFFCURVE",
"1134 1042 CURVE SMOOTH",
"1134 882 OFFCURVE",
"1030 802 OFFCURVE",
"862 802 CURVE SMOOTH",
"530 802 LINE",
"530 644 LINE",
"787 644 LINE",
"787 660 LINE",
"928 660 LINE SMOOTH",
"1231 660 OFFCURVE",
"1432 792 OFFCURVE",
"1432 1050 CURVE SMOOTH",
"1432 1308 OFFCURVE",
"1235 1440 OFFCURVE",
"938 1440 CURVE SMOOTH",
"530 1440 LINE"
);
},
{
closed = 1;
nodes = (
"740 160 LINE",
"40 160 LINE",
"40 0 LINE",
"740 0 LINE"
);
},
{
closed = 1;
nodes = (
"530 1440 LINE",
"240 1440 LINE",
"240 0 LINE",
"530 0 LINE"
);
},
{
closed = 1;
nodes = (
"240 1440 LINE",
"44 1440 LINE",
"44 1282 LINE",
"240 1282 LINE"
);
},
{
closed = 1;
nodes = (
"530 644 LINE",
"626 644 LINE SMOOTH",
"749 644 OFFCURVE",
"818 576 OFFCURVE",
"818 456 CURVE SMOOTH",
"818 282 LINE SMOOTH",
"818 99 OFFCURVE",
"916 -20 OFFCURVE",
"1128 -20 CURVE SMOOTH",
"1327 -20 OFFCURVE",
"1418 91 OFFCURVE",
"1418 262 CURVE SMOOTH",
"1418 580 LINE",
"1244 580 LINE",
"1244 242 LINE SMOOTH",
"1244 191 OFFCURVE",
"1226 156 OFFCURVE",
"1176 156 CURVE SMOOTH",
"1126 156 OFFCURVE",
"1108 191 OFFCURVE",
"1108 242 CURVE SMOOTH",
"1108 380 LINE SMOOTH",
"1108 565 OFFCURVE",
"1015 668 OFFCURVE",
"796 668 CURVE SMOOTH",
"530 668 LINE"
);
}
);
width = 1506;
},
{
layerId = "AF891779-7DE6-4679-9CA2-17B922C1DF84";
paths = (
{
closed = 1;
nodes = (
"554 1258 LINE",
"900 1258 LINE SMOOTH",
"1059 1258 OFFCURVE",
"1158 1184 OFFCURVE",
"1158 1038 CURVE SMOOTH",
"1158 892 OFFCURVE",
"1059 818 OFFCURVE",
"900 818 CURVE SMOOTH",
"554 818 LINE",
"554 636 LINE",
"810 636 LINE",
"850 654 LINE",
"956 654 LINE SMOOTH",
"1256 654 OFFCURVE",
"1456 788 OFFCURVE",
"1456 1048 CURVE SMOOTH",
"1456 1307 OFFCURVE",
"1256 1440 OFFCURVE",
"956 1440 CURVE SMOOTH",
"554 1440 LINE"
);
},
{
closed = 1;
nodes = (
"764 180 LINE",
"64 180 LINE",
"64 0 LINE",
"764 0 LINE"
);
},
{
closed = 1;
nodes = (
"554 1438 LINE",
"264 1438 LINE",
"264 0 LINE",
"554 0 LINE"
);
},
{
closed = 1;
nodes = (
"264 1438 LINE",
"68 1438 LINE",
"68 1276 LINE",
"264 1276 LINE"
);
},
{
closed = 1;
nodes = (
"554 636 LINE",
"702 636 LINE SMOOTH",
"817 636 OFFCURVE",
"882 572 OFFCURVE",
"882 460 CURVE SMOOTH",
"882 280 LINE SMOOTH",
"882 97 OFFCURVE",
"986 -20 OFFCURVE",
"1200 -20 CURVE SMOOTH",
"1400 -20 OFFCURVE",
"1494 89 OFFCURVE",
"1494 260 CURVE SMOOTH",
"1494 384 LINE",
"1302 384 LINE",
"1302 236 LINE SMOOTH",
"1302 191 OFFCURVE",
"1284 160 OFFCURVE",
"1237 160 CURVE SMOOTH",
"1190 160 OFFCURVE",
"1172 191 OFFCURVE",
"1172 236 CURVE SMOOTH",
"1172 386 LINE SMOOTH",
"1172 580 OFFCURVE",
"1073 688 OFFCURVE",
"840 688 CURVE SMOOTH",
"554 688 LINE"
);
}
);
width = 1556;
}
);
leftKerningGroup = I;
leftMetricsKey = I;
rightKerningGroup = R;
unicode = 0052;
},
{
glyphname = S;
lastChange = "2020-06-16 14:27:55 +0000";
layers = (
{
layerId = "CA54B7DC-FBBB-40FE-ACF3-AABDD76D6A7B";
paths = (
{
closed = 1;
nodes = (
"196 839 OFFCURVE",
"397 765 OFFCURVE",
"624 732 CURVE SMOOTH",
"832 702 LINE SMOOTH",
"1057 669 OFFCURVE",
"1240 598 OFFCURVE",
"1240 366 CURVE SMOOTH",
"1240 150 OFFCURVE",
"1076 24 OFFCURVE",
"812 24 CURVE SMOOTH",
"548 24 OFFCURVE",
"332 148 OFFCURVE",
"228 420 CURVE",
"188 420 LINE",
"282 114 OFFCURVE",
"528 -16 OFFCURVE",
"812 -16 CURVE SMOOTH",
"1096 -16 OFFCURVE",
"1288 114 OFFCURVE",
"1288 366 CURVE SMOOTH",
"1288 625 OFFCURVE",
"1093 709 OFFCURVE",
"840 746 CURVE SMOOTH",
"632 776 LINE SMOOTH",
"419 807 OFFCURVE",
"244 875 OFFCURVE",
"244 1094 CURVE SMOOTH",
"244 1302 OFFCURVE",
"406 1416 OFFCURVE",
"662 1416 CURVE SMOOTH",
"918 1416 OFFCURVE",
"1118 1304 OFFCURVE",
"1212 1040 CURVE",
"1252 1040 LINE",
"1172 1340 OFFCURVE",
"934 1456 OFFCURVE",
"662 1456 CURVE SMOOTH",
"390 1456 OFFCURVE",
"196 1338 OFFCURVE",
"196 1094 CURVE SMOOTH"
);
},
{
closed = 1;
nodes = (
"1212 1440 LINE",
"1212 1114 LINE",
"1252 1040 LINE",
"1256 1040 LINE",
"1256 1440 LINE"
);
},
{
closed = 1;
nodes = (
"228 0 LINE",
"228 342 LINE",
"188 420 LINE",
"184 420 LINE",
"184 0 LINE"
);
}
);
width = 1460;
},
{
layerId = "1E61A082-F045-49A7-AB52-DD1B03FD9B54";
paths = (
{
closed = 1;
nodes = (
"168 854 OFFCURVE",
"354 780 OFFCURVE",
"596 736 CURVE SMOOTH",
"804 698 LINE SMOOTH",
"1029 657 OFFCURVE",
"1212 590 OFFCURVE",
"1212 360 CURVE SMOOTH",
"1212 144 OFFCURVE",
"1058 24 OFFCURVE",
"794 24 CURVE SMOOTH",
"530 24 OFFCURVE",
"304 180 OFFCURVE",
"200 520 CURVE",
"160 520 LINE",
"254 144 OFFCURVE",
"510 -16 OFFCURVE",
"794 -16 CURVE SMOOTH",
"1078 -16 OFFCURVE",
"1260 108 OFFCURVE",
"1260 360 CURVE SMOOTH",
"1260 614 OFFCURVE",
"1070 695 OFFCURVE",
"812 742 CURVE SMOOTH",
"604 780 LINE SMOOTH",
"381 821 OFFCURVE",
"216 886 OFFCURVE",
"216 1100 CURVE SMOOTH",
"216 1308 OFFCURVE",
"368 1416 OFFCURVE",
"624 1416 CURVE SMOOTH",
"880 1416 OFFCURVE",
"1090 1273 OFFCURVE",
"1184 940 CURVE",
"1224 940 LINE",
"1144 1311 OFFCURVE",
"896 1456 OFFCURVE",
"624 1456 CURVE SMOOTH",
"352 1456 OFFCURVE",
"168 1344 OFFCURVE",
"168 1100 CURVE SMOOTH"
);
},
{
closed = 1;
nodes = (
"1184 1440 LINE",
"1184 1014 LINE",
"1224 940 LINE",
"1228 940 LINE",
"1228 1440 LINE"
);
},
{
closed = 1;
nodes = (
"200 0 LINE",
"200 442 LINE",
"160 520 LINE",
"156 520 LINE",
"156 0 LINE"
);
}
);
width = 1404;
},
{
layerId = "642E5713-E15A-4A7E-A28E-9A6B75A6585C";
paths = (
{
closed = 1;
nodes = (
"118 764 OFFCURVE",
"337 653 OFFCURVE",
"637 605 CURVE SMOOTH",
"801 579 LINE SMOOTH",
"956 554 OFFCURVE",
"1082 502 OFFCURVE",
"1082 360 CURVE SMOOTH",
"1082 218 OFFCURVE",
"980 140 OFFCURVE",
"803 140 CURVE SMOOTH",
"571 140 OFFCURVE",
"376 274 OFFCURVE",
"290 530 CURVE",
"161 530 LINE",
"250 135 OFFCURVE",
"503 -20 OFFCURVE",
"813 -20 CURVE SMOOTH",
"1123 -20 OFFCURVE",
"1330 130 OFFCURVE",
"1330 424 CURVE SMOOTH",
"1330 710 OFFCURVE",
"1099 815 OFFCURVE",
"789 864 CURVE SMOOTH",
"625 890 LINE SMOOTH",
"476 914 OFFCURVE",
"364 970 OFFCURVE",
"364 1100 CURVE SMOOTH",
"364 1231 OFFCURVE",
"464 1300 OFFCURVE",
"637 1300 CURVE SMOOTH",
"848 1300 OFFCURVE",
"1033 1178 OFFCURVE",
"1113 940 CURVE",
"1242 940 LINE",
"1154 1314 OFFCURVE",
"915 1460 OFFCURVE",
"627 1460 CURVE SMOOTH",
"339 1460 OFFCURVE",
"118 1331 OFFCURVE",
"118 1050 CURVE SMOOTH"
);
},
{
closed = 1;
nodes = (
"1124 1440 LINE",
"1124 1014 LINE",
"1242 940 LINE",
"1286 940 LINE",
"1286 1440 LINE"
);
},
{
closed = 1;
nodes = (
"278 0 LINE",
"278 442 LINE",
"161 530 LINE",
"116 530 LINE",
"116 0 LINE"
);
}
);
width = 1424;
},
{
layerId = "AF891779-7DE6-4679-9CA2-17B922C1DF84";
paths = (
{
closed = 1;
nodes = (
"138 764 OFFCURVE",
"356 646 OFFCURVE",
"657 604 CURVE SMOOTH",
"821 581 LINE SMOOTH",
"968 560 OFFCURVE",
"1086 510 OFFCURVE",
"1086 378 CURVE SMOOTH",
"1086 247 OFFCURVE",
"984 162 OFFCURVE",
"803 162 CURVE SMOOTH",
"599 162 OFFCURVE",
"418 277 OFFCURVE",
"334 440 CURVE",
"167 440 LINE",
"276 107 OFFCURVE",
"531 -20 OFFCURVE",
"839 -20 CURVE SMOOTH",
"1147 -20 OFFCURVE",
"1350 134 OFFCURVE",
"1350 428 CURVE SMOOTH",
"1350 714 OFFCURVE",
"1120 821 OFFCURVE",
"809 865 CURVE SMOOTH",
"645 888 LINE SMOOTH",
"504 908 OFFCURVE",
"400 966 OFFCURVE",
"400 1086 CURVE SMOOTH",
"400 1206 OFFCURVE",
"506 1278 OFFCURVE",
"673 1278 CURVE SMOOTH",
"863 1278 OFFCURVE",
"1023 1189 OFFCURVE",
"1109 1030 CURVE",
"1286 1030 LINE",
"1173 1324 OFFCURVE",
"937 1460 OFFCURVE",
"649 1460 CURVE SMOOTH",
"361 1460 OFFCURVE",
"138 1329 OFFCURVE",
"138 1048 CURVE SMOOTH"
);
},
{
closed = 1;
nodes = (
"1116 1440 LINE",
"1116 1194 LINE",
"1286 1030 LINE",
"1302 1030 LINE",
"1302 1440 LINE"
);
},
{
closed = 1;
nodes = (
"326 0 LINE",
"326 262 LINE",
"167 440 LINE",
"140 440 LINE",
"140 0 LINE"
);
}
);
width = 1464;
}
);
leftKerningGroup = S;
rightKerningGroup = S;
unicode = 0053;
},
{
glyphname = T;
lastChange = "2020-06-16 14:28:03 +0000";
layers = (
{
layerId = "CA54B7DC-FBBB-40FE-ACF3-AABDD76D6A7B";
paths = (
{
closed = 1;
nodes = (
"1058 40 LINE",
"410 40 LINE",
"410 0 LINE",
"1058 0 LINE"
);
},
{
closed = 1;
nodes = (
"758 1440 LINE",
"710 1440 LINE",
"710 0 LINE",
"758 0 LINE"
);
},
{
closed = 1;
nodes = (
"1378 1440 LINE",
"90 1440 LINE",
"90 1400 LINE",
"1378 1400 LINE"
);
},
{
closed = 1;
nodes = (
"1326 1400 OFFCURVE",
"1334 1372 OFFCURVE",
"1334 1260 CURVE SMOOTH",
"1334 1000 LINE",
"1378 1000 LINE",
"1378 1400 LINE",
"1214 1400 LINE"
);
},
{
closed = 1;
nodes = (
"90 1400 LINE",
"90 1000 LINE",
"134 1000 LINE",
"134 1260 LINE SMOOTH",
"134 1372 OFFCURVE",
"142 1400 OFFCURVE",
"254 1400 CURVE"
);
}
);
width = 1468;
},
{
layerId = "1E61A082-F045-49A7-AB52-DD1B03FD9B54";
paths = (
{
closed = 1;
nodes = (
"1100 40 LINE",
"332 40 LINE",
"332 0 LINE",
"1100 0 LINE"
);
},
{
closed = 1;
nodes = (
"740 1440 LINE",
"692 1440 LINE",
"692 0 LINE",
"740 0 LINE"
);
},
{
closed = 1;
nodes = (
"1360 1440 LINE",
"72 1440 LINE",
"72 1400 LINE",
"1360 1400 LINE"
);
},
{
closed = 1;
nodes = (
"1308 1400 OFFCURVE",
"1316 1372 OFFCURVE",
"1316 1260 CURVE SMOOTH",
"1316 900 LINE",
"1360 900 LINE",
"1360 1400 LINE",
"1196 1400 LINE"
);
},
{
closed = 1;
nodes = (
"72 1400 LINE",
"72 900 LINE",
"116 900 LINE",
"116 1260 LINE SMOOTH",
"116 1372 OFFCURVE",
"124 1400 OFFCURVE",
"236 1400 CURVE"
);
}
);
width = 1432;
},
{
layerId = "642E5713-E15A-4A7E-A28E-9A6B75A6585C";
paths = (
{
closed = 1;
nodes = (
"1190 160 LINE",
"280 160 LINE",
"280 0 LINE",
"1190 0 LINE"
);
},
{
closed = 1;
nodes = (
"880 1440 LINE",
"590 1440 LINE",
"590 0 LINE",
"880 0 LINE"
);
},
{
closed = 1;
nodes = (
"1426 1440 LINE",
"44 1440 LINE",
"44 1284 LINE",
"1426 1284 LINE"
);
},
{
closed = 1;
nodes = (
"1228 1284 OFFCURVE",
"1256 1236 OFFCURVE",
"1256 1104 CURVE SMOOTH",
"1256 900 LINE",
"1426 900 LINE",
"1426 1284 LINE",
"1096 1284 LINE"
);
},
{
closed = 1;
nodes = (
"44 1284 LINE",
"44 900 LINE",
"216 900 LINE",
"216 1104 LINE SMOOTH",
"216 1236 OFFCURVE",
"244 1284 OFFCURVE",
"376 1284 CURVE"
);
}
);
width = 1470;
},
{
layerId = "AF891779-7DE6-4679-9CA2-17B922C1DF84";
paths = (
{
closed = 1;
nodes = (
"1194 184 LINE",
"324 184 LINE",
"324 0 LINE",
"1194 0 LINE"
);
},
{
closed = 1;
nodes = (
"904 1440 LINE",
"614 1440 LINE",
"614 0 LINE",
"904 0 LINE"
);
},
{
closed = 1;
nodes = (
"1450 1440 LINE",
"68 1440 LINE",
"68 1258 LINE",
"1450 1258 LINE"
);
},
{
closed = 1;
nodes = (
"1232 1258 OFFCURVE",
"1260 1210 OFFCURVE",
"1260 1078 CURVE SMOOTH",
"1260 980 LINE",
"1450 980 LINE",
"1450 1258 LINE",
"1100 1258 LINE"
);
},
{
closed = 1;
nodes = (
"68 1258 LINE",
"68 980 LINE",
"258 980 LINE",
"258 1078 LINE SMOOTH",
"258 1210 OFFCURVE",
"286 1258 OFFCURVE",
"418 1258 CURVE"
);
}
);
width = 1518;
}
);
leftKerningGroup = T;
rightKerningGroup = T;
unicode = 0054;
},
{
glyphname = U;
lastChange = "2020-06-16 13:58:58 +0000";
layers = (
{
layerId = "CA54B7DC-FBBB-40FE-ACF3-AABDD76D6A7B";
paths = (
{
closed = 1;
nodes = (
"262 178 OFFCURVE",
"436 -20 OFFCURVE",
"778 -20 CURVE SMOOTH",
"1120 -20 OFFCURVE",
"1294 178 OFFCURVE",
"1294 528 CURVE SMOOTH",
"1294 1440 LINE",
"1246 1440 LINE",
"1246 528 LINE SMOOTH",
"1246 216 OFFCURVE",
"1098 20 OFFCURVE",
"778 20 CURVE SMOOTH",
"458 20 OFFCURVE",
"310 216 OFFCURVE",
"310 528 CURVE SMOOTH",
"310 1440 LINE",
"262 1440 LINE",
"262 528 LINE SMOOTH"
);
},
{
closed = 1;
nodes = (
"1018 1400 LINE",
"1502 1400 LINE",
"1502 1440 LINE",
"1018 1440 LINE"
);
},
{
closed = 1;
nodes = (
"54 1440 LINE",
"54 1400 LINE",
"538 1400 LINE",
"538 1440 LINE"
);
}
);
width = 1556;
},
{
layerId = "1E61A082-F045-49A7-AB52-DD1B03FD9B54";
paths = (
{
closed = 1;
nodes = (
"238 178 OFFCURVE",
"412 -20 OFFCURVE",
"754 -20 CURVE SMOOTH",
"1096 -20 OFFCURVE",
"1270 178 OFFCURVE",
"1270 528 CURVE SMOOTH",
"1270 1440 LINE",
"1222 1440 LINE",
"1222 528 LINE SMOOTH",
"1222 216 OFFCURVE",
"1074 20 OFFCURVE",
"754 20 CURVE SMOOTH",
"434 20 OFFCURVE",
"286 216 OFFCURVE",
"286 528 CURVE SMOOTH",
"286 1440 LINE",
"238 1440 LINE",
"238 528 LINE SMOOTH"
);
},
{
closed = 1;
nodes = (
"994 1400 LINE",
"1478 1400 LINE",
"1478 1440 LINE",
"994 1440 LINE"
);
},
{
closed = 1;
nodes = (
"30 1440 LINE",
"30 1400 LINE",
"514 1400 LINE",
"514 1440 LINE"
);
}
);
width = 1508;
},
{
layerId = "642E5713-E15A-4A7E-A28E-9A6B75A6585C";
paths = (
{
closed = 1;
nodes = (
"210 190 OFFCURVE",
"414 -20 OFFCURVE",
"804 -20 CURVE SMOOTH",
"1193 -20 OFFCURVE",
"1396 190 OFFCURVE",
"1396 562 CURVE SMOOTH",
"1396 1440 LINE",
"1224 1440 LINE",
"1224 546 LINE SMOOTH",
"1224 307 OFFCURVE",
"1109 156 OFFCURVE",
"862 156 CURVE SMOOTH",
"615 156 OFFCURVE",
"500 307 OFFCURVE",
"500 546 CURVE SMOOTH",
"500 1440 LINE",
"210 1440 LINE",
"210 562 LINE SMOOTH"
);
},
{
closed = 1;
nodes = (
"1006 1282 LINE",
"1590 1282 LINE",
"1590 1440 LINE",
"1006 1440 LINE"
);
},
{
closed = 1;
nodes = (
"22 1440 LINE",
"22 1282 LINE",
"718 1282 LINE",
"718 1440 LINE"
);
}
);
width = 1612;
},
{
layerId = "AF891779-7DE6-4679-9CA2-17B922C1DF84";
paths = (
{
closed = 1;
nodes = (
"216 192 OFFCURVE",
"422 -20 OFFCURVE",
"816 -20 CURVE SMOOTH",
"1210 -20 OFFCURVE",
"1416 192 OFFCURVE",
"1416 568 CURVE SMOOTH",
"1416 1440 LINE",
"1214 1440 LINE",
"1214 552 LINE SMOOTH",
"1214 320 OFFCURVE",
"1102 174 OFFCURVE",
"860 174 CURVE SMOOTH",
"618 174 OFFCURVE",
"506 320 OFFCURVE",
"506 552 CURVE SMOOTH",
"506 1440 LINE",
"216 1440 LINE",
"216 568 LINE SMOOTH"
);
},
{
closed = 1;
nodes = (
"996 1258 LINE",
"1604 1258 LINE",
"1604 1440 LINE",
"996 1440 LINE"
);
},
{
closed = 1;
nodes = (
"28 1440 LINE",
"28 1258 LINE",
"724 1258 LINE",
"724 1440 LINE"
);
}
);
width = 1632;
}
);
leftKerningGroup = U;
rightKerningGroup = U;
unicode = 0055;
},
{
glyphname = V;
lastChange = "2020-06-16 14:09:40 +0000";
layers = (
{
layerId = "CA54B7DC-FBBB-40FE-ACF3-AABDD76D6A7B";
paths = (
{
closed = 1;
nodes = (
"1318 1400 LINE",
"1270 1400 LINE",
"742 50 LINE",
"744 0 LINE",
"770 0 LINE"
);
},
{
closed = 1;
nodes = (
"756 0 LINE",
"760 42 LINE",
"228 1400 LINE",
"178 1400 LINE",
"726 0 LINE"
);
},
{
closed = 1;
nodes = (
"1478 1440 LINE",
"1010 1440 LINE",
"1010 1400 LINE",
"1478 1400 LINE"
);
},
{
closed = 1;
nodes = (
"508 1440 LINE",
"18 1440 LINE",
"18 1400 LINE",
"508 1400 LINE"
);
}
);
width = 1496;
},
{
layerId = "1E61A082-F045-49A7-AB52-DD1B03FD9B54";
paths = (
{
closed = 1;
nodes = (
"1302 1400 LINE",
"1254 1400 LINE",
"726 50 LINE",
"728 0 LINE",
"754 0 LINE"
);
},
{
closed = 1;
nodes = (
"740 0 LINE",
"744 42 LINE",
"212 1400 LINE",
"162 1400 LINE",
"710 0 LINE"
);
},
{
closed = 1;
nodes = (
"1462 1440 LINE",
"994 1440 LINE",
"994 1400 LINE",
"1462 1400 LINE"
);
},
{
closed = 1;
nodes = (
"492 1440 LINE",
"2 1440 LINE",
"2 1400 LINE",
"492 1400 LINE"
);
}
);
width = 1464;
},
{
layerId = "642E5713-E15A-4A7E-A28E-9A6B75A6585C";
paths = (
{
closed = 1;
nodes = (
"1446 1280 LINE",
"1263 1280 LINE",
"805 137 LINE",
"806 0 LINE",
"930 0 LINE"
);
},
{
closed = 1;
nodes = (
"875 0 LINE",
"898 214 LINE",
"487 1280 LINE",
"172 1280 LINE",
"688 0 LINE"
);
},
{
closed = 1;
nodes = (
"1586 1440 LINE",
"1003 1440 LINE",
"1003 1280 LINE",
"1586 1280 LINE"
);
},
{
closed = 1;
nodes = (
"747 1440 LINE",
"32 1440 LINE",
"32 1280 LINE",
"747 1280 LINE"
);
}
);
width = 1618;
},
{
layerId = "AF891779-7DE6-4679-9CA2-17B922C1DF84";
paths = (
{
closed = 1;
nodes = (
"1436 1258 LINE",
"1229 1258 LINE",
"781 137 LINE",
"782 0 LINE",
"930 0 LINE"
);
},
{
closed = 1;
nodes = (
"853 0 LINE",
"876 214 LINE",
"475 1258 LINE",
"160 1258 LINE",
"666 0 LINE"
);
},
{
closed = 1;
nodes = (
"1576 1440 LINE",
"969 1440 LINE",
"969 1258 LINE",
"1576 1258 LINE"
);
},
{
closed = 1;
nodes = (
"735 1440 LINE",
"20 1440 LINE",
"20 1258 LINE",
"735 1258 LINE"
);
}
);
width = 1606;
}
);
leftKerningGroup = V;
rightKerningGroup = V;
unicode = 0056;
},
{
glyphname = W;
lastChange = "2020-06-16 14:12:00 +0000";
layers = (
{
layerId = "CA54B7DC-FBBB-40FE-ACF3-AABDD76D6A7B";
paths = (
{
closed = 1;
nodes = (
"676 0 LINE",
"680 42 LINE",
"226 1400 LINE",
"178 1400 LINE",
"646 0 LINE"
);
},
{
closed = 1;
nodes = (
"1048 1072 LINE",
"1014 1106 LINE",
"660 50 LINE",
"664 0 LINE",
"690 0 LINE"
);
},
{
closed = 1;
nodes = (
"1396 0 LINE",
"1400 42 LINE",
"946 1400 LINE",
"898 1400 LINE",
"1366 0 LINE"
);
},
{
closed = 1;
nodes = (
"1878 1400 LINE",
"1832 1400 LINE",
"1380 50 LINE",
"1384 0 LINE",
"1410 0 LINE"
);
},
{
closed = 1;
nodes = (
"506 1440 LINE",
"18 1440 LINE",
"18 1400 LINE",
"506 1400 LINE"
);
},
{
closed = 1;
nodes = (
"1226 1440 LINE",
"738 1440 LINE",
"738 1400 LINE",
"1226 1400 LINE"
);
},
{
closed = 1;
nodes = (
"2038 1440 LINE",
"1552 1440 LINE",
"1552 1400 LINE",
"2038 1400 LINE"
);
}
);
width = 2056;
},
{
layerId = "1E61A082-F045-49A7-AB52-DD1B03FD9B54";
paths = (
{
closed = 1;
nodes = (
"660 0 LINE",
"664 42 LINE",
"210 1400 LINE",
"162 1400 LINE",
"630 0 LINE"
);
},
{
closed = 1;
nodes = (
"1032 1072 LINE",
"998 1106 LINE",
"644 50 LINE",
"648 0 LINE",
"674 0 LINE"
);
},
{
closed = 1;
nodes = (
"1380 0 LINE",
"1384 42 LINE",
"930 1400 LINE",
"882 1400 LINE",
"1350 0 LINE"
);
},
{
closed = 1;
nodes = (
"1862 1400 LINE",
"1816 1400 LINE",
"1364 50 LINE",
"1368 0 LINE",
"1394 0 LINE"
);
},
{
closed = 1;
nodes = (
"490 1440 LINE",
"2 1440 LINE",
"2 1400 LINE",
"490 1400 LINE"
);
},
{
closed = 1;
nodes = (
"1210 1440 LINE",
"722 1440 LINE",
"722 1400 LINE",
"1210 1400 LINE"
);
},
{
closed = 1;
nodes = (
"2022 1440 LINE",
"1536 1440 LINE",
"1536 1400 LINE",
"2022 1400 LINE"
);
}
);
width = 2024;
},
{
layerId = "642E5713-E15A-4A7E-A28E-9A6B75A6585C";
paths = (
{
closed = 1;
nodes = (
"803 0 LINE",
"827 214 LINE",
"477 1284 LINE",
"168 1284 LINE",
"616 0 LINE"
);
},
{
closed = 1;
nodes = (
"1201 1012 LINE",
"1124 1284 LINE",
"727 137 LINE",
"726 0 LINE",
"848 0 LINE"
);
},
{
closed = 1;
nodes = (
"1493 0 LINE",
"1517 214 LINE",
"1167 1284 LINE",
"858 1284 LINE",
"1306 0 LINE"
);
},
{
closed = 1;
nodes = (
"1986 1284 LINE",
"1814 1284 LINE",
"1417 137 LINE",
"1416 0 LINE",
"1538 0 LINE"
);
},
{
closed = 1;
nodes = (
"633 1440 LINE",
"32 1440 LINE",
"32 1284 LINE",
"633 1284 LINE"
);
},
{
closed = 1;
nodes = (
"1393 1440 LINE",
"722 1440 LINE",
"722 1284 LINE",
"1393 1284 LINE"
);
},
{
closed = 1;
nodes = (
"2122 1440 LINE",
"1588 1440 LINE",
"1588 1284 LINE",
"2122 1284 LINE"
);
}
);
width = 2154;
},
{
layerId = "AF891779-7DE6-4679-9CA2-17B922C1DF84";
paths = (
{
closed = 1;
nodes = (
"781 0 LINE",
"807 214 LINE",
"464 1258 LINE",
"156 1258 LINE",
"594 0 LINE"
);
},
{
closed = 1;
nodes = (
"1195 974 LINE",
"1093 1258 LINE",
"705 137 LINE",
"706 0 LINE",
"856 0 LINE"
);
},
{
closed = 1;
nodes = (
"1471 0 LINE",
"1497 214 LINE",
"1154 1258 LINE",
"846 1258 LINE",
"1284 0 LINE"
);
},
{
closed = 1;
nodes = (
"1984 1258 LINE",
"1783 1258 LINE",
"1395 137 LINE",
"1396 0 LINE",
"1546 0 LINE"
);
},
{
closed = 1;
nodes = (
"622 1440 LINE",
"20 1440 LINE",
"20 1258 LINE",
"622 1258 LINE"
);
},
{
closed = 1;
nodes = (
"1380 1440 LINE",
"710 1440 LINE",
"710 1258 LINE",
"1380 1258 LINE"
);
},
{
closed = 1;
nodes = (
"2120 1440 LINE",
"1557 1440 LINE",
"1557 1258 LINE",
"2120 1258 LINE"
);
}
);
width = 2150;
}
);
leftKerningGroup = W;
leftMetricsKey = V;
rightKerningGroup = W;
rightMetricsKey = V;
unicode = 0057;
},
{
glyphname = X;
lastChange = "2020-05-26 15:18:06 +0000";
layers = (
{
layerId = "CA54B7DC-FBBB-40FE-ACF3-AABDD76D6A7B";
paths = (
{
closed = 1;
nodes = (
"764 708 LINE",
"1292 1400 LINE",
"1234 1400 LINE",
"750 764 LINE"
);
},
{
closed = 1;
nodes = (
"1452 1440 LINE",
"994 1440 LINE",
"994 1400 LINE",
"1452 1400 LINE"
);
},
{
closed = 1;
nodes = (
"744 764 LINE",
"188 40 LINE",
"246 40 LINE",
"758 708 LINE"
);
},
{
closed = 1;
nodes = (
"486 40 LINE",
"28 40 LINE",
"28 0 LINE",
"486 0 LINE"
);
},
{
closed = 1;
nodes = (
"274 1400 LINE",
"216 1400 LINE",
"744 708 LINE",
"758 764 LINE"
);
},
{
closed = 1;
nodes = (
"534 1400 LINE",
"534 1440 LINE",
"56 1440 LINE",
"56 1400 LINE"
);
},
{
closed = 1;
nodes = (
"1262 40 LINE",
"1320 40 LINE",
"764 764 LINE",
"750 708 LINE"
);
},
{
closed = 1;
nodes = (
"1480 0 LINE",
"1480 40 LINE",
"1002 40 LINE",
"1002 0 LINE"
);
},
{
closed = 1;
nodes = (
"766 716 OFFCURVE",
"774 724 OFFCURVE",
"774 736 CURVE SMOOTH",
"774 748 OFFCURVE",
"766 756 OFFCURVE",
"754 756 CURVE SMOOTH",
"742 756 OFFCURVE",
"734 748 OFFCURVE",
"734 736 CURVE SMOOTH",
"734 724 OFFCURVE",
"742 716 OFFCURVE",
"754 716 CURVE SMOOTH"
);
}
);
width = 1508;
},
{
layerId = "1E61A082-F045-49A7-AB52-DD1B03FD9B54";
paths = (
{
closed = 1;
nodes = (
"752 708 LINE",
"1280 1400 LINE",
"1222 1400 LINE",
"738 764 LINE"
);
},
{
closed = 1;
nodes = (
"1440 1440 LINE",
"982 1440 LINE",
"982 1400 LINE",
"1440 1400 LINE"
);
},
{
closed = 1;
nodes = (
"732 764 LINE",
"176 40 LINE",
"234 40 LINE",
"746 708 LINE"
);
},
{
closed = 1;
nodes = (
"474 40 LINE",
"16 40 LINE",
"16 0 LINE",
"474 0 LINE"
);
},
{
closed = 1;
nodes = (
"262 1400 LINE",
"204 1400 LINE",
"732 708 LINE",
"746 764 LINE"
);
},
{
closed = 1;
nodes = (
"522 1400 LINE",
"522 1440 LINE",
"44 1440 LINE",
"44 1400 LINE"
);
},
{
closed = 1;
nodes = (
"1250 40 LINE",
"1308 40 LINE",
"752 764 LINE",
"738 708 LINE"
);
},
{
closed = 1;
nodes = (
"1468 0 LINE",
"1468 40 LINE",
"990 40 LINE",
"990 0 LINE"
);
},
{
closed = 1;
nodes = (
"754 716 OFFCURVE",
"762 724 OFFCURVE",
"762 736 CURVE SMOOTH",
"762 748 OFFCURVE",
"754 756 OFFCURVE",
"742 756 CURVE SMOOTH",
"730 756 OFFCURVE",
"722 748 OFFCURVE",
"722 736 CURVE SMOOTH",
"722 724 OFFCURVE",
"730 716 OFFCURVE",
"742 716 CURVE SMOOTH"
);
}
);
width = 1484;
},
{
layerId = "642E5713-E15A-4A7E-A28E-9A6B75A6585C";
paths = (
{
closed = 1;
nodes = (
"752 708 LINE",
"1280 1400 LINE",
"1222 1400 LINE",
"738 764 LINE"
);
},
{
closed = 1;
nodes = (
"1440 1440 LINE",
"982 1440 LINE",
"982 1400 LINE",
"1440 1400 LINE"
);
},
{
closed = 1;
nodes = (
"732 764 LINE",
"176 40 LINE",
"234 40 LINE",
"746 708 LINE"
);
},
{
closed = 1;
nodes = (
"474 40 LINE",
"16 40 LINE",
"16 0 LINE",
"474 0 LINE"
);
},
{
closed = 1;
nodes = (
"262 1400 LINE",
"204 1400 LINE",
"732 708 LINE",
"746 764 LINE"
);
},
{
closed = 1;
nodes = (
"522 1400 LINE",
"522 1440 LINE",
"44 1440 LINE",
"44 1400 LINE"
);
},
{
closed = 1;
nodes = (
"1250 40 LINE",
"1308 40 LINE",
"752 764 LINE",
"738 708 LINE"
);
},
{
closed = 1;
nodes = (
"1468 0 LINE",
"1468 40 LINE",
"990 40 LINE",
"990 0 LINE"
);
},
{
closed = 1;
nodes = (
"754 716 OFFCURVE",
"762 724 OFFCURVE",
"762 736 CURVE SMOOTH",
"762 748 OFFCURVE",
"754 756 OFFCURVE",
"742 756 CURVE SMOOTH",
"730 756 OFFCURVE",
"722 748 OFFCURVE",
"722 736 CURVE SMOOTH",
"722 724 OFFCURVE",
"730 716 OFFCURVE",
"742 716 CURVE SMOOTH"
);
}
);
width = 1484;
},
{
layerId = "AF891779-7DE6-4679-9CA2-17B922C1DF84";
paths = (
{
closed = 1;
nodes = (
"764 708 LINE",
"1292 1400 LINE",
"1234 1400 LINE",
"750 764 LINE"
);
},
{
closed = 1;
nodes = (
"1452 1440 LINE",
"994 1440 LINE",
"994 1400 LINE",
"1452 1400 LINE"
);
},
{
closed = 1;
nodes = (
"744 764 LINE",
"188 40 LINE",
"246 40 LINE",
"758 708 LINE"
);
},
{
closed = 1;
nodes = (
"486 40 LINE",
"28 40 LINE",
"28 0 LINE",
"486 0 LINE"
);
},
{
closed = 1;
nodes = (
"274 1400 LINE",
"216 1400 LINE",
"744 708 LINE",
"758 764 LINE"
);
},
{
closed = 1;
nodes = (
"534 1400 LINE",
"534 1440 LINE",
"56 1440 LINE",
"56 1400 LINE"
);
},
{
closed = 1;
nodes = (
"1262 40 LINE",
"1320 40 LINE",
"764 764 LINE",
"750 708 LINE"
);
},
{
closed = 1;
nodes = (
"1480 0 LINE",
"1480 40 LINE",
"1002 40 LINE",
"1002 0 LINE"
);
},
{
closed = 1;
nodes = (
"766 716 OFFCURVE",
"774 724 OFFCURVE",
"774 736 CURVE SMOOTH",
"774 748 OFFCURVE",
"766 756 OFFCURVE",
"754 756 CURVE SMOOTH",
"742 756 OFFCURVE",
"734 748 OFFCURVE",
"734 736 CURVE SMOOTH",
"734 724 OFFCURVE",
"742 716 OFFCURVE",
"754 716 CURVE SMOOTH"
);
}
);
width = 1508;
}
);
leftKerningGroup = X;
rightKerningGroup = X;
unicode = 0058;
},
{
glyphname = Y;
lastChange = "2020-05-26 15:18:06 +0000";
layers = (
{
layerId = "CA54B7DC-FBBB-40FE-ACF3-AABDD76D6A7B";
paths = (
{
closed = 1;
nodes = (
"1036 1400 LINE",
"1488 1400 LINE",
"1488 1440 LINE",
"1036 1440 LINE"
);
},
{
closed = 1;
nodes = (
"776 582 LINE",
"1328 1400 LINE",
"1276 1400 LINE",
"738 604 LINE"
);
},
{
closed = 1;
nodes = (
"1056 40 LINE",
"448 40 LINE",
"448 0 LINE",
"1056 0 LINE"
);
},
{
closed = 1;
nodes = (
"776 612 LINE",
"728 612 LINE",
"728 0 LINE",
"776 0 LINE"
);
},
{
closed = 1;
nodes = (
"16 1440 LINE",
"16 1400 LINE",
"492 1400 LINE",
"492 1440 LINE"
);
},
{
closed = 1;
nodes = (
"232 1400 LINE",
"176 1400 LINE",
"728 582 LINE",
"768 604 LINE"
);
}
);
width = 1504;
},
{
layerId = "1E61A082-F045-49A7-AB52-DD1B03FD9B54";
paths = (
{
closed = 1;
nodes = (
"1022 1400 LINE",
"1474 1400 LINE",
"1474 1440 LINE",
"1022 1440 LINE"
);
},
{
closed = 1;
nodes = (
"762 582 LINE",
"1314 1400 LINE",
"1262 1400 LINE",
"724 604 LINE"
);
},
{
closed = 1;
nodes = (
"1102 40 LINE",
"374 40 LINE",
"374 0 LINE",
"1102 0 LINE"
);
},
{
closed = 1;
nodes = (
"762 612 LINE",
"714 612 LINE",
"714 0 LINE",
"762 0 LINE"
);
},
{
closed = 1;
nodes = (
"2 1440 LINE",
"2 1400 LINE",
"478 1400 LINE",
"478 1440 LINE"
);
},
{
closed = 1;
nodes = (
"218 1400 LINE",
"162 1400 LINE",
"714 582 LINE",
"754 604 LINE"
);
}
);
width = 1476;
},
{
layerId = "642E5713-E15A-4A7E-A28E-9A6B75A6585C";
paths = (
{
closed = 1;
nodes = (
"1022 1400 LINE",
"1474 1400 LINE",
"1474 1440 LINE",
"1022 1440 LINE"
);
},
{
closed = 1;
nodes = (
"762 582 LINE",
"1314 1400 LINE",
"1262 1400 LINE",
"724 604 LINE"
);
},
{
closed = 1;
nodes = (
"1102 40 LINE",
"374 40 LINE",
"374 0 LINE",
"1102 0 LINE"
);
},
{
closed = 1;
nodes = (
"762 612 LINE",
"714 612 LINE",
"714 0 LINE",
"762 0 LINE"
);
},
{
closed = 1;
nodes = (
"2 1440 LINE",
"2 1400 LINE",
"478 1400 LINE",
"478 1440 LINE"
);
},
{
closed = 1;
nodes = (
"218 1400 LINE",
"162 1400 LINE",
"714 582 LINE",
"754 604 LINE"
);
}
);
width = 1476;
},
{
layerId = "AF891779-7DE6-4679-9CA2-17B922C1DF84";
paths = (
{
closed = 1;
nodes = (
"1036 1400 LINE",
"1488 1400 LINE",
"1488 1440 LINE",
"1036 1440 LINE"
);
},
{
closed = 1;
nodes = (
"776 582 LINE",
"1328 1400 LINE",
"1276 1400 LINE",
"738 604 LINE"
);
},
{
closed = 1;
nodes = (
"1056 40 LINE",
"448 40 LINE",
"448 0 LINE",
"1056 0 LINE"
);
},
{
closed = 1;
nodes = (
"776 612 LINE",
"728 612 LINE",
"728 0 LINE",
"776 0 LINE"
);
},
{
closed = 1;
nodes = (
"16 1440 LINE",
"16 1400 LINE",
"492 1400 LINE",
"492 1440 LINE"
);
},
{
closed = 1;
nodes = (
"232 1400 LINE",
"176 1400 LINE",
"728 582 LINE",
"768 604 LINE"
);
}
);
width = 1504;
}
);
leftKerningGroup = Y;
rightKerningGroup = Y;
unicode = 0059;
},
{
glyphname = Z;
lastChange = "2020-06-16 14:28:09 +0000";
layers = (
{
layerId = "CA54B7DC-FBBB-40FE-ACF3-AABDD76D6A7B";
paths = (
{
closed = 1;
nodes = (
"178 1400 LINE",
"1168 1400 LINE",
"1226 1404 LINE",
"1226 1440 LINE",
"178 1440 LINE"
);
},
{
closed = 1;
nodes = (
"146 0 LINE",
"1226 0 LINE",
"1226 40 LINE",
"204 40 LINE",
"146 36 LINE"
);
},
{
closed = 1;
nodes = (
"204 40 LINE",
"1226 1404 LINE",
"1168 1400 LINE",
"146 36 LINE"
);
},
{
closed = 1;
nodes = (
"178 1400 LINE",
"178 1000 LINE",
"222 1000 LINE",
"222 1260 LINE SMOOTH",
"222 1372 OFFCURVE",
"230 1400 OFFCURVE",
"342 1400 CURVE"
);
},
{
closed = 1;
nodes = (
"1226 40 LINE",
"1226 460 LINE",
"1182 460 LINE",
"1182 180 LINE SMOOTH",
"1182 68 OFFCURVE",
"1174 40 OFFCURVE",
"1062 40 CURVE"
);
}
);
width = 1368;
},
{
layerId = "1E61A082-F045-49A7-AB52-DD1B03FD9B54";
paths = (
{
closed = 1;
nodes = (
"152 1400 LINE",
"1142 1400 LINE",
"1200 1404 LINE",
"1200 1440 LINE",
"152 1440 LINE"
);
},
{
closed = 1;
nodes = (
"120 0 LINE",
"1200 0 LINE",
"1200 40 LINE",
"178 40 LINE",
"120 36 LINE"
);
},
{
closed = 1;
nodes = (
"178 40 LINE",
"1200 1404 LINE",
"1142 1400 LINE",
"120 36 LINE"
);
},
{
closed = 1;
nodes = (
"152 1400 LINE",
"152 900 LINE",
"196 900 LINE",
"196 1260 LINE SMOOTH",
"196 1372 OFFCURVE",
"204 1400 OFFCURVE",
"316 1400 CURVE"
);
},
{
closed = 1;
nodes = (
"1200 40 LINE",
"1200 560 LINE",
"1156 560 LINE",
"1156 180 LINE SMOOTH",
"1156 68 OFFCURVE",
"1148 40 OFFCURVE",
"1036 40 CURVE"
);
}
);
width = 1300;
},
{
layerId = "642E5713-E15A-4A7E-A28E-9A6B75A6585C";
paths = (
{
closed = 1;
nodes = (
"152 1400 LINE",
"1142 1400 LINE",
"1200 1404 LINE",
"1200 1440 LINE",
"152 1440 LINE"
);
},
{
closed = 1;
nodes = (
"120 0 LINE",
"1200 0 LINE",
"1200 40 LINE",
"178 40 LINE",
"120 36 LINE"
);
},
{
closed = 1;
nodes = (
"178 40 LINE",
"1200 1404 LINE",
"1142 1400 LINE",
"120 36 LINE"
);
},
{
closed = 1;
nodes = (
"152 1400 LINE",
"152 900 LINE",
"192 900 LINE",
"192 1260 LINE SMOOTH",
"192 1372 OFFCURVE",
"200 1400 OFFCURVE",
"312 1400 CURVE"
);
},
{
closed = 1;
nodes = (
"1200 40 LINE",
"1200 560 LINE",
"1160 560 LINE",
"1160 180 LINE SMOOTH",
"1160 68 OFFCURVE",
"1152 40 OFFCURVE",
"1040 40 CURVE"
);
}
);
width = 1300;
},
{
layerId = "AF891779-7DE6-4679-9CA2-17B922C1DF84";
paths = (
{
closed = 1;
nodes = (
"178 1400 LINE",
"1168 1400 LINE",
"1226 1404 LINE",
"1226 1440 LINE",
"178 1440 LINE"
);
},
{
closed = 1;
nodes = (
"146 0 LINE",
"1226 0 LINE",
"1226 40 LINE",
"204 40 LINE",
"146 36 LINE"
);
},
{
closed = 1;
nodes = (
"204 40 LINE",
"1226 1404 LINE",
"1168 1400 LINE",
"146 36 LINE"
);
},
{
closed = 1;
nodes = (
"178 1400 LINE",
"178 1000 LINE",
"218 1000 LINE",
"218 1260 LINE SMOOTH",
"218 1372 OFFCURVE",
"226 1400 OFFCURVE",
"338 1400 CURVE"
);
},
{
closed = 1;
nodes = (
"1226 40 LINE",
"1226 460 LINE",
"1186 460 LINE",
"1186 180 LINE SMOOTH",
"1186 68 OFFCURVE",
"1178 40 OFFCURVE",
"1066 40 CURVE"
);
}
);
width = 1368;
}
);
leftKerningGroup = Z;
rightKerningGroup = Z;
unicode = 005A;
},
{
glyphname = a;
lastChange = "2020-06-16 13:32:41 +0000";
layers = (
{
layerId = "CA54B7DC-FBBB-40FE-ACF3-AABDD76D6A7B";
paths = (
{
closed = 1;
nodes = (
"194 784 OFFCURVE",
"206 742 OFFCURVE",
"240 742 CURVE SMOOTH",
"261 742 OFFCURVE",
"271 756 OFFCURVE",
"271 777 CURVE SMOOTH",
"271 812 OFFCURVE",
"253 822 OFFCURVE",
"253 882 CURVE SMOOTH",
"253 996 OFFCURVE",
"387 1076 OFFCURVE",
"584 1076 CURVE SMOOTH",
"781 1076 OFFCURVE",
"878 996 OFFCURVE",
"878 848 CURVE",
"926 830 LINE",
"926 1026 OFFCURVE",
"797 1116 OFFCURVE",
"586 1116 CURVE SMOOTH",
"370 1116 OFFCURVE",
"194 1026 OFFCURVE",
"194 844 CURVE SMOOTH"
);
},
{
closed = 1;
nodes = (
"618 568 LINE SMOOTH",
"773 606 OFFCURVE",
"843 632 OFFCURVE",
"878 706 CURVE",
"878 840 LINE",
"878 683 OFFCURVE",
"768 647 OFFCURVE",
"610 608 CURVE SMOOTH",
"456 570 LINE SMOOTH",
"247 519 OFFCURVE",
"134 436 OFFCURVE",
"134 257 CURVE SMOOTH",
"134 85 OFFCURVE",
"266 -16 OFFCURVE",
"460 -16 CURVE SMOOTH",
"720 -16 OFFCURVE",
"918 143 OFFCURVE",
"916 546 CURVE",
"878 546 LINE",
"878 166 OFFCURVE",
"690 24 OFFCURVE",
"466 24 CURVE SMOOTH",
"300 24 OFFCURVE",
"182 107 OFFCURVE",
"182 257 CURVE SMOOTH",
"182 424 OFFCURVE",
"291 487 OFFCURVE",
"472 532 CURVE SMOOTH"
);
},
{
closed = 1;
nodes = (
"878 330 LINE",
"882 330 LINE",
"882 168 LINE SMOOTH",
"882 51 OFFCURVE",
"945 -16 OFFCURVE",
"1048 -16 CURVE SMOOTH",
"1151 -16 OFFCURVE",
"1214 51 OFFCURVE",
"1214 168 CURVE SMOOTH",
"1214 320 LINE",
"1170 320 LINE",
"1170 168 LINE SMOOTH",
"1170 83 OFFCURVE",
"1129 24 OFFCURVE",
"1048 24 CURVE SMOOTH",
"967 24 OFFCURVE",
"926 83 OFFCURVE",
"926 168 CURVE SMOOTH",
"926 830 LINE",
"878 848 LINE"
);
}
);
width = 1288;
},
{
layerId = "1E61A082-F045-49A7-AB52-DD1B03FD9B54";
paths = (
{
closed = 1;
nodes = (
"174 726 OFFCURVE",
"190 674 OFFCURVE",
"225 674 CURVE SMOOTH",
"244 674 OFFCURVE",
"255 686 OFFCURVE",
"255 706 CURVE SMOOTH",
"255 740 OFFCURVE",
"229 752 OFFCURVE",
"229 818 CURVE SMOOTH",
"229 972 OFFCURVE",
"391 1056 OFFCURVE",
"570 1056 CURVE SMOOTH",
"768 1056 OFFCURVE",
"854 970 OFFCURVE",
"854 838 CURVE",
"902 820 LINE",
"902 1007 OFFCURVE",
"782 1096 OFFCURVE",
"572 1096 CURVE SMOOTH",
"364 1096 OFFCURVE",
"174 999 OFFCURVE",
"174 790 CURVE SMOOTH"
);
},
{
closed = 1;
nodes = (
"594 557 LINE SMOOTH",
"749 593 OFFCURVE",
"819 622 OFFCURVE",
"854 696 CURVE",
"854 830 LINE",
"854 672 OFFCURVE",
"744 634 OFFCURVE",
"586 597 CURVE SMOOTH",
"432 561 LINE SMOOTH",
"242 517 OFFCURVE",
"110 441 OFFCURVE",
"110 253 CURVE SMOOTH",
"110 84 OFFCURVE",
"242 -16 OFFCURVE",
"436 -16 CURVE SMOOTH",
"696 -16 OFFCURVE",
"894 140 OFFCURVE",
"892 536 CURVE",
"854 536 LINE",
"854 163 OFFCURVE",
"666 24 OFFCURVE",
"442 24 CURVE SMOOTH",
"276 24 OFFCURVE",
"158 106 OFFCURVE",
"158 253 CURVE SMOOTH",
"158 413 OFFCURVE",
"262 480 OFFCURVE",
"448 523 CURVE SMOOTH"
);
},
{
closed = 1;
nodes = (
"854 320 LINE",
"858 320 LINE",
"858 176 LINE SMOOTH",
"858 54 OFFCURVE",
"924 -16 OFFCURVE",
"1032 -16 CURVE SMOOTH",
"1140 -16 OFFCURVE",
"1206 54 OFFCURVE",
"1206 176 CURVE SMOOTH",
"1206 550 LINE",
"1162 550 LINE",
"1162 176 LINE SMOOTH",
"1162 86 OFFCURVE",
"1118 24 OFFCURVE",
"1032 24 CURVE SMOOTH",
"946 24 OFFCURVE",
"902 86 OFFCURVE",
"902 176 CURVE SMOOTH",
"902 820 LINE",
"854 838 LINE"
);
}
);
width = 1264;
},
{
layerId = "642E5713-E15A-4A7E-A28E-9A6B75A6585C";
paths = (
{
closed = 1;
nodes = (
"101 750 OFFCURVE",
"161 671 OFFCURVE",
"258 671 CURVE SMOOTH",
"343 671 OFFCURVE",
"384 714 OFFCURVE",
"384 773 CURVE SMOOTH",
"384 824 OFFCURVE",
"358 839 OFFCURVE",
"358 884 CURVE SMOOTH",
"358 959 OFFCURVE",
"435 994 OFFCURVE",
"523 994 CURVE SMOOTH",
"626 994 OFFCURVE",
"683 929 OFFCURVE",
"683 842 CURVE",
"949 817 LINE",
"951 1034 OFFCURVE",
"817 1140 OFFCURVE",
"561 1140 CURVE SMOOTH",
"317 1140 OFFCURVE",
"101 1032 OFFCURVE",
"101 834 CURVE SMOOTH"
);
},
{
closed = 1;
nodes = (
"566 531 LINE SMOOTH",
"615 550 OFFCURVE",
"657 573 OFFCURVE",
"683 604 CURVE",
"683 840 LINE",
"683 754 OFFCURVE",
"643 710 OFFCURVE",
"536 678 CURVE SMOOTH",
"415 642 LINE SMOOTH",
"261 596 OFFCURVE",
"45 531 OFFCURVE",
"45 298 CURVE SMOOTH",
"45 83 OFFCURVE",
"213 -20 OFFCURVE",
"409 -20 CURVE SMOOTH",
"648 -20 OFFCURVE",
"795 113 OFFCURVE",
"793 450 CURVE",
"683 450 LINE",
"683 248 OFFCURVE",
"595 168 OFFCURVE",
"477 168 CURVE SMOOTH",
"388 168 OFFCURVE",
"327 224 OFFCURVE",
"327 315 CURVE SMOOTH",
"327 425 OFFCURVE",
"405 469 OFFCURVE",
"522 514 CURVE SMOOTH"
);
},
{
closed = 1;
nodes = (
"683 320 LINE",
"731 320 LINE",
"731 240 LINE SMOOTH",
"731 80 OFFCURVE",
"828 -23 OFFCURVE",
"996 -23 CURVE SMOOTH",
"1164 -23 OFFCURVE",
"1257 77 OFFCURVE",
"1257 237 CURVE SMOOTH",
"1257 557 LINE",
"1089 557 LINE",
"1089 229 LINE SMOOTH",
"1089 181 OFFCURVE",
"1066 149 OFFCURVE",
"1019 149 CURVE SMOOTH",
"972 149 OFFCURVE",
"949 181 OFFCURVE",
"949 229 CURVE SMOOTH",
"949 817 LINE",
"683 842 LINE"
);
}
);
width = 1271;
},
{
layerId = "AF891779-7DE6-4679-9CA2-17B922C1DF84";
paths = (
{
closed = 1;
nodes = (
"160 807 OFFCURVE",
"214 741 OFFCURVE",
"313 741 CURVE SMOOTH",
"393 741 OFFCURVE",
"435 782 OFFCURVE",
"435 837 CURVE SMOOTH",
"435 865 OFFCURVE",
"429 877 OFFCURVE",
"429 904 CURVE SMOOTH",
"429 974 OFFCURVE",
"508 1008 OFFCURVE",
"594 1008 CURVE SMOOTH",
"693 1008 OFFCURVE",
"752 948 OFFCURVE",
"752 858 CURVE",
"1018 840 LINE",
"1018 1071 OFFCURVE",
"878 1180 OFFCURVE",
"606 1180 CURVE SMOOTH",
"370 1180 OFFCURVE",
"160 1073 OFFCURVE",
"160 896 CURVE SMOOTH"
);
},
{
closed = 1;
nodes = (
"630 541 LINE SMOOTH",
"681 560 OFFCURVE",
"727 585 OFFCURVE",
"752 612 CURVE",
"752 856 LINE",
"752 779 OFFCURVE",
"711 737 OFFCURVE",
"598 706 CURVE SMOOTH",
"524 686 LINE SMOOTH",
"329 633 OFFCURVE",
"100 560 OFFCURVE",
"100 316 CURVE SMOOTH",
"100 72 OFFCURVE",
"284 -20 OFFCURVE",
"478 -20 CURVE SMOOTH",
"735 -20 OFFCURVE",
"866 135 OFFCURVE",
"866 480 CURVE",
"752 480 LINE",
"752 277 OFFCURVE",
"660 190 OFFCURVE",
"536 190 CURVE SMOOTH",
"449 190 OFFCURVE",
"382 237 OFFCURVE",
"382 331 CURVE SMOOTH",
"382 427 OFFCURVE",
"457 476 OFFCURVE",
"585 524 CURVE SMOOTH"
);
},
{
closed = 1;
nodes = (
"752 340 LINE",
"800 340 LINE",
"800 264 LINE SMOOTH",
"800 84 OFFCURVE",
"904 -20 OFFCURVE",
"1076 -20 CURVE SMOOTH",
"1248 -20 OFFCURVE",
"1336 84 OFFCURVE",
"1336 254 CURVE SMOOTH",
"1336 380 LINE",
"1150 380 LINE",
"1150 246 LINE SMOOTH",
"1150 200 OFFCURVE",
"1128 170 OFFCURVE",
"1084 170 CURVE SMOOTH",
"1040 170 OFFCURVE",
"1018 200 OFFCURVE",
"1018 246 CURVE SMOOTH",
"1018 840 LINE",
"752 858 LINE"
);
}
);
width = 1372;
}
);
leftKerningGroup = a;
rightKerningGroup = a;
unicode = 0061;
},
{
glyphname = b;
lastChange = "2020-06-16 13:25:46 +0000";
layers = (
{
layerId = "CA54B7DC-FBBB-40FE-ACF3-AABDD76D6A7B";
paths = (
{
closed = 1;
nodes = (
"314 0 LINE",
"314 334 LINE",
"288 550 LINE",
"318 746 LINE",
"318 1520 LINE",
"270 1520 LINE",
"270 0 LINE"
);
},
{
closed = 1;
nodes = (
"90 1480 LINE",
"318 1480 LINE",
"318 1520 LINE",
"90 1520 LINE"
);
},
{
closed = 1;
nodes = (
"1020 -16 OFFCURVE",
"1218 198 OFFCURVE",
"1218 550 CURVE SMOOTH",
"1218 902 OFFCURVE",
"1020 1116 OFFCURVE",
"746 1116 CURVE SMOOTH",
"452 1116 OFFCURVE",
"274 902 OFFCURVE",
"274 550 CURVE SMOOTH",
"274 198 OFFCURVE",
"452 -16 OFFCURVE",
"746 -16 CURVE SMOOTH"
);
},
{
closed = 1;
nodes = (
"494 24 OFFCURVE",
"314 220 OFFCURVE",
"314 550 CURVE SMOOTH",
"314 880 OFFCURVE",
"494 1076 OFFCURVE",
"746 1076 CURVE SMOOTH",
"994 1076 OFFCURVE",
"1170 880 OFFCURVE",
"1170 550 CURVE SMOOTH",
"1170 220 OFFCURVE",
"994 24 OFFCURVE",
"746 24 CURVE SMOOTH"
);
}
);
width = 1364;
},
{
layerId = "1E61A082-F045-49A7-AB52-DD1B03FD9B54";
paths = (
{
closed = 1;
nodes = (
"258 0 LINE",
"258 324 LINE",
"232 540 LINE",
"262 736 LINE",
"262 1480 LINE",
"214 1480 LINE",
"214 0 LINE"
);
},
{
closed = 1;
nodes = (
"34 1440 LINE",
"262 1440 LINE",
"262 1480 LINE",
"34 1480 LINE"
);
},
{
closed = 1;
nodes = (
"964 -16 OFFCURVE",
"1162 194 OFFCURVE",
"1162 540 CURVE SMOOTH",
"1162 886 OFFCURVE",
"964 1096 OFFCURVE",
"690 1096 CURVE SMOOTH",
"396 1096 OFFCURVE",
"218 886 OFFCURVE",
"218 540 CURVE SMOOTH",
"218 194 OFFCURVE",
"396 -16 OFFCURVE",
"690 -16 CURVE SMOOTH"
);
},
{
closed = 1;
nodes = (
"438 24 OFFCURVE",
"258 216 OFFCURVE",
"258 540 CURVE SMOOTH",
"258 864 OFFCURVE",
"438 1056 OFFCURVE",
"690 1056 CURVE SMOOTH",
"938 1056 OFFCURVE",
"1114 864 OFFCURVE",
"1114 540 CURVE SMOOTH",
"1114 216 OFFCURVE",
"938 24 OFFCURVE",
"690 24 CURVE SMOOTH"
);
}
);
width = 1274;
},
{
layerId = "642E5713-E15A-4A7E-A28E-9A6B75A6585C";
paths = (
{
closed = 1;
nodes = (
"396 0 LINE",
"396 270 LINE",
"358 560 LINE",
"432 776 LINE",
"432 1480 LINE",
"152 1480 LINE",
"152 0 LINE"
);
},
{
closed = 1;
nodes = (
"-28 1324 LINE",
"432 1324 LINE",
"432 1480 LINE",
"-28 1480 LINE"
);
},
{
closed = 1;
nodes = (
"1096 -16 OFFCURVE",
"1322 201 OFFCURVE",
"1322 560 CURVE SMOOTH",
"1322 919 OFFCURVE",
"1096 1136 OFFCURVE",
"778 1136 CURVE SMOOTH",
"462 1136 OFFCURVE",
"291 919 OFFCURVE",
"291 560 CURVE SMOOTH",
"291 201 OFFCURVE",
"462 -16 OFFCURVE",
"778 -16 CURVE SMOOTH"
);
},
{
closed = 1;
nodes = (
"541 154 OFFCURVE",
"418 304 OFFCURVE",
"418 560 CURVE SMOOTH",
"418 816 OFFCURVE",
"541 966 OFFCURVE",
"724 966 CURVE SMOOTH",
"903 966 OFFCURVE",
"1026 816 OFFCURVE",
"1026 560 CURVE SMOOTH",
"1026 304 OFFCURVE",
"903 154 OFFCURVE",
"724 154 CURVE SMOOTH"
);
}
);
width = 1384;
},
{
layerId = "AF891779-7DE6-4679-9CA2-17B922C1DF84";
paths = (
{
closed = 1;
nodes = (
"420 0 LINE",
"420 297 LINE",
"378 580 LINE",
"452 816 LINE",
"452 1520 LINE",
"172 1520 LINE",
"172 0 LINE"
);
},
{
closed = 1;
nodes = (
"-8 1340 LINE",
"452 1340 LINE",
"452 1520 LINE",
"-8 1520 LINE"
);
},
{
closed = 1;
nodes = (
"1118 -16 OFFCURVE",
"1350 209 OFFCURVE",
"1350 580 CURVE SMOOTH",
"1350 951 OFFCURVE",
"1118 1176 OFFCURVE",
"798 1176 CURVE SMOOTH",
"475 1176 OFFCURVE",
"300 951 OFFCURVE",
"300 580 CURVE SMOOTH",
"300 209 OFFCURVE",
"475 -16 OFFCURVE",
"798 -16 CURVE SMOOTH"
);
},
{
closed = 1;
nodes = (
"559 176 OFFCURVE",
"438 323 OFFCURVE",
"438 580 CURVE SMOOTH",
"438 837 OFFCURVE",
"559 984 OFFCURVE",
"748 984 CURVE SMOOTH",
"933 984 OFFCURVE",
"1054 837 OFFCURVE",
"1054 580 CURVE SMOOTH",
"1054 323 OFFCURVE",
"933 176 OFFCURVE",
"748 176 CURVE SMOOTH"
);
}
);
width = 1436;
}
);
leftKerningGroup = b;
rightKerningGroup = o;
rightMetricsKey = o;
unicode = 0062;
},
{
glyphname = c;
lastChange = "2020-06-16 13:15:06 +0000";
layers = (
{
layerId = "CA54B7DC-FBBB-40FE-ACF3-AABDD76D6A7B";
paths = (
{
closed = 1;
nodes = (
"662 1076 LINE",
"905 1076 OFFCURVE",
"1011 932 OFFCURVE",
"1011 811 CURVE SMOOTH",
"1011 759 OFFCURVE",
"997 738 OFFCURVE",
"997 713 CURVE SMOOTH",
"997 692 OFFCURVE",
"1010 679 OFFCURVE",
"1028 679 CURVE SMOOTH",
"1061 679 OFFCURVE",
"1069 725 OFFCURVE",
"1069 771 CURVE SMOOTH",
"1069 955 OFFCURVE",
"930 1116 OFFCURVE",
"662 1116 CURVE"
);
},
{
closed = 1;
nodes = (
"1034 333 LINE",
"1010 212 OFFCURVE",
"909 24 OFFCURVE",
"658 24 CURVE SMOOTH",
"389 24 OFFCURVE",
"196 222 OFFCURVE",
"196 550 CURVE SMOOTH",
"196 878 OFFCURVE",
"390 1076 OFFCURVE",
"662 1076 CURVE",
"662 1116 LINE",
"364 1116 OFFCURVE",
"146 910 OFFCURVE",
"146 550 CURVE SMOOTH",
"146 190 OFFCURVE",
"363 -16 OFFCURVE",
"658 -16 CURVE SMOOTH",
"931 -16 OFFCURVE",
"1048 177 OFFCURVE",
"1076 323 CURVE"
);
}
);
width = 1212;
},
{
layerId = "1E61A082-F045-49A7-AB52-DD1B03FD9B54";
paths = (
{
closed = 1;
nodes = (
"620 1056 LINE",
"880 1056 OFFCURVE",
"975 897 OFFCURVE",
"975 778 CURVE SMOOTH",
"975 707 OFFCURVE",
"945 681 OFFCURVE",
"945 648 CURVE SMOOTH",
"945 630 OFFCURVE",
"955 618 OFFCURVE",
"975 618 CURVE SMOOTH",
"1010 618 OFFCURVE",
"1028 687 OFFCURVE",
"1028 750 CURVE SMOOTH",
"1028 929 OFFCURVE",
"902 1096 OFFCURVE",
"620 1096 CURVE"
);
},
{
closed = 1;
nodes = (
"1001 366 LINE",
"971 217 OFFCURVE",
"862 24 OFFCURVE",
"616 24 CURVE SMOOTH",
"348 24 OFFCURVE",
"162 218 OFFCURVE",
"162 540 CURVE SMOOTH",
"162 862 OFFCURVE",
"350 1056 OFFCURVE",
"620 1056 CURVE",
"620 1096 LINE",
"324 1096 OFFCURVE",
"112 894 OFFCURVE",
"112 540 CURVE SMOOTH",
"112 186 OFFCURVE",
"323 -16 OFFCURVE",
"616 -16 CURVE SMOOTH",
"886 -16 OFFCURVE",
"1007 182 OFFCURVE",
"1042 356 CURVE"
);
}
);
width = 1146;
},
{
layerId = "642E5713-E15A-4A7E-A28E-9A6B75A6585C";
paths = (
{
closed = 1;
nodes = (
"664 986 LINE",
"793 988 OFFCURVE",
"847 909 OFFCURVE",
"847 815 CURVE SMOOTH",
"847 770 OFFCURVE",
"835 744 OFFCURVE",
"835 703 CURVE SMOOTH",
"835 625 OFFCURVE",
"888 573 OFFCURVE",
"981 573 CURVE SMOOTH",
"1086 573 OFFCURVE",
"1144 645 OFFCURVE",
"1144 755 CURVE SMOOTH",
"1144 958 OFFCURVE",
"954 1140 OFFCURVE",
"648 1140 CURVE"
);
},
{
closed = 1;
nodes = (
"985 458 LINE",
"955 316 OFFCURVE",
"876 178 OFFCURVE",
"682 178 CURVE SMOOTH",
"480 178 OFFCURVE",
"352 324 OFFCURVE",
"352 576 CURVE SMOOTH",
"352 822 OFFCURVE",
"470 988 OFFCURVE",
"664 986 CURVE",
"648 1140 LINE",
"314 1140 OFFCURVE",
"62 936 OFFCURVE",
"62 560 CURVE SMOOTH",
"62 184 OFFCURVE",
"314 -20 OFFCURVE",
"640 -20 CURVE SMOOTH",
"964 -20 OFFCURVE",
"1109 193 OFFCURVE",
"1142 422 CURVE"
);
}
);
width = 1206;
},
{
layerId = "AF891779-7DE6-4679-9CA2-17B922C1DF84";
paths = (
{
closed = 1;
nodes = (
"684 1004 LINE",
"806 1004 OFFCURVE",
"869 937 OFFCURVE",
"869 841 CURVE SMOOTH",
"869 807 OFFCURVE",
"865 789 OFFCURVE",
"865 757 CURVE SMOOTH",
"865 685 OFFCURVE",
"914 637 OFFCURVE",
"1007 637 CURVE SMOOTH",
"1112 637 OFFCURVE",
"1170 701 OFFCURVE",
"1170 801 CURVE SMOOTH",
"1170 1014 OFFCURVE",
"971 1180 OFFCURVE",
"668 1180 CURVE"
);
},
{
closed = 1;
nodes = (
"993 422 LINE",
"970 325 OFFCURVE",
"884 208 OFFCURVE",
"704 208 CURVE SMOOTH",
"508 208 OFFCURVE",
"370 358 OFFCURVE",
"370 604 CURVE SMOOTH",
"370 844 OFFCURVE",
"496 1004 OFFCURVE",
"684 1004 CURVE",
"668 1180 LINE",
"335 1180 OFFCURVE",
"86 970 OFFCURVE",
"86 580 CURVE SMOOTH",
"86 190 OFFCURVE",
"335 -20 OFFCURVE",
"668 -20 CURVE SMOOTH",
"991 -20 OFFCURVE",
"1136 173 OFFCURVE",
"1172 374 CURVE"
);
}
);
width = 1252;
}
);
leftKerningGroup = o;
leftMetricsKey = o;
rightKerningGroup = o;
unicode = 0063;
},
{
glyphname = d;
lastChange = "2020-06-16 13:25:38 +0000";
layers = (
{
layerId = "CA54B7DC-FBBB-40FE-ACF3-AABDD76D6A7B";
paths = (
{
closed = 1;
nodes = (
"1094 1520 LINE",
"1046 1520 LINE",
"1046 746 LINE",
"1076 550 LINE",
"1050 334 LINE",
"1050 0 LINE",
"1094 0 LINE"
);
},
{
closed = 1;
nodes = (
"866 1480 LINE",
"1094 1480 LINE",
"1094 1520 LINE",
"866 1520 LINE"
);
},
{
closed = 1;
nodes = (
"912 -16 OFFCURVE",
"1090 198 OFFCURVE",
"1090 550 CURVE SMOOTH",
"1090 902 OFFCURVE",
"912 1116 OFFCURVE",
"618 1116 CURVE SMOOTH",
"344 1116 OFFCURVE",
"146 902 OFFCURVE",
"146 550 CURVE SMOOTH",
"146 198 OFFCURVE",
"344 -16 OFFCURVE",
"618 -16 CURVE SMOOTH"
);
},
{
closed = 1;
nodes = (
"370 24 OFFCURVE",
"194 220 OFFCURVE",
"194 550 CURVE SMOOTH",
"194 880 OFFCURVE",
"370 1076 OFFCURVE",
"618 1076 CURVE SMOOTH",
"870 1076 OFFCURVE",
"1050 880 OFFCURVE",
"1050 550 CURVE SMOOTH",
"1050 220 OFFCURVE",
"870 24 OFFCURVE",
"618 24 CURVE SMOOTH"
);
},
{
closed = 1;
nodes = (
"1294 40 LINE",
"1050 40 LINE",
"1050 0 LINE",
"1294 0 LINE"
);
}
);
width = 1386;
},
{
layerId = "1E61A082-F045-49A7-AB52-DD1B03FD9B54";
paths = (
{
closed = 1;
nodes = (
"1060 1480 LINE",
"1012 1480 LINE",
"1012 736 LINE",
"1042 540 LINE",
"1016 324 LINE",
"1016 0 LINE",
"1060 0 LINE"
);
},
{
closed = 1;
nodes = (
"832 1440 LINE",
"1060 1440 LINE",
"1060 1480 LINE",
"832 1480 LINE"
);
},
{
closed = 1;
nodes = (
"878 -16 OFFCURVE",
"1056 194 OFFCURVE",
"1056 540 CURVE SMOOTH",
"1056 886 OFFCURVE",
"878 1096 OFFCURVE",
"584 1096 CURVE SMOOTH",
"310 1096 OFFCURVE",
"112 886 OFFCURVE",
"112 540 CURVE SMOOTH",
"112 194 OFFCURVE",
"310 -16 OFFCURVE",
"584 -16 CURVE SMOOTH"
);
},
{
closed = 1;
nodes = (
"336 24 OFFCURVE",
"160 216 OFFCURVE",
"160 540 CURVE SMOOTH",
"160 864 OFFCURVE",
"336 1056 OFFCURVE",
"584 1056 CURVE SMOOTH",
"836 1056 OFFCURVE",
"1016 864 OFFCURVE",
"1016 540 CURVE SMOOTH",
"1016 216 OFFCURVE",
"836 24 OFFCURVE",
"584 24 CURVE SMOOTH"
);
},
{
closed = 1;
nodes = (
"1260 40 LINE",
"1016 40 LINE",
"1016 0 LINE",
"1260 0 LINE"
);
}
);
width = 1306;
},
{
layerId = "642E5713-E15A-4A7E-A28E-9A6B75A6585C";
paths = (
{
closed = 1;
nodes = (
"1232 1480 LINE",
"952 1480 LINE",
"952 776 LINE",
"1026 560 LINE",
"994 319 LINE",
"994 0 LINE",
"1232 0 LINE"
);
},
{
closed = 1;
nodes = (
"772 1324 LINE",
"1232 1324 LINE",
"1232 1480 LINE",
"772 1480 LINE"
);
},
{
closed = 1;
nodes = (
"922 -16 OFFCURVE",
"1093 201 OFFCURVE",
"1093 560 CURVE SMOOTH",
"1093 919 OFFCURVE",
"922 1136 OFFCURVE",
"606 1136 CURVE SMOOTH",
"288 1136 OFFCURVE",
"62 919 OFFCURVE",
"62 560 CURVE SMOOTH",
"62 201 OFFCURVE",
"288 -16 OFFCURVE",
"606 -16 CURVE SMOOTH"
);
},
{
closed = 1;
nodes = (
"481 154 OFFCURVE",
"358 304 OFFCURVE",
"358 560 CURVE SMOOTH",
"358 816 OFFCURVE",
"481 966 OFFCURVE",
"660 966 CURVE SMOOTH",
"843 966 OFFCURVE",
"966 816 OFFCURVE",
"966 560 CURVE SMOOTH",
"966 304 OFFCURVE",
"843 154 OFFCURVE",
"660 154 CURVE SMOOTH"
);
},
{
closed = 1;
nodes = (
"1412 158 LINE",
"994 158 LINE",
"994 0 LINE",
"1412 0 LINE"
);
}
);
width = 1452;
},
{
layerId = "AF891779-7DE6-4679-9CA2-17B922C1DF84";
paths = (
{
closed = 1;
nodes = (
"1264 1520 LINE",
"984 1520 LINE",
"984 816 LINE",
"1058 580 LINE",
"1024 309 LINE",
"1024 0 LINE",
"1264 0 LINE"
);
},
{
closed = 1;
nodes = (
"804 1340 LINE",
"1264 1340 LINE",
"1264 1520 LINE",
"804 1520 LINE"
);
},
{
closed = 1;
nodes = (
"961 -16 OFFCURVE",
"1136 209 OFFCURVE",
"1136 580 CURVE SMOOTH",
"1136 951 OFFCURVE",
"961 1176 OFFCURVE",
"638 1176 CURVE SMOOTH",
"318 1176 OFFCURVE",
"86 951 OFFCURVE",
"86 580 CURVE SMOOTH",
"86 209 OFFCURVE",
"318 -16 OFFCURVE",
"638 -16 CURVE SMOOTH"
);
},
{
closed = 1;
nodes = (
"503 176 OFFCURVE",
"382 323 OFFCURVE",
"382 580 CURVE SMOOTH",
"382 837 OFFCURVE",
"503 984 OFFCURVE",
"688 984 CURVE SMOOTH",
"877 984 OFFCURVE",
"998 837 OFFCURVE",
"998 580 CURVE SMOOTH",
"998 323 OFFCURVE",
"877 176 OFFCURVE",
"688 176 CURVE SMOOTH"
);
},
{
closed = 1;
nodes = (
"1444 182 LINE",
"1024 182 LINE",
"1024 0 LINE",
"1444 0 LINE"
);
}
);
width = 1504;
}
);
leftKerningGroup = o;
leftMetricsKey = o;
rightKerningGroup = l;
rightMetricsKey = l;
unicode = 0064;
},
{
glyphname = e;
lastChange = "2020-06-16 13:31:59 +0000";
layers = (
{
layerId = "CA54B7DC-FBBB-40FE-ACF3-AABDD76D6A7B";
paths = (
{
closed = 1;
nodes = (
"1036 324 LINE",
"1005 205 OFFCURVE",
"897 26 OFFCURVE",
"640 26 CURVE SMOOTH",
"374 26 OFFCURVE",
"196 222 OFFCURVE",
"196 550 CURVE SMOOTH",
"196 878 OFFCURVE",
"376 1076 OFFCURVE",
"642 1076 CURVE",
"642 1116 LINE",
"352 1116 OFFCURVE",
"146 910 OFFCURVE",
"146 550 CURVE SMOOTH",
"146 190 OFFCURVE",
"350 -16 OFFCURVE",
"640 -16 CURVE SMOOTH",
"922 -16 OFFCURVE",
"1047 177 OFFCURVE",
"1078 314 CURVE"
);
},
{
closed = 1;
nodes = (
"1096 612 LINE",
"1096 908 OFFCURVE",
"930 1116 OFFCURVE",
"642 1116 CURVE",
"642 1076 LINE",
"906 1076 OFFCURVE",
"1040 880 OFFCURVE",
"1052 636 CURVE"
);
},
{
closed = 1;
nodes = (
"180 596 LINE",
"1096 596 LINE",
"1096 612 LINE",
"1052 636 LINE",
"180 636 LINE"
);
}
);
width = 1242;
},
{
layerId = "1E61A082-F045-49A7-AB52-DD1B03FD9B54";
paths = (
{
closed = 1;
nodes = (
"1008 380 LINE",
"976 238 OFFCURVE",
"873 26 OFFCURVE",
"606 26 CURVE SMOOTH",
"342 26 OFFCURVE",
"162 218 OFFCURVE",
"162 540 CURVE SMOOTH",
"162 862 OFFCURVE",
"342 1056 OFFCURVE",
"606 1056 CURVE",
"606 1096 LINE",
"318 1096 OFFCURVE",
"112 894 OFFCURVE",
"112 540 CURVE SMOOTH",
"112 186 OFFCURVE",
"318 -16 OFFCURVE",
"606 -16 CURVE SMOOTH",
"897 -16 OFFCURVE",
"1018 210 OFFCURVE",
"1050 370 CURVE"
);
},
{
closed = 1;
nodes = (
"1056 600 LINE",
"1056 892 OFFCURVE",
"892 1096 OFFCURVE",
"606 1096 CURVE",
"606 1056 LINE",
"868 1056 OFFCURVE",
"1000 863 OFFCURVE",
"1012 624 CURVE"
);
},
{
closed = 1;
nodes = (
"146 584 LINE",
"1056 584 LINE",
"1056 600 LINE",
"1012 624 LINE",
"146 624 LINE"
);
}
);
width = 1168;
},
{
layerId = "642E5713-E15A-4A7E-A28E-9A6B75A6585C";
paths = (
{
closed = 1;
nodes = (
"987 435 LINE",
"962 319 OFFCURVE",
"884 180 OFFCURVE",
"678 180 CURVE SMOOTH",
"472 180 OFFCURVE",
"348 331 OFFCURVE",
"348 586 CURVE SMOOTH",
"348 834 OFFCURVE",
"442 982 OFFCURVE",
"632 982 CURVE",
"632 1140 LINE",
"299 1140 OFFCURVE",
"62 930 OFFCURVE",
"62 560 CURVE SMOOTH",
"62 190 OFFCURVE",
"299 -20 OFFCURVE",
"632 -20 CURVE SMOOTH",
"964 -20 OFFCURVE",
"1109 201 OFFCURVE",
"1143 399 CURVE"
);
},
{
closed = 1;
nodes = (
"1160 626 LINE",
"1160 930 OFFCURVE",
"964 1140 OFFCURVE",
"632 1140 CURVE",
"632 982 LINE",
"798 981 OFFCURVE",
"878 852 OFFCURVE",
"880 702 CURVE"
);
},
{
closed = 1;
nodes = (
"192 546 LINE",
"1160 546 LINE",
"1160 626 LINE",
"880 702 LINE",
"192 702 LINE"
);
}
);
width = 1222;
},
{
layerId = "AF891779-7DE6-4679-9CA2-17B922C1DF84";
paths = (
{
closed = 1;
nodes = (
"999 395 LINE",
"971 315 OFFCURVE",
"897 206 OFFCURVE",
"712 206 CURVE SMOOTH",
"496 206 OFFCURVE",
"366 355 OFFCURVE",
"366 606 CURVE SMOOTH",
"366 853 OFFCURVE",
"466 1000 OFFCURVE",
"662 1000 CURVE",
"662 1180 LINE",
"322 1180 OFFCURVE",
"86 963 OFFCURVE",
"86 580 CURVE SMOOTH",
"86 197 OFFCURVE",
"322 -20 OFFCURVE",
"662 -20 CURVE SMOOTH",
"997 -20 OFFCURVE",
"1127 172 OFFCURVE",
"1172 325 CURVE"
);
},
{
closed = 1;
nodes = (
"1192 636 LINE",
"1192 960 OFFCURVE",
"1000 1180 OFFCURVE",
"662 1180 CURVE",
"662 1000 LINE",
"831 999 OFFCURVE",
"910 871 OFFCURVE",
"916 722 CURVE"
);
},
{
closed = 1;
nodes = (
"222 542 LINE",
"1192 542 LINE",
"1192 636 LINE",
"916 722 LINE",
"222 722 LINE"
);
}
);
width = 1278;
}
);
leftKerningGroup = o;
leftMetricsKey = o;
rightKerningGroup = o;
rightMetricsKey = o;
unicode = 0065;
},
{
glyphname = f;
lastChange = "2020-05-26 15:18:06 +0000";
layers = (
{
layerId = "CA54B7DC-FBBB-40FE-ACF3-AABDD76D6A7B";
paths = (
{
closed = 1;
nodes = (
"32 1060 LINE",
"760 1060 LINE",
"760 1100 LINE",
"32 1100 LINE"
);
},
{
closed = 1;
nodes = (
"332 0 LINE",
"380 0 LINE",
"380 1150 LINE",
"332 1146 LINE"
);
},
{
closed = 1;
nodes = (
"112 0 LINE",
"660 0 LINE",
"660 40 LINE",
"112 40 LINE"
);
},
{
closed = 1;
nodes = (
"936 1506 OFFCURVE",
"844 1580 OFFCURVE",
"700 1580 CURVE SMOOTH",
"464 1580 OFFCURVE",
"332 1432 OFFCURVE",
"332 1146 CURVE",
"380 1150 LINE",
"380 1412 OFFCURVE",
"494 1540 OFFCURVE",
"700 1540 CURVE SMOOTH",
"816 1540 OFFCURVE",
"886 1484 OFFCURVE",
"892 1408 CURVE SMOOTH",
"896 1354 OFFCURVE",
"864 1340 OFFCURVE",
"864 1302 CURVE SMOOTH",
"864 1284 OFFCURVE",
"874 1274 OFFCURVE",
"890 1274 CURVE SMOOTH",
"922 1274 OFFCURVE",
"942 1328 OFFCURVE",
"940 1390 CURVE SMOOTH"
);
}
);
width = 828;
},
{
layerId = "1E61A082-F045-49A7-AB52-DD1B03FD9B54";
paths = (
{
closed = 1;
nodes = (
"2 1040 LINE",
"730 1040 LINE",
"730 1080 LINE",
"2 1080 LINE"
);
},
{
closed = 1;
nodes = (
"302 0 LINE",
"350 0 LINE",
"350 1100 LINE",
"302 1096 LINE"
);
},
{
closed = 1;
nodes = (
"82 0 LINE",
"630 0 LINE",
"630 40 LINE",
"82 40 LINE"
);
},
{
closed = 1;
nodes = (
"906 1470 OFFCURVE",
"817 1540 OFFCURVE",
"678 1540 CURVE SMOOTH",
"437 1540 OFFCURVE",
"302 1389 OFFCURVE",
"302 1096 CURVE",
"350 1100 LINE",
"350 1369 OFFCURVE",
"467 1500 OFFCURVE",
"678 1500 CURVE SMOOTH",
"789 1500 OFFCURVE",
"856 1448 OFFCURVE",
"862 1378 CURVE SMOOTH",
"867 1320 OFFCURVE",
"834 1310 OFFCURVE",
"834 1272 CURVE SMOOTH",
"834 1254 OFFCURVE",
"844 1244 OFFCURVE",
"860 1244 CURVE SMOOTH",
"892 1244 OFFCURVE",
"912 1298 OFFCURVE",
"910 1360 CURVE SMOOTH"
);
}
);
width = 768;
},
{
layerId = "642E5713-E15A-4A7E-A28E-9A6B75A6585C";
paths = (
{
closed = 1;
nodes = (
"2 1040 LINE",
"730 1040 LINE",
"730 1080 LINE",
"2 1080 LINE"
);
},
{
closed = 1;
nodes = (
"302 0 LINE",
"350 0 LINE",
"350 1100 LINE",
"302 1096 LINE"
);
},
{
closed = 1;
nodes = (
"82 0 LINE",
"630 0 LINE",
"630 40 LINE",
"82 40 LINE"
);
},
{
closed = 1;
nodes = (
"906 1470 OFFCURVE",
"817 1540 OFFCURVE",
"678 1540 CURVE SMOOTH",
"437 1540 OFFCURVE",
"302 1389 OFFCURVE",
"302 1096 CURVE",
"350 1100 LINE",
"350 1369 OFFCURVE",
"467 1500 OFFCURVE",
"678 1500 CURVE SMOOTH",
"789 1500 OFFCURVE",
"856 1448 OFFCURVE",
"862 1378 CURVE SMOOTH",
"867 1320 OFFCURVE",
"834 1310 OFFCURVE",
"834 1272 CURVE SMOOTH",
"834 1254 OFFCURVE",
"844 1244 OFFCURVE",
"860 1244 CURVE SMOOTH",
"892 1244 OFFCURVE",
"912 1298 OFFCURVE",
"910 1360 CURVE SMOOTH"
);
}
);
width = 768;
},
{
layerId = "AF891779-7DE6-4679-9CA2-17B922C1DF84";
paths = (
{
closed = 1;
nodes = (
"32 1060 LINE",
"760 1060 LINE",
"760 1100 LINE",
"32 1100 LINE"
);
},
{
closed = 1;
nodes = (
"332 0 LINE",
"380 0 LINE",
"380 1150 LINE",
"332 1146 LINE"
);
},
{
closed = 1;
nodes = (
"112 0 LINE",
"660 0 LINE",
"660 40 LINE",
"112 40 LINE"
);
},
{
closed = 1;
nodes = (
"936 1506 OFFCURVE",
"844 1580 OFFCURVE",
"700 1580 CURVE SMOOTH",
"464 1580 OFFCURVE",
"332 1432 OFFCURVE",
"332 1146 CURVE",
"380 1150 LINE",
"380 1412 OFFCURVE",
"494 1540 OFFCURVE",
"700 1540 CURVE SMOOTH",
"816 1540 OFFCURVE",
"886 1484 OFFCURVE",
"892 1408 CURVE SMOOTH",
"896 1354 OFFCURVE",
"864 1340 OFFCURVE",
"864 1302 CURVE SMOOTH",
"864 1284 OFFCURVE",
"874 1274 OFFCURVE",
"890 1274 CURVE SMOOTH",
"922 1274 OFFCURVE",
"942 1328 OFFCURVE",
"940 1390 CURVE SMOOTH"
);
}
);
width = 828;
}
);
leftKerningGroup = f;
rightKerningGroup = f;
unicode = 0066;
},
{
glyphname = g;
lastChange = "2020-05-26 15:18:06 +0000";
layers = (
{
layerId = "CA54B7DC-FBBB-40FE-ACF3-AABDD76D6A7B";
paths = (
{
closed = 1;
nodes = (
"840 368 OFFCURVE",
"1004 514 OFFCURVE",
"1004 738 CURVE SMOOTH",
"1004 918 OFFCURVE",
"902 1026 OFFCURVE",
"778 1068 CURVE",
"620 1108 LINE",
"376 1108 OFFCURVE",
"212 962 OFFCURVE",
"212 738 CURVE SMOOTH",
"212 514 OFFCURVE",
"376 368 OFFCURVE",
"608 368 CURVE SMOOTH"
);
},
{
closed = 1;
nodes = (
"406 408 OFFCURVE",
"260 538 OFFCURVE",
"260 738 CURVE SMOOTH",
"260 938 OFFCURVE",
"406 1068 OFFCURVE",
"608 1068 CURVE SMOOTH",
"810 1068 OFFCURVE",
"956 938 OFFCURVE",
"956 738 CURVE SMOOTH",
"956 538 OFFCURVE",
"810 408 OFFCURVE",
"608 408 CURVE SMOOTH"
);
},
{
closed = 1;
nodes = (
"212 514 OFFCURVE",
"102 442 OFFCURVE",
"102 306 CURVE SMOOTH",
"102 182 OFFCURVE",
"200 100 OFFCURVE",
"348 100 CURVE SMOOTH",
"920 100 LINE SMOOTH",
"1048 100 OFFCURVE",
"1102 46 OFFCURVE",
"1102 -50 CURVE SMOOTH",
"1102 -206 OFFCURVE",
"964 -360 OFFCURVE",
"610 -360 CURVE SMOOTH",
"342 -360 OFFCURVE",
"206 -260 OFFCURVE",
"206 -108 CURVE SMOOTH",
"206 8 OFFCURVE",
"296 76 OFFCURVE",
"404 100 CURVE",
"396 134 LINE",
"262 108 OFFCURVE",
"158 26 OFFCURVE",
"158 -108 CURVE SMOOTH",
"158 -286 OFFCURVE",
"318 -400 OFFCURVE",
"610 -400 CURVE SMOOTH",
"1000 -400 OFFCURVE",
"1148 -228 OFFCURVE",
"1148 -46 CURVE SMOOTH",
"1148 72 OFFCURVE",
"1076 140 OFFCURVE",
"922 140 CURVE SMOOTH",
"352 140 LINE SMOOTH",
"230 140 OFFCURVE",
"150 210 OFFCURVE",
"150 306 CURVE SMOOTH",
"150 414 OFFCURVE",
"224 468 OFFCURVE",
"324 478 CURVE",
"320 518 LINE"
);
},
{
closed = 1;
nodes = (
"778 1068 LINE",
"1172 1068 LINE",
"1172 1108 LINE",
"620 1108 LINE"
);
}
);
width = 1264;
},
{
layerId = "1E61A082-F045-49A7-AB52-DD1B03FD9B54";
paths = (
{
closed = 1;
nodes = (
"790 360 OFFCURVE",
"954 503 OFFCURVE",
"954 724 CURVE SMOOTH",
"954 901 OFFCURVE",
"855 1007 OFFCURVE",
"734 1048 CURVE",
"570 1088 LINE",
"326 1088 OFFCURVE",
"162 945 OFFCURVE",
"162 724 CURVE SMOOTH",
"162 503 OFFCURVE",
"326 360 OFFCURVE",
"558 360 CURVE SMOOTH"
);
},
{
closed = 1;
nodes = (
"356 400 OFFCURVE",
"210 527 OFFCURVE",
"210 724 CURVE SMOOTH",
"210 921 OFFCURVE",
"356 1048 OFFCURVE",
"558 1048 CURVE SMOOTH",
"760 1048 OFFCURVE",
"906 921 OFFCURVE",
"906 724 CURVE SMOOTH",
"906 527 OFFCURVE",
"760 400 OFFCURVE",
"558 400 CURVE SMOOTH"
);
},
{
closed = 1;
nodes = (
"162 502 OFFCURVE",
"52 432 OFFCURVE",
"52 300 CURVE SMOOTH",
"52 180 OFFCURVE",
"150 100 OFFCURVE",
"298 100 CURVE SMOOTH",
"870 100 LINE SMOOTH",
"998 100 OFFCURVE",
"1052 46 OFFCURVE",
"1052 -50 CURVE SMOOTH",
"1052 -206 OFFCURVE",
"914 -360 OFFCURVE",
"560 -360 CURVE SMOOTH",
"292 -360 OFFCURVE",
"156 -260 OFFCURVE",
"156 -108 CURVE SMOOTH",
"156 8 OFFCURVE",
"246 76 OFFCURVE",
"354 100 CURVE",
"346 134 LINE",
"212 108 OFFCURVE",
"108 26 OFFCURVE",
"108 -108 CURVE SMOOTH",
"108 -286 OFFCURVE",
"268 -400 OFFCURVE",
"560 -400 CURVE SMOOTH",
"950 -400 OFFCURVE",
"1098 -228 OFFCURVE",
"1098 -46 CURVE SMOOTH",
"1098 72 OFFCURVE",
"1026 140 OFFCURVE",
"872 140 CURVE SMOOTH",
"302 140 LINE SMOOTH",
"180 140 OFFCURVE",
"100 207 OFFCURVE",
"100 300 CURVE SMOOTH",
"100 404 OFFCURVE",
"174 456 OFFCURVE",
"274 466 CURVE",
"270 506 LINE"
);
},
{
closed = 1;
nodes = (
"734 1048 LINE",
"1122 1048 LINE",
"1122 1088 LINE",
"570 1088 LINE"
);
}
);
width = 1178;
},
{
layerId = "642E5713-E15A-4A7E-A28E-9A6B75A6585C";
paths = (
{
closed = 1;
nodes = (
"790 360 OFFCURVE",
"954 503 OFFCURVE",
"954 724 CURVE SMOOTH",
"954 901 OFFCURVE",
"855 1007 OFFCURVE",
"734 1048 CURVE",
"570 1088 LINE",
"326 1088 OFFCURVE",
"162 945 OFFCURVE",
"162 724 CURVE SMOOTH",
"162 503 OFFCURVE",
"326 360 OFFCURVE",
"558 360 CURVE SMOOTH"
);
},
{
closed = 1;
nodes = (
"356 400 OFFCURVE",
"210 527 OFFCURVE",
"210 724 CURVE SMOOTH",
"210 921 OFFCURVE",
"356 1048 OFFCURVE",
"558 1048 CURVE SMOOTH",
"760 1048 OFFCURVE",
"906 921 OFFCURVE",
"906 724 CURVE SMOOTH",
"906 527 OFFCURVE",
"760 400 OFFCURVE",
"558 400 CURVE SMOOTH"
);
},
{
closed = 1;
nodes = (
"162 502 OFFCURVE",
"52 432 OFFCURVE",
"52 300 CURVE SMOOTH",
"52 180 OFFCURVE",
"150 100 OFFCURVE",
"298 100 CURVE SMOOTH",
"870 100 LINE SMOOTH",
"998 100 OFFCURVE",
"1052 46 OFFCURVE",
"1052 -50 CURVE SMOOTH",
"1052 -206 OFFCURVE",
"914 -360 OFFCURVE",
"560 -360 CURVE SMOOTH",
"292 -360 OFFCURVE",
"156 -260 OFFCURVE",
"156 -108 CURVE SMOOTH",
"156 8 OFFCURVE",
"246 76 OFFCURVE",
"354 100 CURVE",
"346 134 LINE",
"212 108 OFFCURVE",
"108 26 OFFCURVE",
"108 -108 CURVE SMOOTH",
"108 -286 OFFCURVE",
"268 -400 OFFCURVE",
"560 -400 CURVE SMOOTH",
"950 -400 OFFCURVE",
"1098 -228 OFFCURVE",
"1098 -46 CURVE SMOOTH",
"1098 72 OFFCURVE",
"1026 140 OFFCURVE",
"872 140 CURVE SMOOTH",
"302 140 LINE SMOOTH",
"180 140 OFFCURVE",
"100 207 OFFCURVE",
"100 300 CURVE SMOOTH",
"100 404 OFFCURVE",
"174 456 OFFCURVE",
"274 466 CURVE",
"270 506 LINE"
);
},
{
closed = 1;
nodes = (
"734 1048 LINE",
"1122 1048 LINE",
"1122 1088 LINE",
"570 1088 LINE"
);
}
);
width = 1178;
},
{
layerId = "AF891779-7DE6-4679-9CA2-17B922C1DF84";
paths = (
{
closed = 1;
nodes = (
"840 368 OFFCURVE",
"1004 514 OFFCURVE",
"1004 738 CURVE SMOOTH",
"1004 918 OFFCURVE",
"902 1026 OFFCURVE",
"778 1068 CURVE",
"620 1108 LINE",
"376 1108 OFFCURVE",
"212 962 OFFCURVE",
"212 738 CURVE SMOOTH",
"212 514 OFFCURVE",
"376 368 OFFCURVE",
"608 368 CURVE SMOOTH"
);
},
{
closed = 1;
nodes = (
"406 408 OFFCURVE",
"260 538 OFFCURVE",
"260 738 CURVE SMOOTH",
"260 938 OFFCURVE",
"406 1068 OFFCURVE",
"608 1068 CURVE SMOOTH",
"810 1068 OFFCURVE",
"956 938 OFFCURVE",
"956 738 CURVE SMOOTH",
"956 538 OFFCURVE",
"810 408 OFFCURVE",
"608 408 CURVE SMOOTH"
);
},
{
closed = 1;
nodes = (
"212 514 OFFCURVE",
"102 442 OFFCURVE",
"102 306 CURVE SMOOTH",
"102 182 OFFCURVE",
"200 100 OFFCURVE",
"348 100 CURVE SMOOTH",
"920 100 LINE SMOOTH",
"1048 100 OFFCURVE",
"1102 46 OFFCURVE",
"1102 -50 CURVE SMOOTH",
"1102 -206 OFFCURVE",
"964 -360 OFFCURVE",
"610 -360 CURVE SMOOTH",
"342 -360 OFFCURVE",
"206 -260 OFFCURVE",
"206 -108 CURVE SMOOTH",
"206 8 OFFCURVE",
"296 76 OFFCURVE",
"404 100 CURVE",
"396 134 LINE",
"262 108 OFFCURVE",
"158 26 OFFCURVE",
"158 -108 CURVE SMOOTH",
"158 -286 OFFCURVE",
"318 -400 OFFCURVE",
"610 -400 CURVE SMOOTH",
"1000 -400 OFFCURVE",
"1148 -228 OFFCURVE",
"1148 -46 CURVE SMOOTH",
"1148 72 OFFCURVE",
"1076 140 OFFCURVE",
"922 140 CURVE SMOOTH",
"352 140 LINE SMOOTH",
"230 140 OFFCURVE",
"150 210 OFFCURVE",
"150 306 CURVE SMOOTH",
"150 414 OFFCURVE",
"224 468 OFFCURVE",
"324 478 CURVE",
"320 518 LINE"
);
},
{
closed = 1;
nodes = (
"778 1068 LINE",
"1172 1068 LINE",
"1172 1108 LINE",
"620 1108 LINE"
);
}
);
width = 1264;
}
);
leftKerningGroup = g;
rightKerningGroup = g;
unicode = 0067;
},
{
glyphname = h;
lastChange = "2020-06-16 13:22:17 +0000";
layers = (
{
layerId = "CA54B7DC-FBBB-40FE-ACF3-AABDD76D6A7B";
paths = (
{
closed = 1;
nodes = (
"292 0 LINE",
"340 0 LINE",
"340 1520 LINE",
"292 1520 LINE"
);
},
{
closed = 1;
nodes = (
"72 0 LINE",
"560 0 LINE",
"560 40 LINE",
"72 40 LINE"
);
},
{
closed = 1;
nodes = (
"102 1480 LINE",
"340 1480 LINE",
"340 1520 LINE",
"102 1520 LINE"
);
},
{
closed = 1;
nodes = (
"340 552 LINE",
"340 914 OFFCURVE",
"544 1076 OFFCURVE",
"762 1076 CURVE SMOOTH",
"924 1076 OFFCURVE",
"1024 1002 OFFCURVE",
"1024 824 CURVE SMOOTH",
"1024 0 LINE",
"1072 0 LINE",
"1072 824 LINE SMOOTH",
"1072 1034 OFFCURVE",
"944 1116 OFFCURVE",
"764 1116 CURVE SMOOTH",
"526 1116 OFFCURVE",
"302 954 OFFCURVE",
"302 552 CURVE"
);
},
{
closed = 1;
nodes = (
"804 0 LINE",
"1262 0 LINE",
"1262 40 LINE",
"804 40 LINE"
);
}
);
width = 1334;
},
{
layerId = "1E61A082-F045-49A7-AB52-DD1B03FD9B54";
paths = (
{
closed = 1;
nodes = (
"264 0 LINE",
"312 0 LINE",
"312 1480 LINE",
"264 1480 LINE"
);
},
{
closed = 1;
nodes = (
"44 0 LINE",
"532 0 LINE",
"532 40 LINE",
"44 40 LINE"
);
},
{
closed = 1;
nodes = (
"74 1440 LINE",
"312 1440 LINE",
"312 1480 LINE",
"74 1480 LINE"
);
},
{
closed = 1;
nodes = (
"312 552 LINE",
"312 900 OFFCURVE",
"516 1056 OFFCURVE",
"734 1056 CURVE SMOOTH",
"896 1056 OFFCURVE",
"996 985 OFFCURVE",
"996 814 CURVE SMOOTH",
"996 0 LINE",
"1044 0 LINE",
"1044 814 LINE SMOOTH",
"1044 1017 OFFCURVE",
"916 1096 OFFCURVE",
"736 1096 CURVE SMOOTH",
"498 1096 OFFCURVE",
"274 940 OFFCURVE",
"274 552 CURVE"
);
},
{
closed = 1;
nodes = (
"776 0 LINE",
"1234 0 LINE",
"1234 40 LINE",
"776 40 LINE"
);
}
);
width = 1278;
},
{
layerId = "642E5713-E15A-4A7E-A28E-9A6B75A6585C";
paths = (
{
closed = 1;
nodes = (
"224 0 LINE",
"502 0 LINE",
"502 1480 LINE",
"224 1480 LINE"
);
},
{
closed = 1;
nodes = (
"34 0 LINE",
"650 0 LINE",
"650 158 LINE",
"34 158 LINE"
);
},
{
closed = 1;
nodes = (
"64 1324 LINE",
"502 1324 LINE",
"502 1480 LINE",
"64 1480 LINE"
);
},
{
closed = 1;
nodes = (
"502 652 LINE",
"502 892 OFFCURVE",
"623 956 OFFCURVE",
"732 956 CURVE SMOOTH",
"828 956 OFFCURVE",
"882 910 OFFCURVE",
"882 820 CURVE SMOOTH",
"882 0 LINE",
"1160 0 LINE",
"1160 830 LINE SMOOTH",
"1160 1047 OFFCURVE",
"1018 1140 OFFCURVE",
"816 1140 CURVE SMOOTH",
"567 1140 OFFCURVE",
"418 1007 OFFCURVE",
"418 652 CURVE"
);
},
{
closed = 1;
nodes = (
"734 0 LINE",
"1320 0 LINE",
"1320 158 LINE",
"734 158 LINE"
);
}
);
width = 1350;
},
{
layerId = "AF891779-7DE6-4679-9CA2-17B922C1DF84";
paths = (
{
closed = 1;
nodes = (
"254 0 LINE",
"532 0 LINE",
"532 1520 LINE",
"254 1520 LINE"
);
},
{
closed = 1;
nodes = (
"54 0 LINE",
"692 0 LINE",
"692 182 LINE",
"54 182 LINE"
);
},
{
closed = 1;
nodes = (
"74 1340 LINE",
"532 1340 LINE",
"532 1520 LINE",
"74 1520 LINE"
);
},
{
closed = 1;
nodes = (
"532 694 LINE",
"532 912 OFFCURVE",
"645 982 OFFCURVE",
"770 982 CURVE SMOOTH",
"867 982 OFFCURVE",
"924 936 OFFCURVE",
"924 842 CURVE SMOOTH",
"924 0 LINE",
"1202 0 LINE",
"1202 864 LINE SMOOTH",
"1202 1086 OFFCURVE",
"1059 1180 OFFCURVE",
"854 1180 CURVE SMOOTH",
"564 1180 OFFCURVE",
"430 1010 OFFCURVE",
"430 694 CURVE"
);
},
{
closed = 1;
nodes = (
"762 0 LINE",
"1362 0 LINE",
"1362 182 LINE",
"762 182 LINE"
);
}
);
width = 1408;
}
);
leftKerningGroup = l;
leftMetricsKey = l;
rightKerningGroup = n;
rightMetricsKey = n;
unicode = 0068;
},
{
glyphname = idotless;
lastChange = "2020-06-16 13:11:31 +0000";
layers = (
{
anchors = (
{
name = top;
position = "{312, 1100}";
}
);
layerId = "CA54B7DC-FBBB-40FE-ACF3-AABDD76D6A7B";
paths = (
{
closed = 1;
nodes = (
"292 0 LINE",
"340 0 LINE",
"340 1100 LINE",
"292 1100 LINE"
);
},
{
closed = 1;
nodes = (
"102 1060 LINE",
"340 1060 LINE",
"340 1100 LINE",
"102 1100 LINE"
);
},
{
closed = 1;
nodes = (
"72 0 LINE",
"540 0 LINE",
"540 40 LINE",
"72 40 LINE"
);
}
);
width = 632;
},
{
anchors = (
{
name = top;
position = "{284, 1080}";
}
);
layerId = "1E61A082-F045-49A7-AB52-DD1B03FD9B54";
paths = (
{
closed = 1;
nodes = (
"264 0 LINE",
"312 0 LINE",
"312 1080 LINE",
"264 1080 LINE"
);
},
{
closed = 1;
nodes = (
"74 1040 LINE",
"312 1040 LINE",
"312 1080 LINE",
"74 1080 LINE"
);
},
{
closed = 1;
nodes = (
"44 0 LINE",
"512 0 LINE",
"512 40 LINE",
"44 40 LINE"
);
}
);
width = 558;
},
{
anchors = (
{
name = top;
position = "{369, 1120}";
}
);
layerId = "642E5713-E15A-4A7E-A28E-9A6B75A6585C";
paths = (
{
closed = 1;
nodes = (
"234 0 LINE",
"512 0 LINE",
"512 1120 LINE",
"234 1120 LINE"
);
},
{
closed = 1;
nodes = (
"54 964 LINE",
"512 964 LINE",
"512 1120 LINE",
"54 1120 LINE"
);
},
{
closed = 1;
nodes = (
"34 0 LINE",
"692 0 LINE",
"692 158 LINE",
"34 158 LINE"
);
}
);
width = 732;
},
{
anchors = (
{
name = top;
position = "{389, 1160}";
}
);
layerId = "AF891779-7DE6-4679-9CA2-17B922C1DF84";
paths = (
{
closed = 1;
nodes = (
"254 0 LINE",
"532 0 LINE",
"532 1160 LINE",
"254 1160 LINE"
);
},
{
closed = 1;
nodes = (
"74 980 LINE",
"532 980 LINE",
"532 1160 LINE",
"74 1160 LINE"
);
},
{
closed = 1;
nodes = (
"54 0 LINE",
"712 0 LINE",
"712 182 LINE",
"54 182 LINE"
);
}
);
width = 772;
}
);
leftKerningGroup = n;
leftMetricsKey = l;
rightKerningGroup = l;
rightMetricsKey = l;
unicode = 0131;
},
{
glyphname = jdotless;
lastChange = "2020-05-26 15:18:06 +0000";
layers = (
{
anchors = (
{
name = top;
position = "{312, 1100}";
}
);
layerId = "CA54B7DC-FBBB-40FE-ACF3-AABDD76D6A7B";
paths = (
{
closed = 1;
nodes = (
"292 -2 LINE",
"340 2 LINE",
"340 1100 LINE",
"292 1100 LINE"
);
},
{
closed = 1;
nodes = (
"102 1060 LINE",
"340 1060 LINE",
"340 1100 LINE",
"102 1100 LINE"
);
},
{
closed = 1;
nodes = (
"-128 -332 OFFCURVE",
"-46 -400 OFFCURVE",
"70 -400 CURVE SMOOTH",
"246 -400 OFFCURVE",
"340 -270 OFFCURVE",
"340 2 CURVE",
"292 -2 LINE",
"292 -250 OFFCURVE",
"212 -360 OFFCURVE",
"70 -360 CURVE SMOOTH",
"-16 -360 OFFCURVE",
"-82 -310 OFFCURVE",
"-82 -240 CURVE SMOOTH",
"-82 -188 OFFCURVE",
"-58 -178 OFFCURVE",
"-58 -142 CURVE SMOOTH",
"-58 -124 OFFCURVE",
"-68 -114 OFFCURVE",
"-84 -114 CURVE SMOOTH",
"-116 -114 OFFCURVE",
"-134 -164 OFFCURVE",
"-132 -220 CURVE SMOOTH"
);
}
);
width = 504;
},
{
anchors = (
{
name = top;
position = "{312, 1080}";
}
);
layerId = "1E61A082-F045-49A7-AB52-DD1B03FD9B54";
paths = (
{
closed = 1;
nodes = (
"292 -2 LINE",
"340 2 LINE",
"340 1080 LINE",
"292 1080 LINE"
);
},
{
closed = 1;
nodes = (
"102 1040 LINE",
"340 1040 LINE",
"340 1080 LINE",
"102 1080 LINE"
);
},
{
closed = 1;
nodes = (
"-128 -332 OFFCURVE",
"-46 -400 OFFCURVE",
"70 -400 CURVE SMOOTH",
"246 -400 OFFCURVE",
"340 -270 OFFCURVE",
"340 2 CURVE",
"292 -2 LINE",
"292 -250 OFFCURVE",
"212 -360 OFFCURVE",
"70 -360 CURVE SMOOTH",
"-16 -360 OFFCURVE",
"-82 -310 OFFCURVE",
"-82 -240 CURVE SMOOTH",
"-82 -188 OFFCURVE",
"-58 -178 OFFCURVE",
"-58 -142 CURVE SMOOTH",
"-58 -124 OFFCURVE",
"-68 -114 OFFCURVE",
"-84 -114 CURVE SMOOTH",
"-116 -114 OFFCURVE",
"-134 -164 OFFCURVE",
"-132 -220 CURVE SMOOTH"
);
}
);
width = 504;
},
{
anchors = (
{
name = top;
position = "{312, 1080}";
}
);
layerId = "642E5713-E15A-4A7E-A28E-9A6B75A6585C";
paths = (
{
closed = 1;
nodes = (
"292 -2 LINE",
"340 2 LINE",
"340 1080 LINE",
"292 1080 LINE"
);
},
{
closed = 1;
nodes = (
"102 1040 LINE",
"340 1040 LINE",
"340 1080 LINE",
"102 1080 LINE"
);
},
{
closed = 1;
nodes = (
"-128 -332 OFFCURVE",
"-46 -400 OFFCURVE",
"70 -400 CURVE SMOOTH",
"246 -400 OFFCURVE",
"340 -270 OFFCURVE",
"340 2 CURVE",
"292 -2 LINE",
"292 -250 OFFCURVE",
"212 -360 OFFCURVE",
"70 -360 CURVE SMOOTH",
"-16 -360 OFFCURVE",
"-82 -310 OFFCURVE",
"-82 -240 CURVE SMOOTH",
"-82 -188 OFFCURVE",
"-58 -178 OFFCURVE",
"-58 -142 CURVE SMOOTH",
"-58 -124 OFFCURVE",
"-68 -114 OFFCURVE",
"-84 -114 CURVE SMOOTH",
"-116 -114 OFFCURVE",
"-134 -164 OFFCURVE",
"-132 -220 CURVE SMOOTH"
);
}
);
width = 504;
},
{
anchors = (
{
name = top;
position = "{312, 1100}";
}
);
layerId = "AF891779-7DE6-4679-9CA2-17B922C1DF84";
paths = (
{
closed = 1;
nodes = (
"292 -2 LINE",
"340 2 LINE",
"340 1100 LINE",
"292 1100 LINE"
);
},
{
closed = 1;
nodes = (
"102 1060 LINE",
"340 1060 LINE",
"340 1100 LINE",
"102 1100 LINE"
);
},
{
closed = 1;
nodes = (
"-128 -332 OFFCURVE",
"-46 -400 OFFCURVE",
"70 -400 CURVE SMOOTH",
"246 -400 OFFCURVE",
"340 -270 OFFCURVE",
"340 2 CURVE",
"292 -2 LINE",
"292 -250 OFFCURVE",
"212 -360 OFFCURVE",
"70 -360 CURVE SMOOTH",
"-16 -360 OFFCURVE",
"-82 -310 OFFCURVE",
"-82 -240 CURVE SMOOTH",
"-82 -188 OFFCURVE",
"-58 -178 OFFCURVE",
"-58 -142 CURVE SMOOTH",
"-58 -124 OFFCURVE",
"-68 -114 OFFCURVE",
"-84 -114 CURVE SMOOTH",
"-116 -114 OFFCURVE",
"-134 -164 OFFCURVE",
"-132 -220 CURVE SMOOTH"
);
}
);
width = 504;
}
);
leftKerningGroup = p;
rightKerningGroup = q;
unicode = 0237;
},
{
glyphname = k;
lastChange = "2020-06-08 17:51:54 +0000";
layers = (
{
layerId = "CA54B7DC-FBBB-40FE-ACF3-AABDD76D6A7B";
paths = (
{
closed = 1;
nodes = (
"1190 1100 LINE",
"794 1100 LINE",
"794 1060 LINE",
"1190 1060 LINE"
);
},
{
closed = 1;
nodes = (
"1234 40 LINE",
"768 40 LINE",
"768 0 LINE",
"1234 0 LINE"
);
},
{
closed = 1;
nodes = (
"324 396 LINE",
"1050 1060 LINE",
"984 1060 LINE",
"296 430 LINE"
);
},
{
closed = 1;
nodes = (
"292 0 LINE",
"340 0 LINE",
"340 1520 LINE",
"292 1520 LINE"
);
},
{
closed = 1;
nodes = (
"102 1480 LINE",
"340 1480 LINE",
"340 1520 LINE",
"102 1520 LINE"
);
},
{
closed = 1;
nodes = (
"72 0 LINE",
"560 0 LINE",
"560 40 LINE",
"72 40 LINE"
);
},
{
closed = 1;
nodes = (
"516 594 LINE",
"1030 40 LINE",
"1094 40 LINE",
"550 626 LINE"
);
}
);
width = 1286;
},
{
layerId = "1E61A082-F045-49A7-AB52-DD1B03FD9B54";
paths = (
{
closed = 1;
nodes = (
"1162 1080 LINE",
"766 1080 LINE",
"766 1040 LINE",
"1162 1040 LINE"
);
},
{
closed = 1;
nodes = (
"1206 40 LINE",
"740 40 LINE",
"740 0 LINE",
"1206 0 LINE"
);
},
{
closed = 1;
nodes = (
"296 386 LINE",
"1022 1040 LINE",
"956 1040 LINE",
"268 420 LINE"
);
},
{
closed = 1;
nodes = (
"264 0 LINE",
"312 0 LINE",
"312 1480 LINE",
"264 1480 LINE"
);
},
{
closed = 1;
nodes = (
"74 1440 LINE",
"312 1440 LINE",
"312 1480 LINE",
"74 1480 LINE"
);
},
{
closed = 1;
nodes = (
"44 0 LINE",
"532 0 LINE",
"532 40 LINE",
"44 40 LINE"
);
},
{
closed = 1;
nodes = (
"488 584 LINE",
"1002 40 LINE",
"1066 40 LINE",
"522 616 LINE"
);
}
);
width = 1236;
},
{
layerId = "642E5713-E15A-4A7E-A28E-9A6B75A6585C";
paths = (
{
closed = 1;
nodes = (
"1152 1080 LINE",
"756 1080 LINE",
"756 1040 LINE",
"1152 1040 LINE"
);
},
{
closed = 1;
nodes = (
"1196 40 LINE",
"730 40 LINE",
"730 0 LINE",
"1196 0 LINE"
);
},
{
closed = 1;
nodes = (
"286 386 LINE",
"1012 1040 LINE",
"946 1040 LINE",
"258 420 LINE"
);
},
{
closed = 1;
nodes = (
"254 0 LINE",
"302 0 LINE",
"302 1480 LINE",
"254 1480 LINE"
);
},
{
closed = 1;
nodes = (
"64 1440 LINE",
"302 1440 LINE",
"302 1480 LINE",
"64 1480 LINE"
);
},
{
closed = 1;
nodes = (
"34 0 LINE",
"522 0 LINE",
"522 40 LINE",
"34 40 LINE"
);
},
{
closed = 1;
nodes = (
"478 584 LINE",
"992 40 LINE",
"1056 40 LINE",
"512 616 LINE"
);
}
);
width = 1226;
},
{
layerId = "AF891779-7DE6-4679-9CA2-17B922C1DF84";
paths = (
{
closed = 1;
nodes = (
"1172 1100 LINE",
"776 1100 LINE",
"776 1060 LINE",
"1172 1060 LINE"
);
},
{
closed = 1;
nodes = (
"1216 40 LINE",
"750 40 LINE",
"750 0 LINE",
"1216 0 LINE"
);
},
{
closed = 1;
nodes = (
"306 396 LINE",
"1032 1060 LINE",
"966 1060 LINE",
"278 430 LINE"
);
},
{
closed = 1;
nodes = (
"274 0 LINE",
"322 0 LINE",
"322 1520 LINE",
"274 1520 LINE"
);
},
{
closed = 1;
nodes = (
"84 1480 LINE",
"322 1480 LINE",
"322 1520 LINE",
"84 1520 LINE"
);
},
{
closed = 1;
nodes = (
"54 0 LINE",
"542 0 LINE",
"542 40 LINE",
"54 40 LINE"
);
},
{
closed = 1;
nodes = (
"498 594 LINE",
"1012 40 LINE",
"1076 40 LINE",
"532 626 LINE"
);
}
);
width = 1268;
}
);
leftKerningGroup = l;
leftMetricsKey = l;
rightKerningGroup = k;
unicode = 006B;
},
{
glyphname = l;
lastChange = "2020-06-16 11:48:39 +0000";
layers = (
{
layerId = "CA54B7DC-FBBB-40FE-ACF3-AABDD76D6A7B";
paths = (
{
closed = 1;
nodes = (
"292 0 LINE",
"340 0 LINE",
"340 1520 LINE",
"292 1520 LINE"
);
},
{
closed = 1;
nodes = (
"102 1480 LINE",
"340 1480 LINE",
"340 1520 LINE",
"102 1520 LINE"
);
},
{
closed = 1;
nodes = (
"72 0 LINE",
"540 0 LINE",
"540 40 LINE",
"72 40 LINE"
);
}
);
width = 632;
},
{
layerId = "1E61A082-F045-49A7-AB52-DD1B03FD9B54";
paths = (
{
closed = 1;
nodes = (
"264 0 LINE",
"312 0 LINE",
"312 1480 LINE",
"264 1480 LINE"
);
},
{
closed = 1;
nodes = (
"74 1440 LINE",
"312 1440 LINE",
"312 1480 LINE",
"74 1480 LINE"
);
},
{
closed = 1;
nodes = (
"44 0 LINE",
"512 0 LINE",
"512 40 LINE",
"44 40 LINE"
);
}
);
width = 558;
},
{
layerId = "642E5713-E15A-4A7E-A28E-9A6B75A6585C";
paths = (
{
closed = 1;
nodes = (
"234 0 LINE",
"514 0 LINE",
"514 1480 LINE",
"234 1480 LINE"
);
},
{
closed = 1;
nodes = (
"54 1324 LINE",
"514 1324 LINE",
"514 1480 LINE",
"54 1480 LINE"
);
},
{
closed = 1;
nodes = (
"34 0 LINE",
"694 0 LINE",
"694 158 LINE",
"34 158 LINE"
);
}
);
width = 734;
},
{
layerId = "AF891779-7DE6-4679-9CA2-17B922C1DF84";
paths = (
{
closed = 1;
nodes = (
"254 0 LINE",
"534 0 LINE",
"534 1520 LINE",
"254 1520 LINE"
);
},
{
closed = 1;
nodes = (
"74 1340 LINE",
"534 1340 LINE",
"534 1520 LINE",
"74 1520 LINE"
);
},
{
closed = 1;
nodes = (
"54 0 LINE",
"714 0 LINE",
"714 182 LINE",
"54 182 LINE"
);
}
);
width = 774;
}
);
leftKerningGroup = l;
rightKerningGroup = l;
unicode = 006C;
},
{
glyphname = m;
lastChange = "2020-06-16 12:07:29 +0000";
layers = (
{
layerId = "CA54B7DC-FBBB-40FE-ACF3-AABDD76D6A7B";
paths = (
{
closed = 1;
nodes = (
"332 0 LINE",
"380 0 LINE",
"380 734 LINE",
"376 734 LINE",
"376 1100 LINE",
"332 1100 LINE"
);
},
{
closed = 1;
nodes = (
"380 674 LINE",
"380 952 OFFCURVE",
"534 1076 OFFCURVE",
"696 1076 CURVE SMOOTH",
"812 1076 OFFCURVE",
"882 1022 OFFCURVE",
"882 892 CURVE SMOOTH",
"882 0 LINE",
"930 0 LINE",
"930 892 LINE SMOOTH",
"930 1054 OFFCURVE",
"832 1116 OFFCURVE",
"698 1116 CURVE SMOOTH",
"510 1116 OFFCURVE",
"344 982 OFFCURVE",
"344 674 CURVE"
);
},
{
closed = 1;
nodes = (
"930 674 LINE",
"930 952 OFFCURVE",
"1084 1076 OFFCURVE",
"1246 1076 CURVE SMOOTH",
"1362 1076 OFFCURVE",
"1432 1022 OFFCURVE",
"1432 892 CURVE SMOOTH",
"1432 0 LINE",
"1480 0 LINE",
"1480 892 LINE SMOOTH",
"1480 1054 OFFCURVE",
"1384 1116 OFFCURVE",
"1248 1116 CURVE SMOOTH",
"1060 1116 OFFCURVE",
"894 982 OFFCURVE",
"894 674 CURVE"
);
},
{
closed = 1;
nodes = (
"142 1060 LINE",
"376 1060 LINE",
"376 1100 LINE",
"142 1100 LINE"
);
},
{
closed = 1;
nodes = (
"112 0 LINE",
"580 0 LINE",
"580 40 LINE",
"112 40 LINE"
);
},
{
closed = 1;
nodes = (
"682 0 LINE",
"1130 0 LINE",
"1130 40 LINE",
"682 40 LINE"
);
},
{
closed = 1;
nodes = (
"1232 0 LINE",
"1670 0 LINE",
"1670 40 LINE",
"1232 40 LINE"
);
}
);
width = 1742;
},
{
layerId = "1E61A082-F045-49A7-AB52-DD1B03FD9B54";
paths = (
{
closed = 1;
nodes = (
"278 0 LINE",
"326 0 LINE",
"326 724 LINE",
"322 724 LINE",
"322 1080 LINE",
"278 1080 LINE"
);
},
{
closed = 1;
nodes = (
"326 664 LINE",
"326 935 OFFCURVE",
"480 1056 OFFCURVE",
"642 1056 CURVE SMOOTH",
"758 1056 OFFCURVE",
"828 1005 OFFCURVE",
"828 882 CURVE SMOOTH",
"828 0 LINE",
"876 0 LINE",
"876 882 LINE SMOOTH",
"876 1037 OFFCURVE",
"778 1096 OFFCURVE",
"644 1096 CURVE SMOOTH",
"456 1096 OFFCURVE",
"290 965 OFFCURVE",
"290 664 CURVE"
);
},
{
closed = 1;
nodes = (
"876 664 LINE",
"876 935 OFFCURVE",
"1030 1056 OFFCURVE",
"1192 1056 CURVE SMOOTH",
"1308 1056 OFFCURVE",
"1378 1005 OFFCURVE",
"1378 882 CURVE SMOOTH",
"1378 0 LINE",
"1426 0 LINE",
"1426 882 LINE SMOOTH",
"1426 1037 OFFCURVE",
"1330 1096 OFFCURVE",
"1194 1096 CURVE SMOOTH",
"1006 1096 OFFCURVE",
"840 965 OFFCURVE",
"840 664 CURVE"
);
},
{
closed = 1;
nodes = (
"88 1040 LINE",
"322 1040 LINE",
"322 1080 LINE",
"88 1080 LINE"
);
},
{
closed = 1;
nodes = (
"58 0 LINE",
"526 0 LINE",
"526 40 LINE",
"58 40 LINE"
);
},
{
closed = 1;
nodes = (
"628 0 LINE",
"1076 0 LINE",
"1076 40 LINE",
"628 40 LINE"
);
},
{
closed = 1;
nodes = (
"1178 0 LINE",
"1616 0 LINE",
"1616 40 LINE",
"1178 40 LINE"
);
}
);
width = 1660;
},
{
layerId = "642E5713-E15A-4A7E-A28E-9A6B75A6585C";
paths = (
{
closed = 1;
nodes = (
"242 0 LINE",
"516 0 LINE",
"516 740 LINE",
"466 740 LINE",
"466 1120 LINE",
"242 1120 LINE"
);
},
{
closed = 1;
nodes = (
"516 716 LINE",
"516 898 OFFCURVE",
"615 958 OFFCURVE",
"706 958 CURVE SMOOTH",
"784 958 OFFCURVE",
"826 920 OFFCURVE",
"826 848 CURVE SMOOTH",
"826 0 LINE",
"1100 0 LINE",
"1100 838 LINE SMOOTH",
"1100 1036 OFFCURVE",
"975 1140 OFFCURVE",
"786 1140 CURVE SMOOTH",
"535 1140 OFFCURVE",
"420 989 OFFCURVE",
"420 716 CURVE"
);
},
{
closed = 1;
nodes = (
"1100 716 LINE",
"1100 898 OFFCURVE",
"1199 958 OFFCURVE",
"1290 958 CURVE SMOOTH",
"1368 958 OFFCURVE",
"1410 920 OFFCURVE",
"1410 848 CURVE SMOOTH",
"1410 0 LINE",
"1684 0 LINE",
"1684 850 LINE SMOOTH",
"1684 1040 OFFCURVE",
"1559 1140 OFFCURVE",
"1370 1140 CURVE SMOOTH",
"1119 1140 OFFCURVE",
"1004 989 OFFCURVE",
"1004 716 CURVE"
);
},
{
closed = 1;
nodes = (
"62 964 LINE",
"466 964 LINE",
"466 1120 LINE",
"62 1120 LINE"
);
},
{
closed = 1;
nodes = (
"42 0 LINE",
"646 0 LINE",
"646 158 LINE",
"42 158 LINE"
);
},
{
closed = 1;
nodes = (
"696 0 LINE",
"1230 0 LINE",
"1230 158 LINE",
"696 158 LINE"
);
},
{
closed = 1;
nodes = (
"1280 0 LINE",
"1844 0 LINE",
"1844 158 LINE",
"1280 158 LINE"
);
}
);
width = 1874;
},
{
layerId = "AF891779-7DE6-4679-9CA2-17B922C1DF84";
paths = (
{
closed = 1;
nodes = (
"258 0 LINE",
"532 0 LINE",
"532 810 LINE",
"488 810 LINE",
"488 1160 LINE",
"258 1160 LINE"
);
},
{
closed = 1;
nodes = (
"532 742 LINE",
"532 915 OFFCURVE",
"630 982 OFFCURVE",
"728 982 CURVE SMOOTH",
"806 982 OFFCURVE",
"852 946 OFFCURVE",
"852 872 CURVE SMOOTH",
"852 0 LINE",
"1126 0 LINE",
"1126 882 LINE SMOOTH",
"1126 1087 OFFCURVE",
"1007 1180 OFFCURVE",
"812 1180 CURVE SMOOTH",
"553 1180 OFFCURVE",
"424 1026 OFFCURVE",
"424 742 CURVE"
);
},
{
closed = 1;
nodes = (
"1126 742 LINE",
"1126 915 OFFCURVE",
"1224 982 OFFCURVE",
"1322 982 CURVE SMOOTH",
"1400 982 OFFCURVE",
"1446 946 OFFCURVE",
"1446 872 CURVE SMOOTH",
"1446 0 LINE",
"1720 0 LINE",
"1720 882 LINE SMOOTH",
"1720 1087 OFFCURVE",
"1601 1180 OFFCURVE",
"1406 1180 CURVE SMOOTH",
"1147 1180 OFFCURVE",
"1018 1026 OFFCURVE",
"1018 742 CURVE"
);
},
{
closed = 1;
nodes = (
"78 980 LINE",
"488 980 LINE",
"488 1160 LINE",
"78 1160 LINE"
);
},
{
closed = 1;
nodes = (
"58 0 LINE",
"662 0 LINE",
"662 182 LINE",
"58 182 LINE"
);
},
{
closed = 1;
nodes = (
"722 0 LINE",
"1256 0 LINE",
"1256 182 LINE",
"722 182 LINE"
);
},
{
closed = 1;
nodes = (
"1316 0 LINE",
"1880 0 LINE",
"1880 182 LINE",
"1316 182 LINE"
);
}
);
width = 1926;
}
);
leftKerningGroup = n;
leftMetricsKey = n;
rightKerningGroup = n;
rightMetricsKey = n;
unicode = 006D;
},
{
glyphname = n;
lastChange = "2020-06-16 13:25:13 +0000";
layers = (
{
layerId = "CA54B7DC-FBBB-40FE-ACF3-AABDD76D6A7B";
paths = (
{
closed = 1;
nodes = (
"332 0 LINE",
"380 0 LINE",
"380 710 LINE",
"376 710 LINE",
"376 1100 LINE",
"332 1100 LINE"
);
},
{
closed = 1;
nodes = (
"112 0 LINE",
"600 0 LINE",
"600 40 LINE",
"112 40 LINE"
);
},
{
closed = 1;
nodes = (
"142 1060 LINE",
"376 1060 LINE",
"376 1100 LINE",
"142 1100 LINE"
);
},
{
closed = 1;
nodes = (
"380 552 LINE",
"380 914 OFFCURVE",
"584 1076 OFFCURVE",
"802 1076 CURVE SMOOTH",
"964 1076 OFFCURVE",
"1064 1002 OFFCURVE",
"1064 824 CURVE SMOOTH",
"1064 0 LINE",
"1112 0 LINE",
"1112 824 LINE SMOOTH",
"1112 1034 OFFCURVE",
"984 1116 OFFCURVE",
"804 1116 CURVE SMOOTH",
"564 1116 OFFCURVE",
"342 954 OFFCURVE",
"342 552 CURVE"
);
},
{
closed = 1;
nodes = (
"844 0 LINE",
"1302 0 LINE",
"1302 40 LINE",
"844 40 LINE"
);
}
);
width = 1374;
},
{
layerId = "1E61A082-F045-49A7-AB52-DD1B03FD9B54";
paths = (
{
closed = 1;
nodes = (
"278 0 LINE",
"326 0 LINE",
"326 700 LINE",
"322 700 LINE",
"322 1080 LINE",
"278 1080 LINE"
);
},
{
closed = 1;
nodes = (
"58 0 LINE",
"546 0 LINE",
"546 40 LINE",
"58 40 LINE"
);
},
{
closed = 1;
nodes = (
"88 1040 LINE",
"322 1040 LINE",
"322 1080 LINE",
"88 1080 LINE"
);
},
{
closed = 1;
nodes = (
"326 542 LINE",
"326 897 OFFCURVE",
"530 1056 OFFCURVE",
"748 1056 CURVE SMOOTH",
"910 1056 OFFCURVE",
"1010 985 OFFCURVE",
"1010 814 CURVE SMOOTH",
"1010 0 LINE",
"1058 0 LINE",
"1058 814 LINE SMOOTH",
"1058 1017 OFFCURVE",
"930 1096 OFFCURVE",
"750 1096 CURVE SMOOTH",
"510 1096 OFFCURVE",
"288 937 OFFCURVE",
"288 542 CURVE"
);
},
{
closed = 1;
nodes = (
"790 0 LINE",
"1248 0 LINE",
"1248 40 LINE",
"790 40 LINE"
);
}
);
width = 1292;
},
{
layerId = "642E5713-E15A-4A7E-A28E-9A6B75A6585C";
paths = (
{
closed = 1;
nodes = (
"242 -1 LINE",
"520 0 LINE",
"520 740 LINE",
"470 740 LINE",
"470 1120 LINE",
"242 1119 LINE"
);
},
{
closed = 1;
nodes = (
"42 -1 LINE",
"668 0 LINE",
"668 158 LINE",
"42 157 LINE"
);
},
{
closed = 1;
nodes = (
"62 963 LINE",
"470 964 LINE",
"470 1120 LINE",
"62 1119 LINE"
);
},
{
closed = 1;
nodes = (
"520 652 LINE",
"520 892 OFFCURVE",
"641 956 OFFCURVE",
"750 956 CURVE SMOOTH",
"846 956 OFFCURVE",
"900 910 OFFCURVE",
"900 820 CURVE SMOOTH",
"900 0 LINE",
"1178 0 LINE",
"1178 830 LINE SMOOTH",
"1178 1047 OFFCURVE",
"1032 1140 OFFCURVE",
"826 1140 CURVE SMOOTH",
"573 1140 OFFCURVE",
"422 1007 OFFCURVE",
"422 652 CURVE"
);
},
{
closed = 1;
nodes = (
"752 0 LINE",
"1338 0 LINE",
"1338 158 LINE",
"752 158 LINE"
);
}
);
width = 1368;
},
{
layerId = "AF891779-7DE6-4679-9CA2-17B922C1DF84";
paths = (
{
closed = 1;
nodes = (
"258 -1 LINE",
"536 0 LINE",
"536 780 LINE",
"492 780 LINE",
"492 1160 LINE",
"258 1159 LINE"
);
},
{
closed = 1;
nodes = (
"58 -1 LINE",
"696 0 LINE",
"696 182 LINE",
"58 181 LINE"
);
},
{
closed = 1;
nodes = (
"78 979 LINE",
"492 980 LINE",
"492 1160 LINE",
"78 1159 LINE"
);
},
{
closed = 1;
nodes = (
"536 694 LINE",
"536 912 OFFCURVE",
"649 982 OFFCURVE",
"774 982 CURVE SMOOTH",
"871 982 OFFCURVE",
"928 936 OFFCURVE",
"928 842 CURVE SMOOTH",
"928 0 LINE",
"1206 0 LINE",
"1206 864 LINE SMOOTH",
"1206 1086 OFFCURVE",
"1058 1180 OFFCURVE",
"852 1180 CURVE SMOOTH",
"558 1180 OFFCURVE",
"420 1010 OFFCURVE",
"420 694 CURVE"
);
},
{
closed = 1;
nodes = (
"768 0 LINE",
"1366 0 LINE",
"1366 182 LINE",
"768 182 LINE"
);
}
);
width = 1412;
}
);
leftKerningGroup = n;
rightKerningGroup = n;
unicode = 006E;
},
{
glyphname = o;
lastChange = "2020-06-16 11:51:37 +0000";
layers = (
{
layerId = "CA54B7DC-FBBB-40FE-ACF3-AABDD76D6A7B";
paths = (
{
closed = 1;
nodes = (
"954 -16 OFFCURVE",
"1166 190 OFFCURVE",
"1166 550 CURVE SMOOTH",
"1166 910 OFFCURVE",
"954 1116 OFFCURVE",
"656 1116 CURVE SMOOTH",
"358 1116 OFFCURVE",
"146 910 OFFCURVE",
"146 550 CURVE SMOOTH",
"146 190 OFFCURVE",
"358 -16 OFFCURVE",
"656 -16 CURVE SMOOTH"
);
},
{
closed = 1;
nodes = (
"384 24 OFFCURVE",
"196 222 OFFCURVE",
"196 550 CURVE SMOOTH",
"196 878 OFFCURVE",
"384 1076 OFFCURVE",
"656 1076 CURVE SMOOTH",
"928 1076 OFFCURVE",
"1116 878 OFFCURVE",
"1116 550 CURVE SMOOTH",
"1116 222 OFFCURVE",
"928 24 OFFCURVE",
"656 24 CURVE SMOOTH"
);
}
);
width = 1312;
},
{
layerId = "1E61A082-F045-49A7-AB52-DD1B03FD9B54";
paths = (
{
closed = 1;
nodes = (
"920 -16 OFFCURVE",
"1132 186 OFFCURVE",
"1132 540 CURVE SMOOTH",
"1132 894 OFFCURVE",
"920 1096 OFFCURVE",
"622 1096 CURVE SMOOTH",
"324 1096 OFFCURVE",
"112 894 OFFCURVE",
"112 540 CURVE SMOOTH",
"112 186 OFFCURVE",
"324 -16 OFFCURVE",
"622 -16 CURVE SMOOTH"
);
},
{
closed = 1;
nodes = (
"350 24 OFFCURVE",
"162 218 OFFCURVE",
"162 540 CURVE SMOOTH",
"162 862 OFFCURVE",
"350 1056 OFFCURVE",
"622 1056 CURVE SMOOTH",
"894 1056 OFFCURVE",
"1082 862 OFFCURVE",
"1082 540 CURVE SMOOTH",
"1082 218 OFFCURVE",
"894 24 OFFCURVE",
"622 24 CURVE SMOOTH"
);
}
);
width = 1244;
},
{
layerId = "642E5713-E15A-4A7E-A28E-9A6B75A6585C";
paths = (
{
closed = 1;
nodes = (
"1038 -20 OFFCURVE",
"1294 190 OFFCURVE",
"1294 560 CURVE SMOOTH",
"1294 930 OFFCURVE",
"1038 1140 OFFCURVE",
"678 1140 CURVE SMOOTH",
"318 1140 OFFCURVE",
"62 930 OFFCURVE",
"62 560 CURVE SMOOTH",
"62 190 OFFCURVE",
"318 -20 OFFCURVE",
"678 -20 CURVE SMOOTH"
);
},
{
closed = 1;
nodes = (
"485 136 OFFCURVE",
"358 287 OFFCURVE",
"358 550 CURVE SMOOTH",
"358 825 OFFCURVE",
"485 984 OFFCURVE",
"678 984 CURVE SMOOTH",
"871 984 OFFCURVE",
"998 829 OFFCURVE",
"998 560 CURVE SMOOTH",
"998 291 OFFCURVE",
"871 136 OFFCURVE",
"678 136 CURVE SMOOTH"
);
}
);
width = 1356;
},
{
layerId = "AF891779-7DE6-4679-9CA2-17B922C1DF84";
paths = (
{
closed = 1;
nodes = (
"1068 -20 OFFCURVE",
"1326 197 OFFCURVE",
"1326 580 CURVE SMOOTH",
"1326 963 OFFCURVE",
"1068 1180 OFFCURVE",
"706 1180 CURVE SMOOTH",
"344 1180 OFFCURVE",
"86 963 OFFCURVE",
"86 580 CURVE SMOOTH",
"86 197 OFFCURVE",
"344 -20 OFFCURVE",
"706 -20 CURVE SMOOTH"
);
},
{
closed = 1;
nodes = (
"511 160 OFFCURVE",
"382 315 OFFCURVE",
"382 570 CURVE SMOOTH",
"382 837 OFFCURVE",
"511 1000 OFFCURVE",
"706 1000 CURVE SMOOTH",
"901 1000 OFFCURVE",
"1030 841 OFFCURVE",
"1030 580 CURVE SMOOTH",
"1030 319 OFFCURVE",
"901 160 OFFCURVE",
"706 160 CURVE SMOOTH"
);
}
);
width = 1412;
}
);
leftKerningGroup = o;
rightKerningGroup = o;
unicode = 006F;
},
{
glyphname = p;
lastChange = "2020-06-16 13:25:42 +0000";
layers = (
{
layerId = "CA54B7DC-FBBB-40FE-ACF3-AABDD76D6A7B";
paths = (
{
closed = 1;
nodes = (
"624 -340 LINE",
"96 -340 LINE",
"96 -380 LINE",
"624 -380 LINE"
);
},
{
closed = 1;
nodes = (
"344 334 LINE",
"314 550 LINE",
"340 746 LINE",
"340 1100 LINE",
"296 1100 LINE",
"296 -380 LINE",
"344 -380 LINE"
);
},
{
closed = 1;
nodes = (
"116 1060 LINE",
"340 1060 LINE",
"340 1100 LINE",
"116 1100 LINE"
);
},
{
closed = 1;
nodes = (
"1046 -16 OFFCURVE",
"1244 198 OFFCURVE",
"1244 550 CURVE SMOOTH",
"1244 902 OFFCURVE",
"1046 1116 OFFCURVE",
"772 1116 CURVE SMOOTH",
"478 1116 OFFCURVE",
"300 902 OFFCURVE",
"300 550 CURVE SMOOTH",
"300 198 OFFCURVE",
"478 -16 OFFCURVE",
"772 -16 CURVE SMOOTH"
);
},
{
closed = 1;
nodes = (
"520 24 OFFCURVE",
"340 220 OFFCURVE",
"340 550 CURVE SMOOTH",
"340 880 OFFCURVE",
"520 1076 OFFCURVE",
"772 1076 CURVE SMOOTH",
"1020 1076 OFFCURVE",
"1196 880 OFFCURVE",
"1196 550 CURVE SMOOTH",
"1196 220 OFFCURVE",
"1020 24 OFFCURVE",
"772 24 CURVE SMOOTH"
);
}
);
width = 1390;
},
{
layerId = "1E61A082-F045-49A7-AB52-DD1B03FD9B54";
paths = (
{
closed = 1;
nodes = (
"578 -340 LINE",
"50 -340 LINE",
"50 -380 LINE",
"578 -380 LINE"
);
},
{
closed = 1;
nodes = (
"298 324 LINE",
"268 540 LINE",
"294 736 LINE",
"294 1080 LINE",
"250 1080 LINE",
"250 -380 LINE",
"298 -380 LINE"
);
},
{
closed = 1;
nodes = (
"70 1040 LINE",
"294 1040 LINE",
"294 1080 LINE",
"70 1080 LINE"
);
},
{
closed = 1;
nodes = (
"1000 -16 OFFCURVE",
"1198 194 OFFCURVE",
"1198 540 CURVE SMOOTH",
"1198 886 OFFCURVE",
"1000 1096 OFFCURVE",
"726 1096 CURVE SMOOTH",
"432 1096 OFFCURVE",
"254 886 OFFCURVE",
"254 540 CURVE SMOOTH",
"254 194 OFFCURVE",
"432 -16 OFFCURVE",
"726 -16 CURVE SMOOTH"
);
},
{
closed = 1;
nodes = (
"474 24 OFFCURVE",
"294 216 OFFCURVE",
"294 540 CURVE SMOOTH",
"294 864 OFFCURVE",
"474 1056 OFFCURVE",
"726 1056 CURVE SMOOTH",
"974 1056 OFFCURVE",
"1150 864 OFFCURVE",
"1150 540 CURVE SMOOTH",
"1150 216 OFFCURVE",
"974 24 OFFCURVE",
"726 24 CURVE SMOOTH"
);
}
);
width = 1310;
},
{
layerId = "642E5713-E15A-4A7E-A28E-9A6B75A6585C";
paths = (
{
closed = 1;
nodes = (
"776 -222 LINE",
"16 -222 LINE",
"16 -380 LINE",
"776 -380 LINE"
);
},
{
closed = 1;
nodes = (
"496 344 LINE",
"454 344 LINE",
"454 756 LINE",
"454 1120 LINE",
"216 1120 LINE",
"216 -380 LINE",
"496 -380 LINE"
);
},
{
closed = 1;
nodes = (
"36 964 LINE",
"454 964 LINE",
"454 1120 LINE",
"36 1120 LINE"
);
},
{
closed = 1;
nodes = (
"1160 -16 OFFCURVE",
"1386 201 OFFCURVE",
"1386 560 CURVE SMOOTH",
"1386 919 OFFCURVE",
"1160 1136 OFFCURVE",
"842 1136 CURVE SMOOTH",
"526 1136 OFFCURVE",
"355 919 OFFCURVE",
"355 560 CURVE SMOOTH",
"355 201 OFFCURVE",
"526 -16 OFFCURVE",
"842 -16 CURVE SMOOTH"
);
},
{
closed = 1;
nodes = (
"605 154 OFFCURVE",
"482 304 OFFCURVE",
"482 560 CURVE SMOOTH",
"482 816 OFFCURVE",
"605 966 OFFCURVE",
"788 966 CURVE SMOOTH",
"967 966 OFFCURVE",
"1090 816 OFFCURVE",
"1090 560 CURVE SMOOTH",
"1090 304 OFFCURVE",
"967 154 OFFCURVE",
"788 154 CURVE SMOOTH"
);
}
);
width = 1448;
},
{
layerId = "AF891779-7DE6-4679-9CA2-17B922C1DF84";
paths = (
{
closed = 1;
nodes = (
"794 -198 LINE",
"34 -198 LINE",
"34 -380 LINE",
"794 -380 LINE"
);
},
{
closed = 1;
nodes = (
"514 344 LINE",
"440 580 LINE",
"474 756 LINE",
"474 1160 LINE",
"234 1160 LINE",
"234 -380 LINE",
"514 -380 LINE"
);
},
{
closed = 1;
nodes = (
"54 980 LINE",
"474 980 LINE",
"474 1160 LINE",
"54 1160 LINE"
);
},
{
closed = 1;
nodes = (
"1180 -16 OFFCURVE",
"1412 209 OFFCURVE",
"1412 580 CURVE SMOOTH",
"1412 951 OFFCURVE",
"1180 1176 OFFCURVE",
"860 1176 CURVE SMOOTH",
"537 1176 OFFCURVE",
"362 951 OFFCURVE",
"362 580 CURVE SMOOTH",
"362 209 OFFCURVE",
"537 -16 OFFCURVE",
"860 -16 CURVE SMOOTH"
);
},
{
closed = 1;
nodes = (
"621 176 OFFCURVE",
"500 323 OFFCURVE",
"500 580 CURVE SMOOTH",
"500 837 OFFCURVE",
"621 984 OFFCURVE",
"810 984 CURVE SMOOTH",
"995 984 OFFCURVE",
"1116 837 OFFCURVE",
"1116 580 CURVE SMOOTH",
"1116 323 OFFCURVE",
"995 176 OFFCURVE",
"810 176 CURVE SMOOTH"
);
}
);
width = 1498;
}
);
leftKerningGroup = p;
rightKerningGroup = o;
rightMetricsKey = o;
unicode = 0070;
},
{
glyphname = q;
lastChange = "2020-06-16 13:25:30 +0000";
layers = (
{
layerId = "CA54B7DC-FBBB-40FE-ACF3-AABDD76D6A7B";
paths = (
{
closed = 1;
nodes = (
"1294 -380 LINE",
"1294 -340 LINE",
"766 -340 LINE",
"766 -380 LINE"
);
},
{
closed = 1;
nodes = (
"1094 -380 LINE",
"1094 1100 LINE",
"1050 1100 LINE",
"1050 750 LINE",
"1076 550 LINE",
"1046 334 LINE",
"1046 -380 LINE"
);
},
{
closed = 1;
nodes = (
"912 -16 OFFCURVE",
"1090 198 OFFCURVE",
"1090 550 CURVE SMOOTH",
"1090 902 OFFCURVE",
"912 1116 OFFCURVE",
"618 1116 CURVE SMOOTH",
"344 1116 OFFCURVE",
"146 902 OFFCURVE",
"146 550 CURVE SMOOTH",
"146 198 OFFCURVE",
"344 -16 OFFCURVE",
"618 -16 CURVE SMOOTH"
);
},
{
closed = 1;
nodes = (
"370 24 OFFCURVE",
"194 220 OFFCURVE",
"194 550 CURVE SMOOTH",
"194 880 OFFCURVE",
"370 1076 OFFCURVE",
"618 1076 CURVE SMOOTH",
"870 1076 OFFCURVE",
"1050 880 OFFCURVE",
"1050 550 CURVE SMOOTH",
"1050 220 OFFCURVE",
"870 24 OFFCURVE",
"618 24 CURVE SMOOTH"
);
}
);
width = 1342;
},
{
layerId = "1E61A082-F045-49A7-AB52-DD1B03FD9B54";
paths = (
{
closed = 1;
nodes = (
"1260 -380 LINE",
"1260 -340 LINE",
"732 -340 LINE",
"732 -380 LINE"
);
},
{
closed = 1;
nodes = (
"1060 -380 LINE",
"1060 1080 LINE",
"1016 1080 LINE",
"1016 740 LINE",
"1042 540 LINE",
"1012 324 LINE",
"1012 -380 LINE"
);
},
{
closed = 1;
nodes = (
"878 -16 OFFCURVE",
"1056 194 OFFCURVE",
"1056 540 CURVE SMOOTH",
"1056 886 OFFCURVE",
"878 1096 OFFCURVE",
"584 1096 CURVE SMOOTH",
"310 1096 OFFCURVE",
"112 886 OFFCURVE",
"112 540 CURVE SMOOTH",
"112 194 OFFCURVE",
"310 -16 OFFCURVE",
"584 -16 CURVE SMOOTH"
);
},
{
closed = 1;
nodes = (
"336 24 OFFCURVE",
"160 216 OFFCURVE",
"160 540 CURVE SMOOTH",
"160 864 OFFCURVE",
"336 1056 OFFCURVE",
"584 1056 CURVE SMOOTH",
"836 1056 OFFCURVE",
"1016 864 OFFCURVE",
"1016 540 CURVE SMOOTH",
"1016 216 OFFCURVE",
"836 24 OFFCURVE",
"584 24 CURVE SMOOTH"
);
}
);
width = 1258;
},
{
layerId = "642E5713-E15A-4A7E-A28E-9A6B75A6585C";
paths = (
{
closed = 1;
nodes = (
"1432 -380 LINE",
"1432 -222 LINE",
"672 -222 LINE",
"672 -380 LINE"
);
},
{
closed = 1;
nodes = (
"1232 -380 LINE",
"1232 1120 LINE",
"988 1120 LINE",
"988 756 LINE",
"1026 560 LINE",
"952 344 LINE",
"952 -380 LINE"
);
},
{
closed = 1;
nodes = (
"922 -16 OFFCURVE",
"1093 201 OFFCURVE",
"1093 560 CURVE SMOOTH",
"1093 919 OFFCURVE",
"922 1136 OFFCURVE",
"606 1136 CURVE SMOOTH",
"288 1136 OFFCURVE",
"62 919 OFFCURVE",
"62 560 CURVE SMOOTH",
"62 201 OFFCURVE",
"288 -16 OFFCURVE",
"606 -16 CURVE SMOOTH"
);
},
{
closed = 1;
nodes = (
"481 154 OFFCURVE",
"358 304 OFFCURVE",
"358 560 CURVE SMOOTH",
"358 816 OFFCURVE",
"481 966 OFFCURVE",
"660 966 CURVE SMOOTH",
"843 966 OFFCURVE",
"966 816 OFFCURVE",
"966 560 CURVE SMOOTH",
"966 304 OFFCURVE",
"843 154 OFFCURVE",
"660 154 CURVE SMOOTH"
);
}
);
width = 1380;
},
{
layerId = "AF891779-7DE6-4679-9CA2-17B922C1DF84";
paths = (
{
closed = 1;
nodes = (
"1464 -380 LINE",
"1464 -198 LINE",
"704 -198 LINE",
"704 -380 LINE"
);
},
{
closed = 1;
nodes = (
"1264 -380 LINE",
"1264 1160 LINE",
"1016 1160 LINE",
"1016 756 LINE",
"1058 580 LINE",
"984 344 LINE",
"984 -380 LINE"
);
},
{
closed = 1;
nodes = (
"961 -16 OFFCURVE",
"1136 209 OFFCURVE",
"1136 580 CURVE SMOOTH",
"1136 951 OFFCURVE",
"961 1176 OFFCURVE",
"638 1176 CURVE SMOOTH",
"318 1176 OFFCURVE",
"86 951 OFFCURVE",
"86 580 CURVE SMOOTH",
"86 209 OFFCURVE",
"318 -16 OFFCURVE",
"638 -16 CURVE SMOOTH"
);
},
{
closed = 1;
nodes = (
"503 176 OFFCURVE",
"382 323 OFFCURVE",
"382 580 CURVE SMOOTH",
"382 837 OFFCURVE",
"503 984 OFFCURVE",
"688 984 CURVE SMOOTH",
"877 984 OFFCURVE",
"998 837 OFFCURVE",
"998 580 CURVE SMOOTH",
"998 323 OFFCURVE",
"877 176 OFFCURVE",
"688 176 CURVE SMOOTH"
);
}
);
width = 1456;
}
);
leftKerningGroup = o;
leftMetricsKey = o;
rightKerningGroup = q;
unicode = 0071;
},
{
color = 0;
glyphname = r;
lastChange = "2020-06-16 11:19:15 +0000";
layers = (
{
layerId = "CA54B7DC-FBBB-40FE-ACF3-AABDD76D6A7B";
paths = (
{
closed = 1;
nodes = (
"380 580 LINE",
"380 902 OFFCURVE",
"536 1074 OFFCURVE",
"728 1074 CURVE SMOOTH",
"861 1074 OFFCURVE",
"924 1002 OFFCURVE",
"924 896 CURVE SMOOTH",
"924 822 OFFCURVE",
"894 779 OFFCURVE",
"894 749 CURVE SMOOTH",
"894 730 OFFCURVE",
"903 718 OFFCURVE",
"922 718 CURVE SMOOTH",
"962 718 OFFCURVE",
"980 790 OFFCURVE",
"980 862 CURVE SMOOTH",
"980 1027 OFFCURVE",
"883 1114 OFFCURVE",
"732 1114 CURVE SMOOTH",
"513 1114 OFFCURVE",
"347 940 OFFCURVE",
"347 580 CURVE"
);
},
{
closed = 1;
nodes = (
"332 0 LINE",
"380 0 LINE",
"380 710 LINE",
"372 710 LINE",
"372 1100 LINE",
"332 1100 LINE"
);
},
{
closed = 1;
nodes = (
"112 0 LINE",
"660 0 LINE",
"660 40 LINE",
"112 40 LINE"
);
},
{
closed = 1;
nodes = (
"142 1060 LINE",
"372 1060 LINE",
"372 1100 LINE",
"142 1100 LINE"
);
}
);
width = 1084;
},
{
layerId = "1E61A082-F045-49A7-AB52-DD1B03FD9B54";
paths = (
{
closed = 1;
nodes = (
"326 610 LINE",
"326 898 OFFCURVE",
"485 1054 OFFCURVE",
"662 1054 CURVE SMOOTH",
"806 1054 OFFCURVE",
"875 970 OFFCURVE",
"875 852 CURVE SMOOTH",
"875 771 OFFCURVE",
"834 739 OFFCURVE",
"834 701 CURVE SMOOTH",
"834 681 OFFCURVE",
"846 670 OFFCURVE",
"865 670 CURVE SMOOTH",
"904 670 OFFCURVE",
"926 756 OFFCURVE",
"926 832 CURVE SMOOTH",
"926 998 OFFCURVE",
"834 1094 OFFCURVE",
"665 1094 CURVE SMOOTH",
"465 1094 OFFCURVE",
"295 939 OFFCURVE",
"295 610 CURVE"
);
},
{
closed = 1;
nodes = (
"278 0 LINE",
"326 0 LINE",
"326 740 LINE",
"318 740 LINE",
"318 1080 LINE",
"278 1080 LINE"
);
},
{
closed = 1;
nodes = (
"58 0 LINE",
"606 0 LINE",
"606 40 LINE",
"58 40 LINE"
);
},
{
closed = 1;
nodes = (
"88 1040 LINE",
"318 1040 LINE",
"318 1080 LINE",
"88 1080 LINE"
);
}
);
width = 994;
},
{
layerId = "642E5713-E15A-4A7E-A28E-9A6B75A6585C";
paths = (
{
closed = 1;
nodes = (
"310 610 LINE",
"310 898 OFFCURVE",
"469 1054 OFFCURVE",
"646 1054 CURVE SMOOTH",
"790 1054 OFFCURVE",
"859 970 OFFCURVE",
"859 852 CURVE SMOOTH",
"859 771 OFFCURVE",
"818 739 OFFCURVE",
"818 701 CURVE SMOOTH",
"818 681 OFFCURVE",
"830 670 OFFCURVE",
"849 670 CURVE SMOOTH",
"888 670 OFFCURVE",
"910 756 OFFCURVE",
"910 832 CURVE SMOOTH",
"910 998 OFFCURVE",
"818 1094 OFFCURVE",
"649 1094 CURVE SMOOTH",
"449 1094 OFFCURVE",
"279 939 OFFCURVE",
"279 610 CURVE"
);
},
{
closed = 1;
nodes = (
"262 0 LINE",
"310 0 LINE",
"310 740 LINE",
"302 740 LINE",
"302 1080 LINE",
"262 1080 LINE"
);
},
{
closed = 1;
nodes = (
"42 0 LINE",
"590 0 LINE",
"590 40 LINE",
"42 40 LINE"
);
},
{
closed = 1;
nodes = (
"72 1040 LINE",
"302 1040 LINE",
"302 1080 LINE",
"72 1080 LINE"
);
}
);
width = 978;
},
{
layerId = "AF891779-7DE6-4679-9CA2-17B922C1DF84";
paths = (
{
closed = 1;
nodes = (
"326 580 LINE",
"326 902 OFFCURVE",
"482 1074 OFFCURVE",
"674 1074 CURVE SMOOTH",
"807 1074 OFFCURVE",
"870 1002 OFFCURVE",
"870 896 CURVE SMOOTH",
"870 822 OFFCURVE",
"840 779 OFFCURVE",
"840 749 CURVE SMOOTH",
"840 730 OFFCURVE",
"849 718 OFFCURVE",
"868 718 CURVE SMOOTH",
"908 718 OFFCURVE",
"926 790 OFFCURVE",
"926 862 CURVE SMOOTH",
"926 1027 OFFCURVE",
"829 1114 OFFCURVE",
"678 1114 CURVE SMOOTH",
"459 1114 OFFCURVE",
"293 940 OFFCURVE",
"293 580 CURVE"
);
},
{
closed = 1;
nodes = (
"278 0 LINE",
"326 0 LINE",
"326 710 LINE",
"318 710 LINE",
"318 1100 LINE",
"278 1100 LINE"
);
},
{
closed = 1;
nodes = (
"58 0 LINE",
"606 0 LINE",
"606 40 LINE",
"58 40 LINE"
);
},
{
closed = 1;
nodes = (
"88 1060 LINE",
"318 1060 LINE",
"318 1100 LINE",
"88 1100 LINE"
);
}
);
width = 1030;
}
);
leftKerningGroup = n;
leftMetricsKey = n;
rightKerningGroup = r;
unicode = 0072;
},
{
glyphname = s;
lastChange = "2020-06-16 13:31:34 +0000";
layers = (
{
layerId = "CA54B7DC-FBBB-40FE-ACF3-AABDD76D6A7B";
paths = (
{
closed = 1;
nodes = (
"178 663 OFFCURVE",
"334 600 OFFCURVE",
"508 558 CURVE SMOOTH",
"650 524 LINE SMOOTH",
"802 488 OFFCURVE",
"946 427 OFFCURVE",
"946 268 CURVE SMOOTH",
"946 112 OFFCURVE",
"832 24 OFFCURVE",
"642 24 CURVE SMOOTH",
"458 24 OFFCURVE",
"292 101 OFFCURVE",
"222 320 CURVE",
"186 320 LINE",
"248 75 OFFCURVE",
"434 -16 OFFCURVE",
"646 -16 CURVE SMOOTH",
"856 -16 OFFCURVE",
"994 88 OFFCURVE",
"994 268 CURVE SMOOTH",
"994 458 OFFCURVE",
"825 523 OFFCURVE",
"658 564 CURVE SMOOTH",
"518 598 LINE SMOOTH",
"359 637 OFFCURVE",
"226 688 OFFCURVE",
"226 848 CURVE SMOOTH",
"226 998 OFFCURVE",
"338 1076 OFFCURVE",
"510 1076 CURVE SMOOTH",
"672 1076 OFFCURVE",
"850 1000 OFFCURVE",
"910 790 CURVE",
"946 790 LINE",
"892 1024 OFFCURVE",
"708 1116 OFFCURVE",
"510 1116 CURVE SMOOTH",
"310 1116 OFFCURVE",
"178 1018 OFFCURVE",
"178 848 CURVE SMOOTH"
);
},
{
closed = 1;
nodes = (
"910 1100 LINE",
"910 848 LINE",
"946 790 LINE",
"954 790 LINE",
"954 1100 LINE"
);
},
{
closed = 1;
nodes = (
"222 0 LINE",
"222 250 LINE",
"186 320 LINE",
"178 320 LINE",
"178 0 LINE"
);
}
);
width = 1160;
},
{
layerId = "1E61A082-F045-49A7-AB52-DD1B03FD9B54";
paths = (
{
closed = 1;
nodes = (
"156 661 OFFCURVE",
"295 592 OFFCURVE",
"486 548 CURVE SMOOTH",
"632 514 LINE SMOOTH",
"784 479 OFFCURVE",
"928 419 OFFCURVE",
"928 263 CURVE SMOOTH",
"928 110 OFFCURVE",
"816 24 OFFCURVE",
"624 24 CURVE SMOOTH",
"438 24 OFFCURVE",
"270 121 OFFCURVE",
"200 390 CURVE",
"164 390 LINE",
"223 95 OFFCURVE",
"414 -16 OFFCURVE",
"628 -16 CURVE SMOOTH",
"840 -16 OFFCURVE",
"976 86 OFFCURVE",
"976 263 CURVE SMOOTH",
"976 446 OFFCURVE",
"815 513 OFFCURVE",
"640 554 CURVE SMOOTH",
"496 588 LINE SMOOTH",
"352 622 OFFCURVE",
"204 669 OFFCURVE",
"204 833 CURVE SMOOTH",
"204 979 OFFCURVE",
"314 1056 OFFCURVE",
"488 1056 CURVE SMOOTH",
"652 1056 OFFCURVE",
"832 963 OFFCURVE",
"892 710 CURVE",
"928 710 LINE",
"874 986 OFFCURVE",
"688 1096 OFFCURVE",
"488 1096 CURVE SMOOTH",
"286 1096 OFFCURVE",
"156 1000 OFFCURVE",
"156 833 CURVE SMOOTH"
);
},
{
closed = 1;
nodes = (
"892 1080 LINE",
"892 768 LINE",
"928 710 LINE",
"936 710 LINE",
"936 1080 LINE"
);
},
{
closed = 1;
nodes = (
"200 0 LINE",
"200 320 LINE",
"164 390 LINE",
"156 390 LINE",
"156 0 LINE"
);
}
);
width = 1112;
},
{
layerId = "642E5713-E15A-4A7E-A28E-9A6B75A6585C";
paths = (
{
closed = 1;
nodes = (
"94 612 OFFCURVE",
"245 504 OFFCURVE",
"468 457 CURVE SMOOTH",
"620 425 LINE SMOOTH",
"725 403 OFFCURVE",
"796 367 OFFCURVE",
"796 275 CURVE SMOOTH",
"796 183 OFFCURVE",
"728 132 OFFCURVE",
"622 132 CURVE SMOOTH",
"504 132 OFFCURVE",
"341 217 OFFCURVE",
"270 440 CURVE",
"158 440 LINE",
"203 126 OFFCURVE",
"392 -20 OFFCURVE",
"642 -20 CURVE SMOOTH",
"870 -20 OFFCURVE",
"1026 110 OFFCURVE",
"1026 330 CURVE SMOOTH",
"1026 550 OFFCURVE",
"863 646 OFFCURVE",
"644 692 CURVE SMOOTH",
"492 724 LINE SMOOTH",
"387 746 OFFCURVE",
"322 782 OFFCURVE",
"322 866 CURVE SMOOTH",
"322 950 OFFCURVE",
"384 988 OFFCURVE",
"478 988 CURVE SMOOTH",
"582 988 OFFCURVE",
"739 917 OFFCURVE",
"812 716 CURVE",
"924 716 LINE",
"863 1025 OFFCURVE",
"672 1140 OFFCURVE",
"458 1140 CURVE SMOOTH",
"250 1140 OFFCURVE",
"94 1036 OFFCURVE",
"94 822 CURVE SMOOTH"
);
},
{
closed = 1;
nodes = (
"816 1120 LINE",
"816 824 LINE",
"924 716 LINE",
"974 716 LINE",
"974 1120 LINE"
);
},
{
closed = 1;
nodes = (
"266 0 LINE",
"266 300 LINE",
"158 440 LINE",
"108 440 LINE",
"108 0 LINE"
);
}
);
width = 1108;
},
{
layerId = "AF891779-7DE6-4679-9CA2-17B922C1DF84";
paths = (
{
closed = 1;
nodes = (
"116 627 OFFCURVE",
"292 524 OFFCURVE",
"555 460 CURVE SMOOTH",
"637 440 LINE SMOOTH",
"744 414 OFFCURVE",
"807 376 OFFCURVE",
"807 292 CURVE SMOOTH",
"807 208 OFFCURVE",
"746 152 OFFCURVE",
"632 152 CURVE SMOOTH",
"512 152 OFFCURVE",
"397 211 OFFCURVE",
"322 380 CURVE",
"188 380 LINE",
"259 103 OFFCURVE",
"430 -20 OFFCURVE",
"665 -20 CURVE SMOOTH",
"894 -20 OFFCURVE",
"1065 103 OFFCURVE",
"1065 339 CURVE SMOOTH",
"1065 572 OFFCURVE",
"873 659 OFFCURVE",
"619 722 CURVE SMOOTH",
"538 742 LINE SMOOTH",
"433 768 OFFCURVE",
"374 808 OFFCURVE",
"374 888 CURVE SMOOTH",
"374 968 OFFCURVE",
"435 1008 OFFCURVE",
"529 1008 CURVE SMOOTH",
"631 1008 OFFCURVE",
"755 964 OFFCURVE",
"821 815 CURVE",
"955 815 LINE",
"872 1082 OFFCURVE",
"714 1180 OFFCURVE",
"498 1180 CURVE SMOOTH",
"282 1180 OFFCURVE",
"116 1081 OFFCURVE",
"116 852 CURVE SMOOTH"
);
},
{
closed = 1;
nodes = (
"825 1159 LINE",
"825 923 LINE",
"955 815 LINE",
"1005 815 LINE",
"1005 1159 LINE"
);
},
{
closed = 1;
nodes = (
"318 0 LINE",
"318 240 LINE",
"188 380 LINE",
"138 380 LINE",
"138 0 LINE"
);
}
);
width = 1157;
}
);
leftKerningGroup = s;
rightKerningGroup = s;
unicode = 0073;
},
{
glyphname = t;
lastChange = "2020-06-16 14:29:32 +0000";
layers = (
{
layerId = "CA54B7DC-FBBB-40FE-ACF3-AABDD76D6A7B";
paths = (
{
closed = 1;
nodes = (
"352 1240 LINE SMOOTH",
"352 1128 OFFCURVE",
"344 1100 OFFCURVE",
"232 1100 CURVE SMOOTH",
"18 1100 LINE",
"18 1060 LINE",
"348 1060 LINE",
"348 298 LINE SMOOTH",
"348 87 OFFCURVE",
"441 -20 OFFCURVE",
"616 -20 CURVE SMOOTH",
"791 -20 OFFCURVE",
"884 89 OFFCURVE",
"884 298 CURVE SMOOTH",
"884 380 LINE",
"840 380 LINE",
"840 298 LINE SMOOTH",
"840 121 OFFCURVE",
"767 24 OFFCURVE",
"618 24 CURVE SMOOTH",
"469 24 OFFCURVE",
"396 119 OFFCURVE",
"396 298 CURVE SMOOTH",
"396 1400 LINE",
"352 1400 LINE"
);
},
{
closed = 1;
nodes = (
"396 1060 LINE",
"978 1060 LINE",
"978 1100 LINE",
"396 1100 LINE"
);
}
);
width = 1040;
},
{
layerId = "1E61A082-F045-49A7-AB52-DD1B03FD9B54";
paths = (
{
closed = 1;
nodes = (
"346 1220 LINE SMOOTH",
"346 1108 OFFCURVE",
"338 1080 OFFCURVE",
"226 1080 CURVE SMOOTH",
"2 1080 LINE",
"2 1040 LINE",
"342 1040 LINE",
"342 312 LINE SMOOTH",
"342 92 OFFCURVE",
"440 -20 OFFCURVE",
"624 -20 CURVE SMOOTH",
"808 -20 OFFCURVE",
"906 94 OFFCURVE",
"906 312 CURVE SMOOTH",
"906 560 LINE",
"862 560 LINE",
"862 312 LINE SMOOTH",
"862 126 OFFCURVE",
"784 24 OFFCURVE",
"626 24 CURVE SMOOTH",
"468 24 OFFCURVE",
"390 124 OFFCURVE",
"390 312 CURVE SMOOTH",
"390 1380 LINE",
"346 1380 LINE"
);
},
{
closed = 1;
nodes = (
"390 1040 LINE",
"986 1040 LINE",
"986 1080 LINE",
"390 1080 LINE"
);
}
);
width = 1028;
},
{
layerId = "642E5713-E15A-4A7E-A28E-9A6B75A6585C";
paths = (
{
closed = 1;
nodes = (
"416 1374 LINE SMOOTH",
"416 1185 OFFCURVE",
"338 1114 OFFCURVE",
"106 1114 CURVE SMOOTH",
"6 1114 LINE",
"6 964 LINE",
"306 964 LINE",
"306 320 LINE SMOOTH",
"306 102 OFFCURVE",
"427 -20 OFFCURVE",
"650 -20 CURVE SMOOTH",
"869 -20 OFFCURVE",
"986 104 OFFCURVE",
"986 320 CURVE SMOOTH",
"986 560 LINE",
"818 560 LINE",
"818 306 LINE SMOOTH",
"818 217 OFFCURVE",
"782 162 OFFCURVE",
"702 162 CURVE SMOOTH",
"622 162 OFFCURVE",
"586 216 OFFCURVE",
"586 306 CURVE SMOOTH",
"586 1400 LINE",
"416 1400 LINE"
);
},
{
closed = 1;
nodes = (
"586 964 LINE",
"1056 964 LINE",
"1056 1120 LINE",
"586 1120 LINE"
);
}
);
width = 1128;
},
{
layerId = "AF891779-7DE6-4679-9CA2-17B922C1DF84";
paths = (
{
closed = 1;
nodes = (
"364 1414 LINE SMOOTH",
"364 1225 OFFCURVE",
"294 1150 OFFCURVE",
"64 1150 CURVE SMOOTH",
"4 1150 LINE",
"4 980 LINE",
"280 980 LINE",
"280 334 LINE SMOOTH",
"280 112 OFFCURVE",
"398 -20 OFFCURVE",
"630 -20 CURVE SMOOTH",
"860 -20 OFFCURVE",
"978 114 OFFCURVE",
"978 334 CURVE SMOOTH",
"978 400 LINE",
"792 400 LINE",
"792 322 LINE SMOOTH",
"792 234 OFFCURVE",
"756 184 OFFCURVE",
"676 184 CURVE SMOOTH",
"596 184 OFFCURVE",
"560 234 OFFCURVE",
"560 322 CURVE SMOOTH",
"560 1440 LINE",
"364 1440 LINE"
);
},
{
closed = 1;
nodes = (
"560 980 LINE",
"1026 980 LINE",
"1026 1160 LINE",
"560 1160 LINE"
);
}
);
width = 1074;
}
);
leftKerningGroup = t;
rightKerningGroup = t;
unicode = 0074;
},
{
glyphname = u;
lastChange = "2020-06-16 13:21:43 +0000";
layers = (
{
layerId = "CA54B7DC-FBBB-40FE-ACF3-AABDD76D6A7B";
paths = (
{
closed = 1;
nodes = (
"1094 1100 LINE",
"1046 1100 LINE",
"1046 390 LINE",
"1054 390 LINE",
"1054 0 LINE",
"1094 0 LINE"
);
},
{
closed = 1;
nodes = (
"1094 1100 LINE",
"826 1100 LINE",
"826 1060 LINE",
"1094 1060 LINE"
);
},
{
closed = 1;
nodes = (
"1294 40 LINE",
"1054 40 LINE",
"1054 0 LINE",
"1294 0 LINE"
);
},
{
closed = 1;
nodes = (
"1046 548 LINE",
"1046 186 OFFCURVE",
"842 22 OFFCURVE",
"620 24 CURVE SMOOTH",
"450 26 OFFCURVE",
"350 100 OFFCURVE",
"350 278 CURVE",
"350 1102 LINE",
"302 1102 LINE",
"302 278 LINE",
"302 68 OFFCURVE",
"430 -14 OFFCURVE",
"618 -16 CURVE SMOOTH",
"862 -18 OFFCURVE",
"1084 146 OFFCURVE",
"1084 548 CURVE"
);
},
{
closed = 1;
nodes = (
"350 1102 LINE",
"112 1102 LINE",
"112 1062 LINE",
"350 1062 LINE"
);
}
);
width = 1386;
},
{
layerId = "1E61A082-F045-49A7-AB52-DD1B03FD9B54";
paths = (
{
closed = 1;
nodes = (
"1026 1080 LINE",
"978 1080 LINE",
"978 380 LINE",
"986 380 LINE",
"986 0 LINE",
"1026 0 LINE"
);
},
{
closed = 1;
nodes = (
"1026 1080 LINE",
"758 1080 LINE",
"758 1040 LINE",
"1026 1040 LINE"
);
},
{
closed = 1;
nodes = (
"1226 40 LINE",
"986 40 LINE",
"986 0 LINE",
"1226 0 LINE"
);
},
{
closed = 1;
nodes = (
"978 538 LINE",
"978 183 OFFCURVE",
"774 22 OFFCURVE",
"552 24 CURVE SMOOTH",
"382 26 OFFCURVE",
"282 97 OFFCURVE",
"282 268 CURVE",
"282 1082 LINE",
"234 1082 LINE",
"234 268 LINE",
"234 65 OFFCURVE",
"362 -14 OFFCURVE",
"550 -16 CURVE SMOOTH",
"794 -18 OFFCURVE",
"1016 143 OFFCURVE",
"1016 538 CURVE"
);
},
{
closed = 1;
nodes = (
"282 1082 LINE",
"44 1082 LINE",
"44 1042 LINE",
"282 1042 LINE"
);
}
);
width = 1272;
},
{
layerId = "642E5713-E15A-4A7E-A28E-9A6B75A6585C";
paths = (
{
closed = 1;
nodes = (
"1128 1120 LINE",
"850 1120 LINE",
"850 380 LINE",
"900 380 LINE",
"900 0 LINE",
"1128 0 LINE"
);
},
{
closed = 1;
nodes = (
"1128 1120 LINE",
"670 1120 LINE",
"670 964 LINE",
"1128 964 LINE"
);
},
{
closed = 1;
nodes = (
"1308 158 LINE",
"900 158 LINE",
"900 0 LINE",
"1308 0 LINE"
);
},
{
closed = 1;
nodes = (
"850 468 LINE",
"850 228 OFFCURVE",
"727 164 OFFCURVE",
"618 164 CURVE SMOOTH",
"522 164 OFFCURVE",
"466 210 OFFCURVE",
"466 300 CURVE SMOOTH",
"466 1120 LINE",
"188 1120 LINE",
"188 290 LINE SMOOTH",
"188 73 OFFCURVE",
"337 -20 OFFCURVE",
"542 -20 CURVE SMOOTH",
"795 -20 OFFCURVE",
"952 113 OFFCURVE",
"952 468 CURVE"
);
},
{
closed = 1;
nodes = (
"466 1120 LINE",
"28 1120 LINE",
"28 964 LINE",
"466 964 LINE"
);
}
);
width = 1348;
},
{
layerId = "AF891779-7DE6-4679-9CA2-17B922C1DF84";
paths = (
{
closed = 1;
nodes = (
"1148 1160 LINE",
"870 1160 LINE",
"870 380 LINE",
"914 380 LINE",
"914 0 LINE",
"1148 0 LINE"
);
},
{
closed = 1;
nodes = (
"1148 1160 LINE",
"690 1160 LINE",
"690 980 LINE",
"1148 980 LINE"
);
},
{
closed = 1;
nodes = (
"1328 182 LINE",
"914 182 LINE",
"914 0 LINE",
"1328 0 LINE"
);
},
{
closed = 1;
nodes = (
"870 466 LINE",
"870 248 OFFCURVE",
"749 178 OFFCURVE",
"630 178 CURVE SMOOTH",
"533 178 OFFCURVE",
"474 224 OFFCURVE",
"474 318 CURVE SMOOTH",
"474 1160 LINE",
"196 1160 LINE",
"196 296 LINE SMOOTH",
"196 74 OFFCURVE",
"346 -20 OFFCURVE",
"552 -20 CURVE SMOOTH",
"844 -20 OFFCURVE",
"984 150 OFFCURVE",
"984 466 CURVE"
);
},
{
closed = 1;
nodes = (
"474 1160 LINE",
"34 1160 LINE",
"34 980 LINE",
"474 980 LINE"
);
}
);
width = 1388;
}
);
leftKerningGroup = u;
rightKerningGroup = u;
rightMetricsKey = l;
unicode = 0075;
},
{
glyphname = v;
lastChange = "2020-05-26 15:18:06 +0000";
layers = (
{
layerId = "CA54B7DC-FBBB-40FE-ACF3-AABDD76D6A7B";
paths = (
{
closed = 1;
nodes = (
"1024 1060 LINE",
"978 1060 LINE",
"598 50 LINE",
"596 0 LINE",
"624 0 LINE"
);
},
{
closed = 1;
nodes = (
"1164 1100 LINE",
"758 1100 LINE",
"758 1060 LINE",
"1164 1060 LINE"
);
},
{
closed = 1;
nodes = (
"608 0 LINE",
"610 50 LINE",
"230 1060 LINE",
"180 1060 LINE",
"580 0 LINE"
);
},
{
closed = 1;
nodes = (
"470 1060 LINE",
"470 1100 LINE",
"40 1100 LINE",
"40 1060 LINE"
);
}
);
width = 1204;
},
{
layerId = "1E61A082-F045-49A7-AB52-DD1B03FD9B54";
paths = (
{
closed = 1;
nodes = (
"986 1040 LINE",
"940 1040 LINE",
"560 50 LINE",
"558 0 LINE",
"586 0 LINE"
);
},
{
closed = 1;
nodes = (
"1126 1080 LINE",
"720 1080 LINE",
"720 1040 LINE",
"1126 1040 LINE"
);
},
{
closed = 1;
nodes = (
"570 0 LINE",
"572 50 LINE",
"192 1040 LINE",
"142 1040 LINE",
"542 0 LINE"
);
},
{
closed = 1;
nodes = (
"432 1040 LINE",
"432 1080 LINE",
"2 1080 LINE",
"2 1040 LINE"
);
}
);
width = 1128;
},
{
layerId = "642E5713-E15A-4A7E-A28E-9A6B75A6585C";
paths = (
{
closed = 1;
nodes = (
"986 1040 LINE",
"940 1040 LINE",
"560 50 LINE",
"558 0 LINE",
"586 0 LINE"
);
},
{
closed = 1;
nodes = (
"1126 1080 LINE",
"720 1080 LINE",
"720 1040 LINE",
"1126 1040 LINE"
);
},
{
closed = 1;
nodes = (
"570 0 LINE",
"572 50 LINE",
"192 1040 LINE",
"142 1040 LINE",
"542 0 LINE"
);
},
{
closed = 1;
nodes = (
"432 1040 LINE",
"432 1080 LINE",
"2 1080 LINE",
"2 1040 LINE"
);
}
);
width = 1128;
},
{
layerId = "AF891779-7DE6-4679-9CA2-17B922C1DF84";
paths = (
{
closed = 1;
nodes = (
"1024 1060 LINE",
"978 1060 LINE",
"598 50 LINE",
"596 0 LINE",
"624 0 LINE"
);
},
{
closed = 1;
nodes = (
"1164 1100 LINE",
"758 1100 LINE",
"758 1060 LINE",
"1164 1060 LINE"
);
},
{
closed = 1;
nodes = (
"608 0 LINE",
"610 50 LINE",
"230 1060 LINE",
"180 1060 LINE",
"580 0 LINE"
);
},
{
closed = 1;
nodes = (
"470 1060 LINE",
"470 1100 LINE",
"40 1100 LINE",
"40 1060 LINE"
);
}
);
width = 1204;
}
);
leftKerningGroup = v;
rightKerningGroup = v;
unicode = 0076;
},
{
glyphname = w;
lastChange = "2020-05-26 15:18:06 +0000";
layers = (
{
layerId = "CA54B7DC-FBBB-40FE-ACF3-AABDD76D6A7B";
paths = (
{
closed = 1;
nodes = (
"806 868 LINE",
"784 942 LINE",
"518 56 LINE",
"516 0 LINE",
"544 0 LINE"
);
},
{
closed = 1;
nodes = (
"528 0 LINE",
"530 56 LINE",
"228 1060 LINE",
"180 1060 LINE",
"500 0 LINE"
);
},
{
closed = 1;
nodes = (
"468 1060 LINE",
"468 1100 LINE",
"40 1100 LINE",
"40 1060 LINE"
);
},
{
closed = 1;
nodes = (
"1424 1060 LINE",
"1380 1060 LINE",
"1078 56 LINE",
"1076 0 LINE",
"1104 0 LINE"
);
},
{
closed = 1;
nodes = (
"1564 1100 LINE",
"1160 1100 LINE",
"1160 1060 LINE",
"1564 1060 LINE"
);
},
{
closed = 1;
nodes = (
"1088 0 LINE",
"1090 56 LINE",
"788 1060 LINE",
"740 1060 LINE",
"1060 0 LINE"
);
},
{
closed = 1;
nodes = (
"1028 1060 LINE",
"1028 1100 LINE",
"600 1100 LINE",
"600 1060 LINE"
);
}
);
width = 1604;
},
{
layerId = "1E61A082-F045-49A7-AB52-DD1B03FD9B54";
paths = (
{
closed = 1;
nodes = (
"768 852 LINE",
"746 922 LINE",
"480 56 LINE",
"478 0 LINE",
"506 0 LINE"
);
},
{
closed = 1;
nodes = (
"490 0 LINE",
"492 56 LINE",
"190 1040 LINE",
"142 1040 LINE",
"462 0 LINE"
);
},
{
closed = 1;
nodes = (
"430 1040 LINE",
"430 1080 LINE",
"2 1080 LINE",
"2 1040 LINE"
);
},
{
closed = 1;
nodes = (
"1386 1040 LINE",
"1342 1040 LINE",
"1040 56 LINE",
"1038 0 LINE",
"1066 0 LINE"
);
},
{
closed = 1;
nodes = (
"1526 1080 LINE",
"1122 1080 LINE",
"1122 1040 LINE",
"1526 1040 LINE"
);
},
{
closed = 1;
nodes = (
"1050 0 LINE",
"1052 56 LINE",
"750 1040 LINE",
"702 1040 LINE",
"1022 0 LINE"
);
},
{
closed = 1;
nodes = (
"990 1040 LINE",
"990 1080 LINE",
"562 1080 LINE",
"562 1040 LINE"
);
}
);
width = 1528;
},
{
layerId = "642E5713-E15A-4A7E-A28E-9A6B75A6585C";
paths = (
{
closed = 1;
nodes = (
"768 852 LINE",
"746 922 LINE",
"480 56 LINE",
"478 0 LINE",
"506 0 LINE"
);
},
{
closed = 1;
nodes = (
"490 0 LINE",
"492 56 LINE",
"190 1040 LINE",
"142 1040 LINE",
"462 0 LINE"
);
},
{
closed = 1;
nodes = (
"430 1040 LINE",
"430 1080 LINE",
"2 1080 LINE",
"2 1040 LINE"
);
},
{
closed = 1;
nodes = (
"1386 1040 LINE",
"1342 1040 LINE",
"1040 56 LINE",
"1038 0 LINE",
"1066 0 LINE"
);
},
{
closed = 1;
nodes = (
"1526 1080 LINE",
"1122 1080 LINE",
"1122 1040 LINE",
"1526 1040 LINE"
);
},
{
closed = 1;
nodes = (
"1050 0 LINE",
"1052 56 LINE",
"750 1040 LINE",
"702 1040 LINE",
"1022 0 LINE"
);
},
{
closed = 1;
nodes = (
"990 1040 LINE",
"990 1080 LINE",
"562 1080 LINE",
"562 1040 LINE"
);
}
);
width = 1528;
},
{
layerId = "AF891779-7DE6-4679-9CA2-17B922C1DF84";
paths = (
{
closed = 1;
nodes = (
"806 868 LINE",
"784 942 LINE",
"518 56 LINE",
"516 0 LINE",
"544 0 LINE"
);
},
{
closed = 1;
nodes = (
"528 0 LINE",
"530 56 LINE",
"228 1060 LINE",
"180 1060 LINE",
"500 0 LINE"
);
},
{
closed = 1;
nodes = (
"468 1060 LINE",
"468 1100 LINE",
"40 1100 LINE",
"40 1060 LINE"
);
},
{
closed = 1;
nodes = (
"1424 1060 LINE",
"1380 1060 LINE",
"1078 56 LINE",
"1076 0 LINE",
"1104 0 LINE"
);
},
{
closed = 1;
nodes = (
"1564 1100 LINE",
"1160 1100 LINE",
"1160 1060 LINE",
"1564 1060 LINE"
);
},
{
closed = 1;
nodes = (
"1088 0 LINE",
"1090 56 LINE",
"788 1060 LINE",
"740 1060 LINE",
"1060 0 LINE"
);
},
{
closed = 1;
nodes = (
"1028 1060 LINE",
"1028 1100 LINE",
"600 1100 LINE",
"600 1060 LINE"
);
}
);
width = 1604;
}
);
leftKerningGroup = w;
leftMetricsKey = v;
rightKerningGroup = w;
rightMetricsKey = v;
unicode = 0077;
},
{
glyphname = x;
lastChange = "2020-05-26 15:18:06 +0000";
layers = (
{
layerId = "CA54B7DC-FBBB-40FE-ACF3-AABDD76D6A7B";
paths = (
{
closed = 1;
nodes = (
"630 530 LINE",
"1024 1060 LINE",
"970 1060 LINE",
"618 586 LINE"
);
},
{
closed = 1;
nodes = (
"1164 1100 LINE",
"780 1100 LINE",
"780 1060 LINE",
"1164 1060 LINE"
);
},
{
closed = 1;
nodes = (
"614 586 LINE",
"210 40 LINE",
"264 40 LINE",
"626 530 LINE"
);
},
{
closed = 1;
nodes = (
"454 40 LINE",
"70 40 LINE",
"70 0 LINE",
"454 0 LINE"
);
},
{
closed = 1;
nodes = (
"278 1060 LINE",
"224 1060 LINE",
"618 530 LINE",
"630 586 LINE"
);
},
{
closed = 1;
nodes = (
"468 1060 LINE",
"468 1100 LINE",
"84 1100 LINE",
"84 1060 LINE"
);
},
{
closed = 1;
nodes = (
"984 40 LINE",
"1038 40 LINE",
"634 586 LINE",
"622 530 LINE"
);
},
{
closed = 1;
nodes = (
"1178 0 LINE",
"1178 40 LINE",
"794 40 LINE",
"794 0 LINE"
);
},
{
closed = 1;
nodes = (
"636 532 OFFCURVE",
"644 540 OFFCURVE",
"644 552 CURVE SMOOTH",
"644 564 OFFCURVE",
"636 572 OFFCURVE",
"624 572 CURVE SMOOTH",
"612 572 OFFCURVE",
"604 564 OFFCURVE",
"604 552 CURVE SMOOTH",
"604 540 OFFCURVE",
"612 532 OFFCURVE",
"624 532 CURVE SMOOTH"
);
}
);
width = 1248;
},
{
layerId = "1E61A082-F045-49A7-AB52-DD1B03FD9B54";
paths = (
{
closed = 1;
nodes = (
"594 520 LINE",
"987 1040 LINE",
"933 1040 LINE",
"582 576 LINE"
);
},
{
closed = 1;
nodes = (
"1127 1080 LINE",
"743 1080 LINE",
"743 1040 LINE",
"1127 1040 LINE"
);
},
{
closed = 1;
nodes = (
"578 576 LINE",
"174 40 LINE",
"228 40 LINE",
"590 520 LINE"
);
},
{
closed = 1;
nodes = (
"418 40 LINE",
"34 40 LINE",
"34 0 LINE",
"418 0 LINE"
);
},
{
closed = 1;
nodes = (
"243 1040 LINE",
"189 1040 LINE",
"582 520 LINE",
"594 576 LINE"
);
},
{
closed = 1;
nodes = (
"433 1040 LINE",
"433 1080 LINE",
"49 1080 LINE",
"49 1040 LINE"
);
},
{
closed = 1;
nodes = (
"948 40 LINE",
"1002 40 LINE",
"598 576 LINE",
"586 520 LINE"
);
},
{
closed = 1;
nodes = (
"1142 0 LINE",
"1142 40 LINE",
"758 40 LINE",
"758 0 LINE"
);
},
{
closed = 1;
nodes = (
"600 522 OFFCURVE",
"608 530 OFFCURVE",
"608 542 CURVE SMOOTH",
"608 554 OFFCURVE",
"600 562 OFFCURVE",
"588 562 CURVE SMOOTH",
"576 562 OFFCURVE",
"568 554 OFFCURVE",
"568 542 CURVE SMOOTH",
"568 530 OFFCURVE",
"576 522 OFFCURVE",
"588 522 CURVE SMOOTH"
);
}
);
width = 1176;
},
{
layerId = "642E5713-E15A-4A7E-A28E-9A6B75A6585C";
paths = (
{
closed = 1;
nodes = (
"594 520 LINE",
"987 1040 LINE",
"933 1040 LINE",
"582 576 LINE"
);
},
{
closed = 1;
nodes = (
"1127 1080 LINE",
"743 1080 LINE",
"743 1040 LINE",
"1127 1040 LINE"
);
},
{
closed = 1;
nodes = (
"578 576 LINE",
"174 40 LINE",
"228 40 LINE",
"590 520 LINE"
);
},
{
closed = 1;
nodes = (
"418 40 LINE",
"34 40 LINE",
"34 0 LINE",
"418 0 LINE"
);
},
{
closed = 1;
nodes = (
"243 1040 LINE",
"189 1040 LINE",
"582 520 LINE",
"594 576 LINE"
);
},
{
closed = 1;
nodes = (
"433 1040 LINE",
"433 1080 LINE",
"49 1080 LINE",
"49 1040 LINE"
);
},
{
closed = 1;
nodes = (
"948 40 LINE",
"1002 40 LINE",
"598 576 LINE",
"586 520 LINE"
);
},
{
closed = 1;
nodes = (
"1142 0 LINE",
"1142 40 LINE",
"758 40 LINE",
"758 0 LINE"
);
},
{
closed = 1;
nodes = (
"600 522 OFFCURVE",
"608 530 OFFCURVE",
"608 542 CURVE SMOOTH",
"608 554 OFFCURVE",
"600 562 OFFCURVE",
"588 562 CURVE SMOOTH",
"576 562 OFFCURVE",
"568 554 OFFCURVE",
"568 542 CURVE SMOOTH",
"568 530 OFFCURVE",
"576 522 OFFCURVE",
"588 522 CURVE SMOOTH"
);
}
);
width = 1176;
},
{
layerId = "AF891779-7DE6-4679-9CA2-17B922C1DF84";
paths = (
{
closed = 1;
nodes = (
"630 530 LINE",
"1024 1060 LINE",
"970 1060 LINE",
"618 586 LINE"
);
},
{
closed = 1;
nodes = (
"1164 1100 LINE",
"780 1100 LINE",
"780 1060 LINE",
"1164 1060 LINE"
);
},
{
closed = 1;
nodes = (
"614 586 LINE",
"210 40 LINE",
"264 40 LINE",
"626 530 LINE"
);
},
{
closed = 1;
nodes = (
"454 40 LINE",
"70 40 LINE",
"70 0 LINE",
"454 0 LINE"
);
},
{
closed = 1;
nodes = (
"278 1060 LINE",
"224 1060 LINE",
"618 530 LINE",
"630 586 LINE"
);
},
{
closed = 1;
nodes = (
"468 1060 LINE",
"468 1100 LINE",
"84 1100 LINE",
"84 1060 LINE"
);
},
{
closed = 1;
nodes = (
"984 40 LINE",
"1038 40 LINE",
"634 586 LINE",
"622 530 LINE"
);
},
{
closed = 1;
nodes = (
"1178 0 LINE",
"1178 40 LINE",
"794 40 LINE",
"794 0 LINE"
);
},
{
closed = 1;
nodes = (
"636 532 OFFCURVE",
"644 540 OFFCURVE",
"644 552 CURVE SMOOTH",
"644 564 OFFCURVE",
"636 572 OFFCURVE",
"624 572 CURVE SMOOTH",
"612 572 OFFCURVE",
"604 564 OFFCURVE",
"604 552 CURVE SMOOTH",
"604 540 OFFCURVE",
"612 532 OFFCURVE",
"624 532 CURVE SMOOTH"
);
}
);
width = 1248;
}
);
leftKerningGroup = x;
rightKerningGroup = x;
unicode = 0078;
},
{
glyphname = y;
lastChange = "2020-05-26 15:18:06 +0000";
layers = (
{
layerId = "CA54B7DC-FBBB-40FE-ACF3-AABDD76D6A7B";
paths = (
{
closed = 1;
nodes = (
"1164 1100 LINE",
"758 1100 LINE",
"758 1060 LINE",
"1164 1060 LINE"
);
},
{
closed = 1;
nodes = (
"608 0 LINE",
"610 50 LINE",
"230 1060 LINE",
"180 1060 LINE",
"594 -36 LINE"
);
},
{
closed = 1;
nodes = (
"470 1060 LINE",
"470 1100 LINE",
"40 1100 LINE",
"40 1060 LINE"
);
},
{
closed = 1;
nodes = (
"72 -324 OFFCURVE",
"158 -400 OFFCURVE",
"298 -400 CURVE SMOOTH",
"435 -400 OFFCURVE",
"506 -311 OFFCURVE",
"552 -188 CURVE SMOOTH",
"1024 1060 LINE",
"978 1060 LINE",
"598 50 LINE",
"584 16 LINE",
"512 -176 LINE SMOOTH",
"470 -288 OFFCURVE",
"405 -360 OFFCURVE",
"298 -360 CURVE SMOOTH",
"188 -360 OFFCURVE",
"118 -300 OFFCURVE",
"114 -208 CURVE SMOOTH",
"112 -156 OFFCURVE",
"142 -140 OFFCURVE",
"142 -102 CURVE SMOOTH",
"142 -84 OFFCURVE",
"132 -74 OFFCURVE",
"116 -74 CURVE SMOOTH",
"86 -74 OFFCURVE",
"66 -118 OFFCURVE",
"68 -186 CURVE SMOOTH"
);
}
);
width = 1204;
},
{
layerId = "1E61A082-F045-49A7-AB52-DD1B03FD9B54";
paths = (
{
closed = 1;
nodes = (
"1126 1080 LINE",
"720 1080 LINE",
"720 1040 LINE",
"1126 1040 LINE"
);
},
{
closed = 1;
nodes = (
"570 0 LINE",
"572 50 LINE",
"192 1040 LINE",
"142 1040 LINE",
"556 -36 LINE"
);
},
{
closed = 1;
nodes = (
"432 1040 LINE",
"432 1080 LINE",
"2 1080 LINE",
"2 1040 LINE"
);
},
{
closed = 1;
nodes = (
"34 -324 OFFCURVE",
"120 -400 OFFCURVE",
"260 -400 CURVE SMOOTH",
"394 -400 OFFCURVE",
"464 -316 OFFCURVE",
"514 -187 CURVE SMOOTH",
"986 1040 LINE",
"940 1040 LINE",
"560 50 LINE",
"546 16 LINE",
"474 -176 LINE SMOOTH",
"432 -288 OFFCURVE",
"367 -360 OFFCURVE",
"260 -360 CURVE SMOOTH",
"150 -360 OFFCURVE",
"80 -300 OFFCURVE",
"76 -208 CURVE SMOOTH",
"74 -156 OFFCURVE",
"104 -140 OFFCURVE",
"104 -102 CURVE SMOOTH",
"104 -84 OFFCURVE",
"94 -74 OFFCURVE",
"78 -74 CURVE SMOOTH",
"48 -74 OFFCURVE",
"28 -118 OFFCURVE",
"30 -186 CURVE SMOOTH"
);
}
);
width = 1128;
},
{
layerId = "642E5713-E15A-4A7E-A28E-9A6B75A6585C";
paths = (
{
closed = 1;
nodes = (
"1126 1080 LINE",
"720 1080 LINE",
"720 1040 LINE",
"1126 1040 LINE"
);
},
{
closed = 1;
nodes = (
"570 0 LINE",
"572 50 LINE",
"192 1040 LINE",
"142 1040 LINE",
"556 -36 LINE"
);
},
{
closed = 1;
nodes = (
"432 1040 LINE",
"432 1080 LINE",
"2 1080 LINE",
"2 1040 LINE"
);
},
{
closed = 1;
nodes = (
"34 -324 OFFCURVE",
"120 -400 OFFCURVE",
"260 -400 CURVE SMOOTH",
"394 -400 OFFCURVE",
"464 -316 OFFCURVE",
"514 -187 CURVE SMOOTH",
"986 1040 LINE",
"940 1040 LINE",
"560 50 LINE",
"546 16 LINE",
"474 -176 LINE SMOOTH",
"432 -288 OFFCURVE",
"367 -360 OFFCURVE",
"260 -360 CURVE SMOOTH",
"150 -360 OFFCURVE",
"80 -300 OFFCURVE",
"76 -208 CURVE SMOOTH",
"74 -156 OFFCURVE",
"104 -140 OFFCURVE",
"104 -102 CURVE SMOOTH",
"104 -84 OFFCURVE",
"94 -74 OFFCURVE",
"78 -74 CURVE SMOOTH",
"48 -74 OFFCURVE",
"28 -118 OFFCURVE",
"30 -186 CURVE SMOOTH"
);
}
);
width = 1128;
},
{
layerId = "AF891779-7DE6-4679-9CA2-17B922C1DF84";
paths = (
{
closed = 1;
nodes = (
"1164 1100 LINE",
"758 1100 LINE",
"758 1060 LINE",
"1164 1060 LINE"
);
},
{
closed = 1;
nodes = (
"608 0 LINE",
"610 50 LINE",
"230 1060 LINE",
"180 1060 LINE",
"594 -36 LINE"
);
},
{
closed = 1;
nodes = (
"470 1060 LINE",
"470 1100 LINE",
"40 1100 LINE",
"40 1060 LINE"
);
},
{
closed = 1;
nodes = (
"72 -324 OFFCURVE",
"158 -400 OFFCURVE",
"298 -400 CURVE SMOOTH",
"435 -400 OFFCURVE",
"506 -311 OFFCURVE",
"552 -188 CURVE SMOOTH",
"1024 1060 LINE",
"978 1060 LINE",
"598 50 LINE",
"584 16 LINE",
"512 -176 LINE SMOOTH",
"470 -288 OFFCURVE",
"405 -360 OFFCURVE",
"298 -360 CURVE SMOOTH",
"188 -360 OFFCURVE",
"118 -300 OFFCURVE",
"114 -208 CURVE SMOOTH",
"112 -156 OFFCURVE",
"142 -140 OFFCURVE",
"142 -102 CURVE SMOOTH",
"142 -84 OFFCURVE",
"132 -74 OFFCURVE",
"116 -74 CURVE SMOOTH",
"86 -74 OFFCURVE",
"66 -118 OFFCURVE",
"68 -186 CURVE SMOOTH"
);
}
);
width = 1204;
}
);
leftKerningGroup = v;
leftMetricsKey = v;
rightKerningGroup = v;
rightMetricsKey = v;
unicode = 0079;
},
{
glyphname = z;
lastChange = "2020-06-16 14:28:51 +0000";
layers = (
{
layerId = "CA54B7DC-FBBB-40FE-ACF3-AABDD76D6A7B";
paths = (
{
closed = 1;
nodes = (
"188 1060 LINE",
"936 1060 LINE",
"996 1064 LINE",
"996 1100 LINE",
"188 1100 LINE"
);
},
{
closed = 1;
nodes = (
"148 0 LINE",
"1000 0 LINE",
"1000 40 LINE",
"208 40 LINE",
"148 36 LINE"
);
},
{
closed = 1;
nodes = (
"208 40 LINE",
"996 1064 LINE",
"936 1060 LINE",
"148 36 LINE"
);
},
{
closed = 1;
nodes = (
"1000 40 LINE",
"1000 320 LINE",
"956 320 LINE",
"956 180 LINE SMOOTH",
"956 68 OFFCURVE",
"948 40 OFFCURVE",
"836 40 CURVE"
);
},
{
closed = 1;
nodes = (
"188 1060 LINE",
"188 790 LINE",
"232 790 LINE",
"232 920 LINE SMOOTH",
"232 1032 OFFCURVE",
"240 1060 OFFCURVE",
"352 1060 CURVE"
);
}
);
width = 1148;
},
{
layerId = "1E61A082-F045-49A7-AB52-DD1B03FD9B54";
paths = (
{
closed = 1;
nodes = (
"148 1040 LINE",
"896 1040 LINE",
"956 1044 LINE",
"956 1080 LINE",
"148 1080 LINE"
);
},
{
closed = 1;
nodes = (
"108 0 LINE",
"960 0 LINE",
"960 40 LINE",
"168 40 LINE",
"108 36 LINE"
);
},
{
closed = 1;
nodes = (
"168 40 LINE",
"956 1044 LINE",
"896 1040 LINE",
"108 36 LINE"
);
},
{
closed = 1;
nodes = (
"960 40 LINE",
"960 390 LINE",
"916 390 LINE",
"916 180 LINE SMOOTH",
"916 68 OFFCURVE",
"908 40 OFFCURVE",
"796 40 CURVE"
);
},
{
closed = 1;
nodes = (
"148 1040 LINE",
"148 710 LINE",
"192 710 LINE",
"192 900 LINE SMOOTH",
"192 1012 OFFCURVE",
"200 1040 OFFCURVE",
"312 1040 CURVE"
);
}
);
width = 1076;
},
{
layerId = "642E5713-E15A-4A7E-A28E-9A6B75A6585C";
paths = (
{
closed = 1;
nodes = (
"148 1040 LINE",
"896 1040 LINE",
"956 1044 LINE",
"956 1080 LINE",
"148 1080 LINE"
);
},
{
closed = 1;
nodes = (
"108 0 LINE",
"960 0 LINE",
"960 40 LINE",
"168 40 LINE",
"108 36 LINE"
);
},
{
closed = 1;
nodes = (
"168 40 LINE",
"956 1044 LINE",
"896 1040 LINE",
"108 36 LINE"
);
},
{
closed = 1;
nodes = (
"960 40 LINE",
"960 390 LINE",
"920 390 LINE",
"920 180 LINE SMOOTH",
"920 68 OFFCURVE",
"912 40 OFFCURVE",
"800 40 CURVE"
);
},
{
closed = 1;
nodes = (
"148 1040 LINE",
"148 710 LINE",
"188 710 LINE",
"188 900 LINE SMOOTH",
"188 1012 OFFCURVE",
"196 1040 OFFCURVE",
"308 1040 CURVE"
);
}
);
width = 1076;
},
{
layerId = "AF891779-7DE6-4679-9CA2-17B922C1DF84";
paths = (
{
closed = 1;
nodes = (
"188 1060 LINE",
"936 1060 LINE",
"996 1064 LINE",
"996 1100 LINE",
"188 1100 LINE"
);
},
{
closed = 1;
nodes = (
"148 0 LINE",
"1000 0 LINE",
"1000 40 LINE",
"208 40 LINE",
"148 36 LINE"
);
},
{
closed = 1;
nodes = (
"208 40 LINE",
"996 1064 LINE",
"936 1060 LINE",
"148 36 LINE"
);
},
{
closed = 1;
nodes = (
"1000 40 LINE",
"1000 320 LINE",
"960 320 LINE",
"960 180 LINE SMOOTH",
"960 68 OFFCURVE",
"952 40 OFFCURVE",
"840 40 CURVE"
);
},
{
closed = 1;
nodes = (
"188 1060 LINE",
"188 790 LINE",
"228 790 LINE",
"228 920 LINE SMOOTH",
"228 1032 OFFCURVE",
"236 1060 OFFCURVE",
"348 1060 CURVE"
);
}
);
width = 1148;
}
);
leftKerningGroup = z;
rightKerningGroup = z;
unicode = 007A;
},
{
glyphname = idotless.ss01;
lastChange = "2020-05-26 15:18:06 +0000";
layers = (
{
anchors = (
{
name = top;
position = "{296, 1100}";
}
);
layerId = "CA54B7DC-FBBB-40FE-ACF3-AABDD76D6A7B";
paths = (
{
closed = 1;
nodes = (
"272 168 LINE",
"320 168 LINE",
"320 1100 LINE",
"272 1100 LINE"
);
},
{
closed = 1;
nodes = (
"42 1060 LINE",
"320 1060 LINE",
"320 1100 LINE",
"42 1100 LINE"
);
},
{
closed = 1;
nodes = (
"272 168 LINE",
"272 51 OFFCURVE",
"337 -16 OFFCURVE",
"442 -16 CURVE SMOOTH",
"545 -16 OFFCURVE",
"608 51 OFFCURVE",
"608 168 CURVE SMOOTH",
"608 320 LINE",
"564 320 LINE",
"564 168 LINE SMOOTH",
"564 83 OFFCURVE",
"523 24 OFFCURVE",
"442 24 CURVE SMOOTH",
"361 24 OFFCURVE",
"320 83 OFFCURVE",
"320 168 CURVE"
);
}
);
width = 680;
},
{
anchors = (
{
name = top;
position = "{272, 1080}";
}
);
layerId = "1E61A082-F045-49A7-AB52-DD1B03FD9B54";
paths = (
{
closed = 1;
nodes = (
"248 176 LINE",
"296 176 LINE",
"296 1080 LINE",
"248 1080 LINE"
);
},
{
closed = 1;
nodes = (
"18 1040 LINE",
"296 1040 LINE",
"296 1080 LINE",
"18 1080 LINE"
);
},
{
closed = 1;
nodes = (
"248 176 LINE",
"248 54 OFFCURVE",
"316 -16 OFFCURVE",
"426 -16 CURVE SMOOTH",
"534 -16 OFFCURVE",
"600 54 OFFCURVE",
"600 176 CURVE SMOOTH",
"600 360 LINE",
"556 360 LINE",
"556 176 LINE SMOOTH",
"556 86 OFFCURVE",
"512 24 OFFCURVE",
"426 24 CURVE SMOOTH",
"340 24 OFFCURVE",
"296 86 OFFCURVE",
"296 176 CURVE"
);
}
);
width = 668;
},
{
anchors = (
{
name = top;
position = "{272, 1080}";
}
);
layerId = "642E5713-E15A-4A7E-A28E-9A6B75A6585C";
paths = (
{
closed = 1;
nodes = (
"248 176 LINE",
"296 176 LINE",
"296 1080 LINE",
"248 1080 LINE"
);
},
{
closed = 1;
nodes = (
"18 1040 LINE",
"296 1040 LINE",
"296 1080 LINE",
"18 1080 LINE"
);
},
{
closed = 1;
nodes = (
"248 176 LINE",
"248 54 OFFCURVE",
"316 -16 OFFCURVE",
"426 -16 CURVE SMOOTH",
"534 -16 OFFCURVE",
"600 54 OFFCURVE",
"600 176 CURVE SMOOTH",
"600 360 LINE",
"556 360 LINE",
"556 176 LINE SMOOTH",
"556 86 OFFCURVE",
"512 24 OFFCURVE",
"426 24 CURVE SMOOTH",
"340 24 OFFCURVE",
"296 86 OFFCURVE",
"296 176 CURVE"
);
}
);
width = 668;
},
{
anchors = (
{
name = top;
position = "{296, 1100}";
}
);
layerId = "AF891779-7DE6-4679-9CA2-17B922C1DF84";
paths = (
{
closed = 1;
nodes = (
"272 168 LINE",
"320 168 LINE",
"320 1100 LINE",
"272 1100 LINE"
);
},
{
closed = 1;
nodes = (
"42 1060 LINE",
"320 1060 LINE",
"320 1100 LINE",
"42 1100 LINE"
);
},
{
closed = 1;
nodes = (
"272 168 LINE",
"272 51 OFFCURVE",
"337 -16 OFFCURVE",
"442 -16 CURVE SMOOTH",
"545 -16 OFFCURVE",
"608 51 OFFCURVE",
"608 168 CURVE SMOOTH",
"608 320 LINE",
"564 320 LINE",
"564 168 LINE SMOOTH",
"564 83 OFFCURVE",
"523 24 OFFCURVE",
"442 24 CURVE SMOOTH",
"361 24 OFFCURVE",
"320 83 OFFCURVE",
"320 168 CURVE"
);
}
);
width = 680;
}
);
leftKerningGroup = ialt;
leftMetricsKey = l.ss01;
rightKerningGroup = ialt;
rightMetricsKey = l.ss01;
},
{
glyphname = l.ss01;
lastChange = "2020-05-26 15:18:06 +0000";
layers = (
{
layerId = "CA54B7DC-FBBB-40FE-ACF3-AABDD76D6A7B";
paths = (
{
closed = 1;
nodes = (
"272 168 LINE",
"320 168 LINE",
"320 1520 LINE",
"272 1520 LINE"
);
},
{
closed = 1;
nodes = (
"42 1480 LINE",
"320 1480 LINE",
"320 1520 LINE",
"42 1520 LINE"
);
},
{
closed = 1;
nodes = (
"272 168 LINE",
"272 51 OFFCURVE",
"337 -16 OFFCURVE",
"442 -16 CURVE SMOOTH",
"545 -16 OFFCURVE",
"608 51 OFFCURVE",
"608 168 CURVE SMOOTH",
"608 320 LINE",
"564 320 LINE",
"564 168 LINE SMOOTH",
"564 83 OFFCURVE",
"523 24 OFFCURVE",
"442 24 CURVE SMOOTH",
"361 24 OFFCURVE",
"320 83 OFFCURVE",
"320 168 CURVE"
);
}
);
width = 680;
},
{
layerId = "1E61A082-F045-49A7-AB52-DD1B03FD9B54";
paths = (
{
closed = 1;
nodes = (
"248 176 LINE",
"296 176 LINE",
"296 1480 LINE",
"248 1480 LINE"
);
},
{
closed = 1;
nodes = (
"18 1440 LINE",
"296 1440 LINE",
"296 1480 LINE",
"18 1480 LINE"
);
},
{
closed = 1;
nodes = (
"248 176 LINE",
"248 54 OFFCURVE",
"316 -16 OFFCURVE",
"426 -16 CURVE SMOOTH",
"534 -16 OFFCURVE",
"600 54 OFFCURVE",
"600 176 CURVE SMOOTH",
"600 360 LINE",
"556 360 LINE",
"556 176 LINE SMOOTH",
"556 86 OFFCURVE",
"512 24 OFFCURVE",
"426 24 CURVE SMOOTH",
"340 24 OFFCURVE",
"296 86 OFFCURVE",
"296 176 CURVE"
);
}
);
width = 668;
},
{
layerId = "642E5713-E15A-4A7E-A28E-9A6B75A6585C";
paths = (
{
closed = 1;
nodes = (
"248 176 LINE",
"296 176 LINE",
"296 1480 LINE",
"248 1480 LINE"
);
},
{
closed = 1;
nodes = (
"18 1440 LINE",
"296 1440 LINE",
"296 1480 LINE",
"18 1480 LINE"
);
},
{
closed = 1;
nodes = (
"248 176 LINE",
"248 54 OFFCURVE",
"316 -16 OFFCURVE",
"426 -16 CURVE SMOOTH",
"534 -16 OFFCURVE",
"600 54 OFFCURVE",
"600 176 CURVE SMOOTH",
"600 360 LINE",
"556 360 LINE",
"556 176 LINE SMOOTH",
"556 86 OFFCURVE",
"512 24 OFFCURVE",
"426 24 CURVE SMOOTH",
"340 24 OFFCURVE",
"296 86 OFFCURVE",
"296 176 CURVE"
);
}
);
width = 668;
},
{
layerId = "AF891779-7DE6-4679-9CA2-17B922C1DF84";
paths = (
{
closed = 1;
nodes = (
"272 168 LINE",
"320 168 LINE",
"320 1520 LINE",
"272 1520 LINE"
);
},
{
closed = 1;
nodes = (
"42 1480 LINE",
"320 1480 LINE",
"320 1520 LINE",
"42 1520 LINE"
);
},
{
closed = 1;
nodes = (
"272 168 LINE",
"272 51 OFFCURVE",
"337 -16 OFFCURVE",
"442 -16 CURVE SMOOTH",
"545 -16 OFFCURVE",
"608 51 OFFCURVE",
"608 168 CURVE SMOOTH",
"608 320 LINE",
"564 320 LINE",
"564 168 LINE SMOOTH",
"564 83 OFFCURVE",
"523 24 OFFCURVE",
"442 24 CURVE SMOOTH",
"361 24 OFFCURVE",
"320 83 OFFCURVE",
"320 168 CURVE"
);
}
);
width = 680;
}
);
leftKerningGroup = b;
rightKerningGroup = ialt;
},
